<svg xmlns="http://www.w3.org/2000/svg" height="567px" width="509px" version="1.1"><polyline points="211.5,3.0,210.0,15.0,207.0,27.0,216.0,39.0" stroke="black" stroke-width="1" fill="none" />
<polyline points="208.5,31.5,220.5,40.5,232.5,40.5,244.5,46.5,256.5,54.0,268.5,58.5,280.5,54.0,289.5,40.5,301.5,42.0,313.5,48.0,325.5,51.0,337.5,54.0,349.5,54.0,361.5,51.0,373.5,55.5" stroke="black" stroke-width="1" fill="none" />
<polyline points="382.5,57.0,385.5,69.0,385.5,81.0,391.5,106.5,400.5,127.5" stroke="black" stroke-width="1" fill="none" />
<polyline points="409.5,153.0,421.5,175.5,433.5,186.0,445.5,196.5" stroke="black" stroke-width="1" fill="none" />
<polyline points="508.5,210.0,507.0,222.0,502.5,234.0,495.0,246.0,489.0,258.0,478.5,270.0,466.5,282.0,451.5,294.0,441.0,306.0,429.0,318.0,421.5,330.0,418.5,342.0,423.0,354.0,426.0,366.0,430.5,378.0,432.0,390.0,432.0,402.0,429.0,414.0,412.5,426.0,399.0,438.0,388.5,450.0,393.0,462.0,394.5,474.0,385.5,486.0,375.0,498.0,373.5,510.0,363.0,522.0,358.5,534.0,348.0,546.0,334.5,558.0" stroke="black" stroke-width="1" fill="none" />
<polyline points="373.5,492.0,385.5,486.0" stroke="black" stroke-width="1" fill="none" />
<polyline points="388.5,448.5,400.5,436.5,412.5,426.0,424.5,420.0" stroke="black" stroke-width="1" fill="none" />
<polyline points="459.0,421.5,471.0,414.0,483.0,405.0,495.0,387.0" stroke="black" stroke-width="1" fill="none" />
<polyline points="496.5,388.5,501.0,400.5,502.5,412.5,496.5,424.5,492.0,436.5,490.5,448.5,487.5,460.5,484.5,472.5,480.0,484.5" stroke="black" stroke-width="1" fill="none" />
<polyline points="480.0,484.5,468.0,492.0,456.0,484.5,454.5,483.0,453.0,471.0,451.5,459.0,459.0,447.0,457.5,435.0,459.0,423.0,477.0,411.0,484.5,399.0,492.0,387.0" stroke="black" stroke-width="1" fill="none" />
<polyline points="421.5,330.0,433.5,313.5,445.5,300.0,457.5,288.0,469.5,279.0,481.5,267.0,493.5,247.5,505.5,228.0" stroke="black" stroke-width="1" fill="none" />
<polyline points="382.5,82.5,370.5,66.0" stroke="black" stroke-width="1" fill="none" />
<polyline points="370.5,66.0,373.5,78.0,382.5,90.0,388.5,102.0,394.5,114.0,397.5,126.0,408.0,138.0,408.0,150.0,417.0,162.0,420.0,174.0,430.5,186.0,445.5,198.0,453.0,210.0,454.5,211.5,466.5,216.0,478.5,214.5,490.5,213.0,502.5,210.0" stroke="black" stroke-width="1" fill="none" />
<polyline points="379.5,79.5,373.5,67.5" stroke="black" stroke-width="1" fill="none" />
<polyline points="285.0,40.5,279.0,52.5" stroke="black" stroke-width="1" fill="none" />
<polyline points="249.0,54.0,234.0,42.0" stroke="black" stroke-width="1" fill="none" />
<polyline points="211.5,3.0,193.5,1.5,181.5,3.0,169.5,4.5,157.5,4.5,145.5,7.5,133.5,10.5,121.5,15.0,109.5,18.0,97.5,18.0,85.5,19.5" stroke="black" stroke-width="1" fill="none" />
<polyline points="58.5,51.0,70.5,34.5,82.5,27.0,85.5,24.0,67.5,36.0,61.5,48.0,58.5,60.0,52.5,72.0,34.5,84.0,25.5,96.0,19.5,108.0,13.5,120.0,6.0,132.0,12.0,144.0,13.5,156.0,12.0,168.0,6.0,180.0,7.5,192.0,10.5,204.0,21.0,216.0,30.0,228.0,39.0,240.0,54.0,252.0,73.5,264.0" stroke="black" stroke-width="1" fill="none" />
<polyline points="10.5,204.0,22.5,216.0,34.5,232.5,46.5,246.0,58.5,253.5,70.5,261.0,82.5,262.5,94.5,258.0,106.5,256.5,118.5,261.0,130.5,255.0,142.5,252.0,154.5,249.0,166.5,252.0,178.5,264.0,190.5,264.0,202.5,270.0,202.5,276.0,201.0,288.0,198.0,300.0,198.0,312.0,213.0,324.0,220.5,336.0,223.5,348.0,228.0,360.0,229.5,372.0,232.5,384.0,223.5,396.0,222.0,408.0,217.5,420.0,217.5,432.0,226.5,444.0,231.0,456.0,238.5,468.0,238.5,480.0,241.5,492.0,243.0,504.0,250.5,516.0,256.5,528.0,262.5,540.0,264.0,552.0,268.5,564.0,288.0,567.0,300.0,565.5,312.0,565.5,324.0,562.5,336.0,558.0,348.0,546.0,360.0,525.0,372.0,513.0" stroke="black" stroke-width="1" fill="none" />
<polyline points="255.0,523.5,243.0,502.5" stroke="black" stroke-width="1" fill="none" />
<polyline points="231.0,451.5,219.0,433.5" stroke="black" stroke-width="1" fill="none" />
<polyline points="231.0,372.0,222.0,343.5" stroke="black" stroke-width="1" fill="none" />
<polyline points="211.5,321.0,199.5,312.0" stroke="black" stroke-width="1" fill="none" />
<polyline points="174.0,264.0,165.0,252.0" stroke="black" stroke-width="1" fill="none" />
<polyline points="6.0,130.5,18.0,109.5,30.0,91.5,42.0,79.5,54.0,70.5" stroke="black" stroke-width="1" fill="none" />
<polyline points="0.0,125.0,400.0,125.0" stroke="black" stroke-width="1" fill="none" />
<polyline points="400.0,140.0,220.0,320.0" stroke="black" stroke-width="1" fill="none" />
<polyline points="220.0,315.0,400.0,315.0" stroke="black" stroke-width="1" fill="none" />
<polyline points="400.0,340.0,240.0,500.0" stroke="black" stroke-width="1" fill="none" />
<polyline points="240.0,495.0,360.0,495.0" stroke="black" stroke-width="1" fill="none" />
<polyline points="360.0,500.0,300.0,560.0" stroke="black" stroke-width="1" fill="none" />
<polyline points="280.0,560.0,380.0,460.0" stroke="black" stroke-width="1" fill="none" />
<polyline points="380.0,440.0,260.0,560.0" stroke="black" stroke-width="1" fill="none" />
<polyline points="260.0,545.0,320.0,545.0" stroke="black" stroke-width="1" fill="none" />
<polyline points="260.0,540.0,420.0,380.0" stroke="black" stroke-width="1" fill="none" />
<polyline points="420.0,360.0,260.0,520.0" stroke="black" stroke-width="1" fill="none" />
<polyline points="260.0,515.0,340.0,515.0" stroke="black" stroke-width="1" fill="none" />
<polyline points="340.0,535.0,260.0,535.0" stroke="black" stroke-width="1" fill="none" />
<polyline points="260.0,525.0,340.0,525.0" stroke="black" stroke-width="1" fill="none" />
<polyline points="260.0,500.0,400.0,360.0" stroke="black" stroke-width="1" fill="none" />
<polyline points="420.0,400.0,400.0,420.0" stroke="black" stroke-width="1" fill="none" />
<polyline points="440.0,425.0,480.0,425.0" stroke="black" stroke-width="1" fill="none" />
<polyline points="480.0,420.0,440.0,460.0" stroke="black" stroke-width="1" fill="none" />
<polyline points="440.0,465.0,480.0,465.0" stroke="black" stroke-width="1" fill="none" />
<polyline points="480.0,440.0,440.0,480.0" stroke="black" stroke-width="1" fill="none" />
<polyline points="440.0,445.0,480.0,445.0" stroke="black" stroke-width="1" fill="none" />
<polyline points="480.0,435.0,460.0,435.0" stroke="black" stroke-width="1" fill="none" />
<polyline points="460.0,420.0,480.0,400.0" stroke="black" stroke-width="1" fill="none" />
<polyline points="480.0,385.0,500.0,385.0" stroke="black" stroke-width="1" fill="none" />
<polyline points="500.0,405.0,460.0,405.0" stroke="black" stroke-width="1" fill="none" />
<polyline points="480.0,240.0,240.0,480.0" stroke="black" stroke-width="1" fill="none" />
<polyline points="240.0,475.0,360.0,475.0" stroke="black" stroke-width="1" fill="none" />
<polyline points="360.0,505.0,240.0,505.0" stroke="black" stroke-width="1" fill="none" />
<polyline points="240.0,485.0,360.0,485.0" stroke="black" stroke-width="1" fill="none" />
<polyline points="380.0,465.0,240.0,465.0" stroke="black" stroke-width="1" fill="none" />
<polyline points="240.0,460.0,480.0,220.0" stroke="black" stroke-width="1" fill="none" />
<polyline points="460.0,220.0,240.0,440.0" stroke="black" stroke-width="1" fill="none" />
<polyline points="240.0,435.0,380.0,435.0" stroke="black" stroke-width="1" fill="none" />
<polyline points="380.0,455.0,240.0,455.0" stroke="black" stroke-width="1" fill="none" />
<polyline points="220.0,445.0,380.0,445.0" stroke="black" stroke-width="1" fill="none" />
<polyline points="420.0,395.0,240.0,395.0" stroke="black" stroke-width="1" fill="none" />
<polyline points="240.0,375.0,400.0,375.0" stroke="black" stroke-width="1" fill="none" />
<polyline points="440.0,220.0,220.0,440.0" stroke="black" stroke-width="1" fill="none" />
<polyline points="220.0,425.0,400.0,425.0" stroke="black" stroke-width="1" fill="none" />
<polyline points="240.0,360.0,420.0,180.0" stroke="black" stroke-width="1" fill="none" />
<polyline points="400.0,180.0,220.0,360.0" stroke="black" stroke-width="1" fill="none" />
<polyline points="220.0,365.0,420.0,365.0" stroke="black" stroke-width="1" fill="none" />
<polyline points="420.0,200.0,220.0,400.0" stroke="black" stroke-width="1" fill="none" />
<polyline points="220.0,405.0,420.0,405.0" stroke="black" stroke-width="1" fill="none" />
<polyline points="400.0,355.0,240.0,355.0" stroke="black" stroke-width="1" fill="none" />
<polyline points="220.0,345.0,420.0,345.0" stroke="black" stroke-width="1" fill="none" />
<polyline points="440.0,200.0,220.0,420.0" stroke="black" stroke-width="1" fill="none" />
<polyline points="220.0,415.0,400.0,415.0" stroke="black" stroke-width="1" fill="none" />
<polyline points="420.0,385.0,220.0,385.0" stroke="black" stroke-width="1" fill="none" />
<polyline points="220.0,340.0,400.0,160.0" stroke="black" stroke-width="1" fill="none" />
<polyline points="380.0,140.0,200.0,320.0" stroke="black" stroke-width="1" fill="none" />
<polyline points="200.0,305.0,420.0,305.0" stroke="black" stroke-width="1" fill="none" />
<polyline points="380.0,120.0,200.0,300.0" stroke="black" stroke-width="1" fill="none" />
<polyline points="200.0,295.0,420.0,295.0" stroke="black" stroke-width="1" fill="none" />
<polyline points="380.0,100.0,200.0,280.0" stroke="black" stroke-width="1" fill="none" />
<polyline points="200.0,275.0,440.0,275.0" stroke="black" stroke-width="1" fill="none" />
<polyline points="380.0,80.0,200.0,260.0" stroke="black" stroke-width="1" fill="none" />
<polyline points="200.0,255.0,460.0,255.0" stroke="black" stroke-width="1" fill="none" />
<polyline points="360.0,80.0,180.0,260.0" stroke="black" stroke-width="1" fill="none" />
<polyline points="180.0,240.0,360.0,60.0" stroke="black" stroke-width="1" fill="none" />
<polyline points="340.0,60.0,160.0,240.0" stroke="black" stroke-width="1" fill="none" />
<polyline points="160.0,245.0,480.0,245.0" stroke="black" stroke-width="1" fill="none" />
<polyline points="320.0,60.0,140.0,240.0" stroke="black" stroke-width="1" fill="none" />
<polyline points="120.0,240.0,300.0,60.0" stroke="black" stroke-width="1" fill="none" />
<polyline points="300.0,40.0,100.0,240.0" stroke="black" stroke-width="1" fill="none" />
<polyline points="60.0,240.0,240.0,60.0" stroke="black" stroke-width="1" fill="none" />
<polyline points="240.0,40.0,40.0,240.0" stroke="black" stroke-width="1" fill="none" />
<polyline points="40.0,235.0,480.0,235.0" stroke="black" stroke-width="1" fill="none" />
<polyline points="320.0,45.0,280.0,45.0" stroke="black" stroke-width="1" fill="none" />
<polyline points="260.0,60.0,60.0,260.0" stroke="black" stroke-width="1" fill="none" />
<polyline points="60.0,245.0,140.0,245.0" stroke="black" stroke-width="1" fill="none" />
<polyline points="200.0,265.0,460.0,265.0" stroke="black" stroke-width="1" fill="none" />
<polyline points="400.0,335.0,220.0,335.0" stroke="black" stroke-width="1" fill="none" />
<polyline points="220.0,325.0,420.0,325.0" stroke="black" stroke-width="1" fill="none" />
<polyline points="440.0,285.0,200.0,285.0" stroke="black" stroke-width="1" fill="none" />
<polyline points="40.0,225.0,500.0,225.0" stroke="black" stroke-width="1" fill="none" />
<polyline points="220.0,40.0,40.0,220.0" stroke="black" stroke-width="1" fill="none" />
<polyline points="40.0,215.0,440.0,215.0" stroke="black" stroke-width="1" fill="none" />
<polyline points="200.0,40.0,20.0,220.0" stroke="black" stroke-width="1" fill="none" />
<polyline points="20.0,205.0,500.0,205.0" stroke="black" stroke-width="1" fill="none" />
<polyline points="200.0,20.0,20.0,200.0" stroke="black" stroke-width="1" fill="none" />
<polyline points="20.0,195.0,420.0,195.0" stroke="black" stroke-width="1" fill="none" />
<polyline points="200.0,0.0,20.0,180.0" stroke="black" stroke-width="1" fill="none" />
<polyline points="20.0,175.0,400.0,175.0" stroke="black" stroke-width="1" fill="none" />
<polyline points="180.0,0.0,20.0,160.0" stroke="black" stroke-width="1" fill="none" />
<polyline points="20.0,155.0,400.0,155.0" stroke="black" stroke-width="1" fill="none" />
<polyline points="140.0,20.0,20.0,140.0" stroke="black" stroke-width="1" fill="none" />
<polyline points="20.0,135.0,380.0,135.0" stroke="black" stroke-width="1" fill="none" />
<polyline points="120.0,20.0,20.0,120.0" stroke="black" stroke-width="1" fill="none" />
<polyline points="20.0,115.0,380.0,115.0" stroke="black" stroke-width="1" fill="none" />
<polyline points="200.0,5.0,120.0,5.0" stroke="black" stroke-width="1" fill="none" />
<polyline points="100.0,20.0,60.0,60.0" stroke="black" stroke-width="1" fill="none" />
<polyline points="60.0,65.0,380.0,65.0" stroke="black" stroke-width="1" fill="none" />
<polyline points="200.0,35.0,100.0,35.0" stroke="black" stroke-width="1" fill="none" />
<polyline points="80.0,25.0,200.0,25.0" stroke="black" stroke-width="1" fill="none" />
<polyline points="220.0,55.0,80.0,55.0" stroke="black" stroke-width="1" fill="none" />
<polyline points="60.0,45.0,240.0,45.0" stroke="black" stroke-width="1" fill="none" />
<polyline points="360.0,75.0,60.0,75.0" stroke="black" stroke-width="1" fill="none" />
<polyline points="40.0,95.0,360.0,95.0" stroke="black" stroke-width="1" fill="none" />
<polyline points="400.0,145.0,20.0,145.0" stroke="black" stroke-width="1" fill="none" />
<polyline points="0.0,165.0,420.0,165.0" stroke="black" stroke-width="1" fill="none" />
<polyline points="380.0,105.0,20.0,105.0" stroke="black" stroke-width="1" fill="none" />
<polyline points="20.0,85.0,380.0,85.0" stroke="black" stroke-width="1" fill="none" />
<polyline points="440.0,185.0,0.0,185.0" stroke="black" stroke-width="1" fill="none" />
</svg>