<svg xmlns="http://www.w3.org/2000/svg" height="570px" width="512px" version="1.1"><polyline points="90.0,14.0,86.0,22.0,81.0,30.0,67.0,38.0,62.0,46.0,59.0,54.0,61.0,62.0,55.0,70.0,47.0,78.0" stroke="black" stroke-width="1" fill="none" />
<polyline points="38.0,81.0,32.0,89.0,26.0,97.0,22.0,105.0,16.0,113.0,13.0,121.0,7.0,129.0,7.0,137.0,12.0,145.0,12.0,153.0,13.0,161.0,11.0,169.0,10.0,177.0,3.0,187.0,9.0,195.0,10.0,203.0,18.0,211.0,25.0,219.0,30.0,227.0,35.0,235.0,42.0,243.0,53.0,251.0,65.0,259.0" stroke="black" stroke-width="1" fill="none" />
<polyline points="0.0,186.0,8.0,191.0,14.0,207.0,22.0,215.0,30.0,226.0,38.0,238.0,46.0,245.0,54.0,251.0,62.0,256.0,70.0,261.0,78.0,265.0,86.0,261.0,94.0,259.0,102.0,257.0,110.0,257.0,118.0,260.0,126.0,259.0,134.0,255.0,142.0,252.0,150.0,250.0,158.0,250.0,166.0,251.0,174.0,263.0,182.0,263.0,190.0,264.0,198.0,265.0" stroke="black" stroke-width="1" fill="none" />
<polyline points="197.0,265.0,203.0,273.0,202.0,281.0,201.0,289.0,200.0,297.0,199.0,305.0,200.0,313.0,209.0,321.0,217.0,329.0,222.0,337.0,223.0,345.0,228.0,353.0,228.0,361.0,230.0,369.0,234.0,377.0,232.0,385.0,224.0,393.0,224.0,401.0,222.0,409.0,219.0,417.0,218.0,425.0,218.0,433.0,226.0,441.0,230.0,449.0,232.0,457.0,238.0,465.0,237.0,473.0,239.0,481.0,241.0,489.0,242.0,497.0,244.0,505.0,248.0,513.0,254.0,521.0,257.0,529.0,261.0,537.0,266.0,545.0,264.0,553.0,267.0,561.0,275.0,569.0" stroke="black" stroke-width="1" fill="none" />
<polyline points="265.0,557.0,273.0,566.0,281.0,570.0,289.0,567.0,297.0,565.0,305.0,565.0,313.0,566.0,321.0,564.0,329.0,562.0,337.0,557.0,345.0,549.0,353.0,541.0,361.0,525.0,369.0,519.0" stroke="black" stroke-width="1" fill="none" />
<polyline points="373.0,492.0,381.0,488.0,389.0,486.0" stroke="black" stroke-width="1" fill="none" />
<polyline points="389.0,448.0,397.0,440.0,405.0,433.0,413.0,426.0,421.0,424.0,429.0,416.0" stroke="black" stroke-width="1" fill="none" />
<polyline points="460.0,419.0,468.0,414.0,476.0,412.0,484.0,403.0,493.0,387.0,488.0,395.0,484.0,403.0,477.0,411.0,460.0,419.0,459.0,427.0,459.0,435.0,460.0,443.0,459.0,451.0,453.0,459.0,453.0,467.0,456.0,475.0,456.0,483.0,461.0,491.0" stroke="black" stroke-width="1" fill="none" />
<polyline points="456.0,483.0,464.0,493.0,472.0,491.0,480.0,485.0" stroke="black" stroke-width="1" fill="none" />
<polyline points="478.0,487.0,483.0,479.0,486.0,471.0,487.0,463.0,489.0,455.0,492.0,447.0,492.0,439.0,496.0,431.0,497.0,423.0,498.0,415.0,504.0,409.0,502.0,401.0,500.0,393.0,500.0,391.0,492.0,388.0" stroke="black" stroke-width="1" fill="none" />
<polyline points="422.0,331.0,430.0,317.0,438.0,311.0,446.0,300.0,454.0,292.0,462.0,285.0,470.0,280.0,478.0,272.0,486.0,263.0,494.0,252.0,502.0,235.0,510.0,221.0" stroke="black" stroke-width="1" fill="none" />
<polyline points="508.0,209.0,510.0,217.0,507.0,226.0,503.0,234.0,498.0,242.0,495.0,250.0,489.0,258.0,484.0,266.0,476.0,274.0,468.0,282.0,456.0,290.0,448.0,298.0,443.0,306.0,435.0,314.0,428.0,322.0,423.0,330.0,420.0,338.0,424.0,346.0,423.0,354.0,425.0,362.0,428.0,370.0,431.0,378.0,432.0,386.0,432.0,394.0,433.0,402.0,431.0,410.0,427.0,418.0,413.0,426.0,404.0,434.0,395.0,442.0,389.0,450.0,394.0,458.0,394.0,466.0,395.0,474.0,394.0,482.0,376.0,490.0,377.0,498.0,375.0,506.0,373.0,514.0,364.0,522.0,360.0,530.0,356.0,538.0,348.0,546.0,340.0,554.0" stroke="black" stroke-width="1" fill="none" />
<polyline points="259.0,531.0,251.0,515.0,243.0,501.0" stroke="black" stroke-width="1" fill="none" />
<polyline points="235.0,460.0,227.0,441.0,219.0,433.0" stroke="black" stroke-width="1" fill="none" />
<polyline points="224.0,393.0,232.0,385.0" stroke="black" stroke-width="1" fill="none" />
<polyline points="230.0,356.0,222.0,343.0" stroke="black" stroke-width="1" fill="none" />
<polyline points="222.0,335.0,214.0,323.0,206.0,318.0,198.0,306.0" stroke="black" stroke-width="1" fill="none" />
<polyline points="170.0,259.0,163.0,251.0" stroke="black" stroke-width="1" fill="none" />
<polyline points="8.0,180.0,0.0,183.0" stroke="black" stroke-width="1" fill="none" />
<polyline points="7.0,128.0,15.0,115.0,23.0,103.0,31.0,91.0,39.0,81.0,47.0,78.0,55.0,70.0" stroke="black" stroke-width="1" fill="none" />
<polyline points="58.0,55.0,66.0,40.0,74.0,33.0,82.0,29.0,90.0,14.0,98.0,19.0,106.0,19.0,114.0,19.0,122.0,16.0,130.0,13.0,138.0,9.0,146.0,8.0,154.0,6.0,162.0,3.0,170.0,5.0,178.0,3.0,186.0,3.0,194.0,2.0,206.0,1.0,214.0,3.0" stroke="black" stroke-width="1" fill="none" />
<polyline points="209.0,11.0,213.0,7.0,210.0,15.0,211.0,23.0,208.0,31.0,216.0,39.0" stroke="black" stroke-width="1" fill="none" />
<polyline points="208.0,31.0,216.0,38.0,224.0,42.0,232.0,40.0,240.0,44.0,248.0,52.0,256.0,55.0,264.0,57.0,272.0,62.0,280.0,57.0" stroke="black" stroke-width="1" fill="none" />
<polyline points="279.0,46.0,287.0,41.0,295.0,41.0,303.0,44.0,311.0,47.0,319.0,52.0,327.0,51.0,335.0,53.0,343.0,56.0,351.0,54.0,359.0,51.0,367.0,52.0,375.0,55.0,383.0,56.0,385.0,62.0,386.0,70.0,387.0,78.0" stroke="black" stroke-width="1" fill="none" />
<polyline points="380.0,79.0,372.0,72.0" stroke="black" stroke-width="1" fill="none" />
<polyline points="374.0,68.0,377.0,76.0,383.0,84.0,384.0,94.0,392.0,107.0" stroke="black" stroke-width="1" fill="none" />
<polyline points="395.0,121.0,403.0,127.0" stroke="black" stroke-width="1" fill="none" />
<polyline points="410.0,154.0,418.0,162.0" stroke="black" stroke-width="1" fill="none" />
<polyline points="422.0,176.0,430.0,185.0,438.0,189.0,446.0,196.0,452.0,209.0,460.0,218.0,468.0,217.0,476.0,216.0,484.0,213.0,492.0,213.0,500.0,211.0,508.0,208.0" stroke="black" stroke-width="1" fill="none" />
<polyline points="454.0,212.0,452.0,204.0,445.0,196.0,436.0,188.0,425.0,180.0,421.0,172.0,419.0,164.0,411.0,156.0,409.0,148.0,407.0,140.0,404.0,132.0,397.0,124.0,395.0,116.0,392.0,108.0,388.0,100.0,383.0,92.0,379.0,84.0,373.0,76.0,371.0,68.0,371.0,66.0" stroke="black" stroke-width="1" fill="none" />
<polyline points="315.0,50.0,300.0,42.0" stroke="black" stroke-width="1" fill="none" />
<polyline points="286.0,41.0,279.0,49.0,280.0,57.0" stroke="black" stroke-width="1" fill="none" />
<polyline points="245.0,49.0,233.0,41.0" stroke="black" stroke-width="1" fill="none" />
<polyline points="207.0,29.0,210.0,13.0" stroke="black" stroke-width="1" fill="none" />
<polyline points="0.0,186.0,440.0,186.0" stroke="black" stroke-width="1" fill="none" />
<polyline points="440.0,192.0,224.0,408.0" stroke="black" stroke-width="1" fill="none" />
<polyline points="224.0,410.0,432.0,410.0" stroke="black" stroke-width="1" fill="none" />
<polyline points="432.0,408.0,416.0,424.0" stroke="black" stroke-width="1" fill="none" />
<polyline points="432.0,400.0,272.0,560.0" stroke="black" stroke-width="1" fill="none" />
<polyline points="272.0,558.0,328.0,558.0" stroke="black" stroke-width="1" fill="none" />
<polyline points="304.0,560.0,392.0,472.0" stroke="black" stroke-width="1" fill="none" />
<polyline points="392.0,464.0,296.0,560.0" stroke="black" stroke-width="1" fill="none" />
<polyline points="280.0,568.0,392.0,456.0" stroke="black" stroke-width="1" fill="none" />
<polyline points="392.0,448.0,272.0,568.0" stroke="black" stroke-width="1" fill="none" />
<polyline points="272.0,562.0,296.0,562.0" stroke="black" stroke-width="1" fill="none" />
<polyline points="272.0,552.0,432.0,392.0" stroke="black" stroke-width="1" fill="none" />
<polyline points="432.0,384.0,264.0,552.0" stroke="black" stroke-width="1" fill="none" />
<polyline points="264.0,554.0,336.0,554.0" stroke="black" stroke-width="1" fill="none" />
<polyline points="320.0,560.0,376.0,504.0" stroke="black" stroke-width="1" fill="none" />
<polyline points="376.0,496.0,312.0,560.0" stroke="black" stroke-width="1" fill="none" />
<polyline points="328.0,560.0,360.0,528.0" stroke="black" stroke-width="1" fill="none" />
<polyline points="336.0,550.0,272.0,550.0" stroke="black" stroke-width="1" fill="none" />
<polyline points="272.0,542.0,344.0,542.0" stroke="black" stroke-width="1" fill="none" />
<polyline points="264.0,544.0,432.0,376.0" stroke="black" stroke-width="1" fill="none" />
<polyline points="432.0,368.0,264.0,536.0" stroke="black" stroke-width="1" fill="none" />
<polyline points="264.0,534.0,352.0,534.0" stroke="black" stroke-width="1" fill="none" />
<polyline points="344.0,546.0,264.0,546.0" stroke="black" stroke-width="1" fill="none" />
<polyline points="264.0,538.0,352.0,538.0" stroke="black" stroke-width="1" fill="none" />
<polyline points="360.0,530.0,264.0,530.0" stroke="black" stroke-width="1" fill="none" />
<polyline points="264.0,528.0,424.0,368.0" stroke="black" stroke-width="1" fill="none" />
<polyline points="424.0,360.0,256.0,528.0" stroke="black" stroke-width="1" fill="none" />
<polyline points="256.0,522.0,360.0,522.0" stroke="black" stroke-width="1" fill="none" />
<polyline points="360.0,526.0,264.0,526.0" stroke="black" stroke-width="1" fill="none" />
<polyline points="256.0,520.0,424.0,352.0" stroke="black" stroke-width="1" fill="none" />
<polyline points="424.0,344.0,256.0,512.0" stroke="black" stroke-width="1" fill="none" />
<polyline points="256.0,514.0,368.0,514.0" stroke="black" stroke-width="1" fill="none" />
<polyline points="456.0,482.0,480.0,482.0" stroke="black" stroke-width="1" fill="none" />
<polyline points="480.0,480.0,472.0,488.0" stroke="black" stroke-width="1" fill="none" />
<polyline points="464.0,488.0,488.0,464.0" stroke="black" stroke-width="1" fill="none" />
<polyline points="488.0,456.0,464.0,480.0" stroke="black" stroke-width="1" fill="none" />
<polyline points="464.0,486.0,472.0,486.0" stroke="black" stroke-width="1" fill="none" />
<polyline points="456.0,480.0,488.0,448.0" stroke="black" stroke-width="1" fill="none" />
<polyline points="488.0,440.0,456.0,472.0" stroke="black" stroke-width="1" fill="none" />
<polyline points="456.0,470.0,480.0,470.0" stroke="black" stroke-width="1" fill="none" />
<polyline points="488.0,454.0,464.0,454.0" stroke="black" stroke-width="1" fill="none" />
<polyline points="464.0,446.0,488.0,446.0" stroke="black" stroke-width="1" fill="none" />
<polyline points="496.0,424.0,456.0,464.0" stroke="black" stroke-width="1" fill="none" />
<polyline points="456.0,462.0,480.0,462.0" stroke="black" stroke-width="1" fill="none" />
<polyline points="480.0,478.0,456.0,478.0" stroke="black" stroke-width="1" fill="none" />
<polyline points="456.0,474.0,488.0,474.0" stroke="black" stroke-width="1" fill="none" />
<polyline points="488.0,466.0,456.0,466.0" stroke="black" stroke-width="1" fill="none" />
<polyline points="456.0,458.0,488.0,458.0" stroke="black" stroke-width="1" fill="none" />
<polyline points="496.0,442.0,464.0,442.0" stroke="black" stroke-width="1" fill="none" />
<polyline points="464.0,440.0,504.0,400.0" stroke="black" stroke-width="1" fill="none" />
<polyline points="504.0,392.0,464.0,432.0" stroke="black" stroke-width="1" fill="none" />
<polyline points="464.0,430.0,488.0,430.0" stroke="black" stroke-width="1" fill="none" />
<polyline points="496.0,416.0,456.0,456.0" stroke="black" stroke-width="1" fill="none" />
<polyline points="456.0,450.0,488.0,450.0" stroke="black" stroke-width="1" fill="none" />
<polyline points="488.0,438.0,464.0,438.0" stroke="black" stroke-width="1" fill="none" />
<polyline points="456.0,434.0,496.0,434.0" stroke="black" stroke-width="1" fill="none" />
<polyline points="496.0,414.0,480.0,414.0" stroke="black" stroke-width="1" fill="none" />
<polyline points="472.0,416.0,464.0,424.0" stroke="black" stroke-width="1" fill="none" />
<polyline points="464.0,422.0,496.0,422.0" stroke="black" stroke-width="1" fill="none" />
<polyline points="496.0,406.0,488.0,406.0" stroke="black" stroke-width="1" fill="none" />
<polyline points="488.0,400.0,496.0,392.0" stroke="black" stroke-width="1" fill="none" />
<polyline points="488.0,394.0,504.0,394.0" stroke="black" stroke-width="1" fill="none" />
<polyline points="504.0,402.0,480.0,402.0" stroke="black" stroke-width="1" fill="none" />
<polyline points="472.0,410.0,504.0,410.0" stroke="black" stroke-width="1" fill="none" />
<polyline points="496.0,426.0,456.0,426.0" stroke="black" stroke-width="1" fill="none" />
<polyline points="456.0,418.0,496.0,418.0" stroke="black" stroke-width="1" fill="none" />
<polyline points="416.0,344.0,248.0,512.0" stroke="black" stroke-width="1" fill="none" />
<polyline points="248.0,510.0,368.0,510.0" stroke="black" stroke-width="1" fill="none" />
<polyline points="360.0,518.0,256.0,518.0" stroke="black" stroke-width="1" fill="none" />
<polyline points="248.0,506.0,376.0,506.0" stroke="black" stroke-width="1" fill="none" />
<polyline points="248.0,504.0,424.0,328.0" stroke="black" stroke-width="1" fill="none" />
<polyline points="448.0,296.0,248.0,496.0" stroke="black" stroke-width="1" fill="none" />
<polyline points="248.0,494.0,368.0,494.0" stroke="black" stroke-width="1" fill="none" />
<polyline points="248.0,488.0,496.0,240.0" stroke="black" stroke-width="1" fill="none" />
<polyline points="488.0,256.0,456.0,288.0" stroke="black" stroke-width="1" fill="none" />
<polyline points="472.0,222.0,504.0,222.0" stroke="black" stroke-width="1" fill="none" />
<polyline points="496.0,216.0,240.0,472.0" stroke="black" stroke-width="1" fill="none" />
<polyline points="240.0,470.0,392.0,470.0" stroke="black" stroke-width="1" fill="none" />
<polyline points="376.0,502.0,248.0,502.0" stroke="black" stroke-width="1" fill="none" />
<polyline points="240.0,498.0,376.0,498.0" stroke="black" stroke-width="1" fill="none" />
<polyline points="376.0,486.0,248.0,486.0" stroke="black" stroke-width="1" fill="none" />
<polyline points="240.0,488.0,512.0,216.0" stroke="black" stroke-width="1" fill="none" />
<polyline points="512.0,208.0,240.0,480.0" stroke="black" stroke-width="1" fill="none" />
<polyline points="240.0,478.0,392.0,478.0" stroke="black" stroke-width="1" fill="none" />
<polyline points="376.0,490.0,240.0,490.0" stroke="black" stroke-width="1" fill="none" />
<polyline points="240.0,482.0,392.0,482.0" stroke="black" stroke-width="1" fill="none" />
<polyline points="392.0,474.0,240.0,474.0" stroke="black" stroke-width="1" fill="none" />
<polyline points="240.0,466.0,392.0,466.0" stroke="black" stroke-width="1" fill="none" />
<polyline points="240.0,464.0,488.0,216.0" stroke="black" stroke-width="1" fill="none" />
<polyline points="488.0,210.0,512.0,210.0" stroke="black" stroke-width="1" fill="none" />
<polyline points="480.0,216.0,240.0,456.0" stroke="black" stroke-width="1" fill="none" />
<polyline points="240.0,454.0,384.0,454.0" stroke="black" stroke-width="1" fill="none" />
<polyline points="392.0,462.0,240.0,462.0" stroke="black" stroke-width="1" fill="none" />
<polyline points="232.0,458.0,392.0,458.0" stroke="black" stroke-width="1" fill="none" />
<polyline points="232.0,456.0,472.0,216.0" stroke="black" stroke-width="1" fill="none" />
<polyline points="464.0,216.0,232.0,448.0" stroke="black" stroke-width="1" fill="none" />
<polyline points="232.0,446.0,384.0,446.0" stroke="black" stroke-width="1" fill="none" />
<polyline points="424.0,382.0,240.0,382.0" stroke="black" stroke-width="1" fill="none" />
<polyline points="240.0,376.0,432.0,184.0" stroke="black" stroke-width="1" fill="none" />
<polyline points="424.0,184.0,232.0,376.0" stroke="black" stroke-width="1" fill="none" />
<polyline points="232.0,378.0,432.0,378.0" stroke="black" stroke-width="1" fill="none" />
<polyline points="456.0,216.0,232.0,440.0" stroke="black" stroke-width="1" fill="none" />
<polyline points="232.0,438.0,392.0,438.0" stroke="black" stroke-width="1" fill="none" />
<polyline points="424.0,374.0,240.0,374.0" stroke="black" stroke-width="1" fill="none" />
<polyline points="232.0,370.0,432.0,370.0" stroke="black" stroke-width="1" fill="none" />
<polyline points="448.0,208.0,224.0,432.0" stroke="black" stroke-width="1" fill="none" />
<polyline points="224.0,430.0,400.0,430.0" stroke="black" stroke-width="1" fill="none" />
<polyline points="392.0,450.0,232.0,450.0" stroke="black" stroke-width="1" fill="none" />
<polyline points="232.0,442.0,392.0,442.0" stroke="black" stroke-width="1" fill="none" />
<polyline points="432.0,406.0,232.0,406.0" stroke="black" stroke-width="1" fill="none" />
<polyline points="232.0,398.0,432.0,398.0" stroke="black" stroke-width="1" fill="none" />
<polyline points="456.0,208.0,224.0,440.0" stroke="black" stroke-width="1" fill="none" />
<polyline points="224.0,434.0,400.0,434.0" stroke="black" stroke-width="1" fill="none" />
<polyline points="432.0,390.0,232.0,390.0" stroke="black" stroke-width="1" fill="none" />
<polyline points="224.0,386.0,432.0,386.0" stroke="black" stroke-width="1" fill="none" />
<polyline points="440.0,200.0,224.0,416.0" stroke="black" stroke-width="1" fill="none" />
<polyline points="224.0,414.0,424.0,414.0" stroke="black" stroke-width="1" fill="none" />
<polyline points="232.0,368.0,424.0,176.0" stroke="black" stroke-width="1" fill="none" />
<polyline points="416.0,176.0,232.0,360.0" stroke="black" stroke-width="1" fill="none" />
<polyline points="232.0,358.0,416.0,358.0" stroke="black" stroke-width="1" fill="none" />
<polyline points="448.0,200.0,224.0,424.0" stroke="black" stroke-width="1" fill="none" />
<polyline points="224.0,422.0,416.0,422.0" stroke="black" stroke-width="1" fill="none" />
<polyline points="424.0,366.0,232.0,366.0" stroke="black" stroke-width="1" fill="none" />
<polyline points="224.0,362.0,424.0,362.0" stroke="black" stroke-width="1" fill="none" />
<polyline points="432.0,192.0,224.0,400.0" stroke="black" stroke-width="1" fill="none" />
<polyline points="224.0,402.0,432.0,402.0" stroke="black" stroke-width="1" fill="none" />
<polyline points="424.0,354.0,232.0,354.0" stroke="black" stroke-width="1" fill="none" />
<polyline points="232.0,352.0,416.0,168.0" stroke="black" stroke-width="1" fill="none" />
<polyline points="416.0,160.0,232.0,344.0" stroke="black" stroke-width="1" fill="none" />
<polyline points="232.0,350.0,424.0,350.0" stroke="black" stroke-width="1" fill="none" />
<polyline points="408.0,160.0,224.0,344.0" stroke="black" stroke-width="1" fill="none" />
<polyline points="224.0,342.0,416.0,342.0" stroke="black" stroke-width="1" fill="none" />
<polyline points="408.0,152.0,224.0,336.0" stroke="black" stroke-width="1" fill="none" />
<polyline points="224.0,334.0,416.0,334.0" stroke="black" stroke-width="1" fill="none" />
<polyline points="408.0,144.0,224.0,328.0" stroke="black" stroke-width="1" fill="none" />
<polyline points="224.0,326.0,424.0,326.0" stroke="black" stroke-width="1" fill="none" />
<polyline points="408.0,136.0,216.0,328.0" stroke="black" stroke-width="1" fill="none" />
<polyline points="216.0,322.0,424.0,322.0" stroke="black" stroke-width="1" fill="none" />
<polyline points="400.0,136.0,216.0,320.0" stroke="black" stroke-width="1" fill="none" />
<polyline points="216.0,318.0,424.0,318.0" stroke="black" stroke-width="1" fill="none" />
<polyline points="400.0,128.0,208.0,320.0" stroke="black" stroke-width="1" fill="none" />
<polyline points="208.0,314.0,432.0,314.0" stroke="black" stroke-width="1" fill="none" />
<polyline points="392.0,128.0,208.0,312.0" stroke="black" stroke-width="1" fill="none" />
<polyline points="200.0,312.0,392.0,120.0" stroke="black" stroke-width="1" fill="none" />
<polyline points="392.0,112.0,200.0,304.0" stroke="black" stroke-width="1" fill="none" />
<polyline points="200.0,302.0,440.0,302.0" stroke="black" stroke-width="1" fill="none" />
<polyline points="392.0,104.0,200.0,296.0" stroke="black" stroke-width="1" fill="none" />
<polyline points="200.0,298.0,448.0,298.0" stroke="black" stroke-width="1" fill="none" />
<polyline points="384.0,104.0,208.0,280.0" stroke="black" stroke-width="1" fill="none" />
<polyline points="208.0,278.0,472.0,278.0" stroke="black" stroke-width="1" fill="none" />
<polyline points="384.0,96.0,208.0,272.0" stroke="black" stroke-width="1" fill="none" />
<polyline points="208.0,270.0,480.0,270.0" stroke="black" stroke-width="1" fill="none" />
<polyline points="384.0,88.0,208.0,264.0" stroke="black" stroke-width="1" fill="none" />
<polyline points="200.0,264.0,376.0,88.0" stroke="black" stroke-width="1" fill="none" />
<polyline points="368.0,80.0,184.0,264.0" stroke="black" stroke-width="1" fill="none" />
<polyline points="192.0,264.0,384.0,72.0" stroke="black" stroke-width="1" fill="none" />
<polyline points="384.0,64.0,376.0,72.0" stroke="black" stroke-width="1" fill="none" />
<polyline points="376.0,70.0,384.0,70.0" stroke="black" stroke-width="1" fill="none" />
<polyline points="384.0,56.0,176.0,264.0" stroke="black" stroke-width="1" fill="none" />
<polyline points="176.0,256.0,376.0,56.0" stroke="black" stroke-width="1" fill="none" />
<polyline points="368.0,56.0,168.0,256.0" stroke="black" stroke-width="1" fill="none" />
<polyline points="168.0,254.0,488.0,254.0" stroke="black" stroke-width="1" fill="none" />
<polyline points="384.0,62.0,352.0,62.0" stroke="black" stroke-width="1" fill="none" />
<polyline points="352.0,56.0,160.0,248.0" stroke="black" stroke-width="1" fill="none" />
<polyline points="168.0,248.0,360.0,56.0" stroke="black" stroke-width="1" fill="none" />
<polyline points="352.0,50.0,368.0,50.0" stroke="black" stroke-width="1" fill="none" />
<polyline points="344.0,56.0,152.0,248.0" stroke="black" stroke-width="1" fill="none" />
<polyline points="144.0,248.0,336.0,56.0" stroke="black" stroke-width="1" fill="none" />
<polyline points="328.0,56.0,128.0,256.0" stroke="black" stroke-width="1" fill="none" />
<polyline points="120.0,256.0,320.0,56.0" stroke="black" stroke-width="1" fill="none" />
<polyline points="312.0,56.0,112.0,256.0" stroke="black" stroke-width="1" fill="none" />
<polyline points="112.0,254.0,128.0,254.0" stroke="black" stroke-width="1" fill="none" />
<polyline points="104.0,256.0,312.0,48.0" stroke="black" stroke-width="1" fill="none" />
<polyline points="304.0,48.0,96.0,256.0" stroke="black" stroke-width="1" fill="none" />
<polyline points="88.0,256.0,296.0,48.0" stroke="black" stroke-width="1" fill="none" />
<polyline points="296.0,40.0,280.0,56.0" stroke="black" stroke-width="1" fill="none" />
<polyline points="280.0,58.0,384.0,58.0" stroke="black" stroke-width="1" fill="none" />
<polyline points="344.0,62.0,288.0,62.0" stroke="black" stroke-width="1" fill="none" />
<polyline points="288.0,54.0,312.0,54.0" stroke="black" stroke-width="1" fill="none" />
<polyline points="328.0,50.0,280.0,50.0" stroke="black" stroke-width="1" fill="none" />
<polyline points="280.0,42.0,304.0,42.0" stroke="black" stroke-width="1" fill="none" />
<polyline points="272.0,64.0,72.0,264.0" stroke="black" stroke-width="1" fill="none" />
<polyline points="72.0,258.0,88.0,258.0" stroke="black" stroke-width="1" fill="none" />
<polyline points="72.0,256.0,264.0,64.0" stroke="black" stroke-width="1" fill="none" />
<polyline points="264.0,56.0,64.0,256.0" stroke="black" stroke-width="1" fill="none" />
<polyline points="64.0,254.0,96.0,254.0" stroke="black" stroke-width="1" fill="none" />
<polyline points="64.0,248.0,256.0,56.0" stroke="black" stroke-width="1" fill="none" />
<polyline points="248.0,56.0,56.0,248.0" stroke="black" stroke-width="1" fill="none" />
<polyline points="56.0,246.0,496.0,246.0" stroke="black" stroke-width="1" fill="none" />
<polyline points="432.0,394.0,224.0,394.0" stroke="black" stroke-width="1" fill="none" />
<polyline points="216.0,418.0,424.0,418.0" stroke="black" stroke-width="1" fill="none" />
<polyline points="424.0,346.0,224.0,346.0" stroke="black" stroke-width="1" fill="none" />
<polyline points="224.0,338.0,424.0,338.0" stroke="black" stroke-width="1" fill="none" />
<polyline points="424.0,330.0,224.0,330.0" stroke="black" stroke-width="1" fill="none" />
<polyline points="200.0,310.0,432.0,310.0" stroke="black" stroke-width="1" fill="none" />
<polyline points="408.0,426.0,216.0,426.0" stroke="black" stroke-width="1" fill="none" />
<polyline points="200.0,306.0,440.0,306.0" stroke="black" stroke-width="1" fill="none" />
<polyline points="448.0,294.0,208.0,294.0" stroke="black" stroke-width="1" fill="none" />
<polyline points="208.0,286.0,456.0,286.0" stroke="black" stroke-width="1" fill="none" />
<polyline points="456.0,290.0,200.0,290.0" stroke="black" stroke-width="1" fill="none" />
<polyline points="200.0,282.0,464.0,282.0" stroke="black" stroke-width="1" fill="none" />
<polyline points="472.0,274.0,200.0,274.0" stroke="black" stroke-width="1" fill="none" />
<polyline points="200.0,266.0,480.0,266.0" stroke="black" stroke-width="1" fill="none" />
<polyline points="480.0,262.0,200.0,262.0" stroke="black" stroke-width="1" fill="none" />
<polyline points="168.0,258.0,488.0,258.0" stroke="black" stroke-width="1" fill="none" />
<polyline points="248.0,48.0,48.0,248.0" stroke="black" stroke-width="1" fill="none" />
<polyline points="48.0,242.0,496.0,242.0" stroke="black" stroke-width="1" fill="none" />
<polyline points="240.0,48.0,48.0,240.0" stroke="black" stroke-width="1" fill="none" />
<polyline points="40.0,240.0,232.0,48.0" stroke="black" stroke-width="1" fill="none" />
<polyline points="232.0,40.0,40.0,232.0" stroke="black" stroke-width="1" fill="none" />
<polyline points="40.0,230.0,504.0,230.0" stroke="black" stroke-width="1" fill="none" />
<polyline points="496.0,250.0,168.0,250.0" stroke="black" stroke-width="1" fill="none" />
<polyline points="144.0,250.0,56.0,250.0" stroke="black" stroke-width="1" fill="none" />
<polyline points="40.0,238.0,496.0,238.0" stroke="black" stroke-width="1" fill="none" />
<polyline points="224.0,40.0,32.0,232.0" stroke="black" stroke-width="1" fill="none" />
<polyline points="32.0,226.0,504.0,226.0" stroke="black" stroke-width="1" fill="none" />
<polyline points="216.0,40.0,32.0,224.0" stroke="black" stroke-width="1" fill="none" />
<polyline points="32.0,222.0,456.0,222.0" stroke="black" stroke-width="1" fill="none" />
<polyline points="208.0,40.0,32.0,216.0" stroke="black" stroke-width="1" fill="none" />
<polyline points="24.0,216.0,208.0,32.0" stroke="black" stroke-width="1" fill="none" />
<polyline points="208.0,24.0,24.0,208.0" stroke="black" stroke-width="1" fill="none" />
<polyline points="24.0,214.0,448.0,214.0" stroke="black" stroke-width="1" fill="none" />
<polyline points="208.0,16.0,16.0,208.0" stroke="black" stroke-width="1" fill="none" />
<polyline points="16.0,206.0,448.0,206.0" stroke="black" stroke-width="1" fill="none" />
<polyline points="208.0,8.0,16.0,200.0" stroke="black" stroke-width="1" fill="none" />
<polyline points="16.0,198.0,440.0,198.0" stroke="black" stroke-width="1" fill="none" />
<polyline points="208.0,0.0,8.0,200.0" stroke="black" stroke-width="1" fill="none" />
<polyline points="8.0,202.0,456.0,202.0" stroke="black" stroke-width="1" fill="none" />
<polyline points="200.0,0.0,8.0,192.0" stroke="black" stroke-width="1" fill="none" />
<polyline points="8.0,190.0,432.0,190.0" stroke="black" stroke-width="1" fill="none" />
<polyline points="184.0,8.0,8.0,184.0" stroke="black" stroke-width="1" fill="none" />
<polyline points="8.0,178.0,424.0,178.0" stroke="black" stroke-width="1" fill="none" />
<polyline points="176.0,8.0,16.0,168.0" stroke="black" stroke-width="1" fill="none" />
<polyline points="16.0,166.0,416.0,166.0" stroke="black" stroke-width="1" fill="none" />
<polyline points="208.0,2.0,176.0,2.0" stroke="black" stroke-width="1" fill="none" />
<polyline points="168.0,8.0,16.0,160.0" stroke="black" stroke-width="1" fill="none" />
<polyline points="16.0,158.0,408.0,158.0" stroke="black" stroke-width="1" fill="none" />
<polyline points="160.0,8.0,16.0,152.0" stroke="black" stroke-width="1" fill="none" />
<polyline points="16.0,150.0,408.0,150.0" stroke="black" stroke-width="1" fill="none" />
<polyline points="168.0,2.0,160.0,2.0" stroke="black" stroke-width="1" fill="none" />
<polyline points="152.0,8.0,16.0,144.0" stroke="black" stroke-width="1" fill="none" />
<polyline points="16.0,142.0,400.0,142.0" stroke="black" stroke-width="1" fill="none" />
<polyline points="208.0,14.0,152.0,14.0" stroke="black" stroke-width="1" fill="none" />
<polyline points="144.0,8.0,16.0,136.0" stroke="black" stroke-width="1" fill="none" />
<polyline points="8.0,136.0,128.0,16.0" stroke="black" stroke-width="1" fill="none" />
<polyline points="128.0,22.0,208.0,22.0" stroke="black" stroke-width="1" fill="none" />
<polyline points="216.0,10.0,136.0,10.0" stroke="black" stroke-width="1" fill="none" />
<polyline points="112.0,24.0,16.0,120.0" stroke="black" stroke-width="1" fill="none" />
<polyline points="16.0,118.0,392.0,118.0" stroke="black" stroke-width="1" fill="none" />
<polyline points="104.0,24.0,64.0,64.0" stroke="black" stroke-width="1" fill="none" />
<polyline points="64.0,62.0,264.0,62.0" stroke="black" stroke-width="1" fill="none" />
<polyline points="96.0,24.0,64.0,56.0" stroke="black" stroke-width="1" fill="none" />
<polyline points="64.0,54.0,240.0,54.0" stroke="black" stroke-width="1" fill="none" />
<polyline points="96.0,16.0,88.0,24.0" stroke="black" stroke-width="1" fill="none" />
<polyline points="88.0,18.0,216.0,18.0" stroke="black" stroke-width="1" fill="none" />
<polyline points="208.0,30.0,88.0,30.0" stroke="black" stroke-width="1" fill="none" />
<polyline points="80.0,32.0,64.0,48.0" stroke="black" stroke-width="1" fill="none" />
<polyline points="64.0,42.0,240.0,42.0" stroke="black" stroke-width="1" fill="none" />
<polyline points="208.0,38.0,80.0,38.0" stroke="black" stroke-width="1" fill="none" />
<polyline points="72.0,34.0,216.0,34.0" stroke="black" stroke-width="1" fill="none" />
<polyline points="208.0,26.0,80.0,26.0" stroke="black" stroke-width="1" fill="none" />
<polyline points="72.0,46.0,216.0,46.0" stroke="black" stroke-width="1" fill="none" />
<polyline points="64.0,70.0,368.0,70.0" stroke="black" stroke-width="1" fill="none" />
<polyline points="368.0,78.0,56.0,78.0" stroke="black" stroke-width="1" fill="none" />
<polyline points="48.0,80.0,24.0,104.0" stroke="black" stroke-width="1" fill="none" />
<polyline points="24.0,98.0,392.0,98.0" stroke="black" stroke-width="1" fill="none" />
<polyline points="384.0,66.0,56.0,66.0" stroke="black" stroke-width="1" fill="none" />
<polyline points="56.0,58.0,272.0,58.0" stroke="black" stroke-width="1" fill="none" />
<polyline points="248.0,50.0,56.0,50.0" stroke="black" stroke-width="1" fill="none" />
<polyline points="48.0,74.0,384.0,74.0" stroke="black" stroke-width="1" fill="none" />
<polyline points="376.0,86.0,48.0,86.0" stroke="black" stroke-width="1" fill="none" />
<polyline points="40.0,94.0,376.0,94.0" stroke="black" stroke-width="1" fill="none" />
<polyline points="504.0,234.0,40.0,234.0" stroke="black" stroke-width="1" fill="none" />
<polyline points="24.0,218.0,512.0,218.0" stroke="black" stroke-width="1" fill="none" />
<polyline points="384.0,102.0,32.0,102.0" stroke="black" stroke-width="1" fill="none" />
<polyline points="24.0,110.0,392.0,110.0" stroke="black" stroke-width="1" fill="none" />
<polyline points="384.0,90.0,32.0,90.0" stroke="black" stroke-width="1" fill="none" />
<polyline points="32.0,82.0,384.0,82.0" stroke="black" stroke-width="1" fill="none" />
<polyline points="456.0,210.0,16.0,210.0" stroke="black" stroke-width="1" fill="none" />
<polyline points="8.0,194.0,448.0,194.0" stroke="black" stroke-width="1" fill="none" />
<polyline points="424.0,182.0,16.0,182.0" stroke="black" stroke-width="1" fill="none" />
<polyline points="16.0,174.0,416.0,174.0" stroke="black" stroke-width="1" fill="none" />
<polyline points="416.0,162.0,16.0,162.0" stroke="black" stroke-width="1" fill="none" />
<polyline points="16.0,154.0,416.0,154.0" stroke="black" stroke-width="1" fill="none" />
<polyline points="408.0,146.0,16.0,146.0" stroke="black" stroke-width="1" fill="none" />
<polyline points="8.0,138.0,408.0,138.0" stroke="black" stroke-width="1" fill="none" />
<polyline points="392.0,126.0,16.0,126.0" stroke="black" stroke-width="1" fill="none" />
<polyline points="8.0,122.0,400.0,122.0" stroke="black" stroke-width="1" fill="none" />
<polyline points="392.0,114.0,16.0,114.0" stroke="black" stroke-width="1" fill="none" />
<polyline points="16.0,106.0,392.0,106.0" stroke="black" stroke-width="1" fill="none" />
<polyline points="424.0,170.0,8.0,170.0" stroke="black" stroke-width="1" fill="none" />
<polyline points="8.0,134.0,400.0,134.0" stroke="black" stroke-width="1" fill="none" />
<polyline points="408.0,130.0,8.0,130.0" stroke="black" stroke-width="1" fill="none" />
</svg>