<svg xmlns="http://www.w3.org/2000/svg" height="264px" width="386px" version="1.1"><polyline points="220.5,7.5,192.0,19.5,174.0,31.5,160.5,43.5,150.0,55.5,142.5,67.5,136.5,79.5,132.0,91.5,129.0,103.5,126.0,115.5,124.5,127.5,124.5,139.5,126.0,151.5,129.0,163.5,132.0,175.5,136.5,187.5,142.5,199.5,150.0,211.5,160.5,223.5,174.0,235.5,192.0,247.5,220.5,259.5" stroke="black" stroke-width="1" fill="none" />
<polyline points="156.0,163.5,168.0,189.0,180.0,204.0,192.0,216.0,204.0,223.5,216.0,229.5,228.0,234.0,240.0,237.0,252.0,237.0,264.0,237.0,276.0,235.5,288.0,232.5,300.0,226.5,312.0,220.5,324.0,210.0,336.0,198.0,348.0,178.5" stroke="black" stroke-width="1" fill="none" />
<polyline points="346.5,82.5,334.5,66.0,322.5,54.0,310.5,45.0,298.5,39.0,286.5,34.5,274.5,31.5,262.5,30.0,250.5,30.0,238.5,31.5,226.5,33.0,214.5,37.5,202.5,43.5,190.5,51.0,178.5,63.0,166.5,78.0,154.5,105.0" stroke="black" stroke-width="1" fill="none" />
<polyline points="129.0,99.0,141.0,70.5,153.0,52.5,165.0,39.0,177.0,28.5,189.0,21.0,201.0,15.0,213.0,10.5,225.0,7.5,237.0,4.5,249.0,3.0,261.0,3.0,273.0,4.5,285.0,7.5,297.0,10.5,309.0,15.0,321.0,21.0,333.0,28.5,345.0,39.0,357.0,52.5,369.0,70.5,381.0,99.0" stroke="black" stroke-width="1" fill="none" />
<polyline points="370.5,192.0,358.5,211.5,346.5,225.0,334.5,235.5,322.5,244.5,310.5,250.5,298.5,256.5,286.5,259.5,274.5,262.5,262.5,262.5,250.5,264.0,238.5,262.5,226.5,261.0,214.5,256.5,202.5,252.0,190.5,246.0,178.5,238.5,166.5,228.0,154.5,214.5,142.5,196.5,130.5,169.5" stroke="black" stroke-width="1" fill="none" />
<polyline points="204.0,225.0,187.5,213.0,175.5,201.0,166.5,189.0,160.5,177.0,156.0,165.0,153.0,153.0,151.5,141.0,151.5,129.0,153.0,117.0,154.5,105.0,159.0,93.0,165.0,81.0,172.5,69.0,184.5,57.0,199.5,45.0,226.5,33.0" stroke="black" stroke-width="1" fill="none" />
<polyline points="285.0,34.5,310.5,46.5,325.5,58.5,337.5,70.5,345.0,82.5,351.0,94.5,355.5,106.5,358.5,118.5,358.5,130.5,358.5,142.5,357.0,154.5,354.0,166.5,348.0,178.5,342.0,190.5,331.5,202.5,319.5,214.5,300.0,226.5" stroke="black" stroke-width="1" fill="none" />
<polyline points="313.5,249.0,333.0,237.0,346.5,225.0,357.0,213.0,366.0,201.0,372.0,189.0,378.0,177.0,381.0,165.0,384.0,153.0,384.0,141.0,385.5,129.0,384.0,117.0,382.5,105.0,378.0,93.0,373.5,81.0,367.5,69.0,360.0,57.0,349.5,45.0,336.0,33.0,318.0,21.0,291.0,9.0" stroke="black" stroke-width="1" fill="none" />
<polyline points="120.0,85.0,160.0,85.0" stroke="black" stroke-width="1" fill="none" />
<polyline points="160.0,80.0,120.0,120.0" stroke="black" stroke-width="1" fill="none" />
<polyline points="120.0,125.0,160.0,125.0" stroke="black" stroke-width="1" fill="none" />
<polyline points="140.0,120.0,120.0,140.0" stroke="black" stroke-width="1" fill="none" />
<polyline points="120.0,145.0,160.0,145.0" stroke="black" stroke-width="1" fill="none" />
<polyline points="160.0,160.0,140.0,180.0" stroke="black" stroke-width="1" fill="none" />
<polyline points="140.0,185.0,180.0,185.0" stroke="black" stroke-width="1" fill="none" />
<polyline points="180.0,200.0,160.0,220.0" stroke="black" stroke-width="1" fill="none" />
<polyline points="160.0,215.0,180.0,215.0" stroke="black" stroke-width="1" fill="none" />
<polyline points="180.0,225.0,320.0,225.0" stroke="black" stroke-width="1" fill="none" />
<polyline points="320.0,215.0,340.0,215.0" stroke="black" stroke-width="1" fill="none" />
<polyline points="340.0,195.0,360.0,195.0" stroke="black" stroke-width="1" fill="none" />
<polyline points="360.0,180.0,300.0,240.0" stroke="black" stroke-width="1" fill="none" />
<polyline points="300.0,220.0,260.0,260.0" stroke="black" stroke-width="1" fill="none" />
<polyline points="260.0,240.0,240.0,260.0" stroke="black" stroke-width="1" fill="none" />
<polyline points="240.0,240.0,220.0,260.0" stroke="black" stroke-width="1" fill="none" />
<polyline points="200.0,245.0,300.0,245.0" stroke="black" stroke-width="1" fill="none" />
<polyline points="300.0,205.0,340.0,205.0" stroke="black" stroke-width="1" fill="none" />
<polyline points="340.0,180.0,380.0,140.0" stroke="black" stroke-width="1" fill="none" />
<polyline points="380.0,120.0,360.0,140.0" stroke="black" stroke-width="1" fill="none" />
<polyline points="360.0,120.0,380.0,100.0" stroke="black" stroke-width="1" fill="none" />
<polyline points="360.0,80.0,340.0,100.0" stroke="black" stroke-width="1" fill="none" />
<polyline points="340.0,105.0,380.0,105.0" stroke="black" stroke-width="1" fill="none" />
<polyline points="380.0,145.0,340.0,145.0" stroke="black" stroke-width="1" fill="none" />
<polyline points="340.0,125.0,380.0,125.0" stroke="black" stroke-width="1" fill="none" />
<polyline points="380.0,165.0,340.0,165.0" stroke="black" stroke-width="1" fill="none" />
<polyline points="320.0,185.0,360.0,185.0" stroke="black" stroke-width="1" fill="none" />
<polyline points="340.0,85.0,380.0,85.0" stroke="black" stroke-width="1" fill="none" />
<polyline points="360.0,60.0,340.0,80.0" stroke="black" stroke-width="1" fill="none" />
<polyline points="340.0,75.0,360.0,75.0" stroke="black" stroke-width="1" fill="none" />
<polyline points="340.0,40.0,320.0,60.0" stroke="black" stroke-width="1" fill="none" />
<polyline points="320.0,55.0,340.0,55.0" stroke="black" stroke-width="1" fill="none" />
<polyline points="320.0,65.0,360.0,65.0" stroke="black" stroke-width="1" fill="none" />
<polyline points="320.0,20.0,300.0,40.0" stroke="black" stroke-width="1" fill="none" />
<polyline points="300.0,45.0,340.0,45.0" stroke="black" stroke-width="1" fill="none" />
<polyline points="300.0,20.0,280.0,40.0" stroke="black" stroke-width="1" fill="none" />
<polyline points="260.0,20.0,280.0,0.0" stroke="black" stroke-width="1" fill="none" />
<polyline points="260.0,0.0,240.0,20.0" stroke="black" stroke-width="1" fill="none" />
<polyline points="240.0,0.0,200.0,40.0" stroke="black" stroke-width="1" fill="none" />
<polyline points="200.0,20.0,140.0,80.0" stroke="black" stroke-width="1" fill="none" />
<polyline points="140.0,75.0,160.0,75.0" stroke="black" stroke-width="1" fill="none" />
<polyline points="160.0,55.0,180.0,55.0" stroke="black" stroke-width="1" fill="none" />
<polyline points="160.0,45.0,200.0,45.0" stroke="black" stroke-width="1" fill="none" />
<polyline points="180.0,25.0,320.0,25.0" stroke="black" stroke-width="1" fill="none" />
<polyline points="300.0,5.0,200.0,5.0" stroke="black" stroke-width="1" fill="none" />
<polyline points="180.0,65.0,140.0,65.0" stroke="black" stroke-width="1" fill="none" />
<polyline points="120.0,105.0,160.0,105.0" stroke="black" stroke-width="1" fill="none" />
<polyline points="140.0,140.0,120.0,160.0" stroke="black" stroke-width="1" fill="none" />
<polyline points="120.0,165.0,160.0,165.0" stroke="black" stroke-width="1" fill="none" />
<polyline points="160.0,180.0,140.0,200.0" stroke="black" stroke-width="1" fill="none" />
<polyline points="140.0,195.0,160.0,195.0" stroke="black" stroke-width="1" fill="none" />
<polyline points="160.0,205.0,200.0,205.0" stroke="black" stroke-width="1" fill="none" />
<polyline points="200.0,220.0,180.0,240.0" stroke="black" stroke-width="1" fill="none" />
<polyline points="200.0,240.0,220.0,220.0" stroke="black" stroke-width="1" fill="none" />
</svg>