<svg xmlns="http://www.w3.org/2000/svg" height="636px" width="493px" version="1.1"><polyline points="121.0,29.0,100.0,37.0,82.0,45.0,85.0,44.0,93.0,40.0,101.0,37.0,109.0,33.0,117.0,31.0,125.0,28.0,128.0,25.0,136.0,27.0,144.0,30.0,152.0,32.0,160.0,35.0,168.0,37.0,176.0,40.0,184.0,44.0,192.0,48.0,200.0,54.0,208.0,60.0,216.0,67.0,224.0,76.0,232.0,86.0,240.0,98.0,249.0,104.0,257.0,90.0,266.0,85.0,274.0,76.0,282.0,70.0,290.0,64.0,298.0,60.0,306.0,56.0" stroke="black" stroke-width="1" fill="none" />
<polyline points="307.0,57.0,299.0,65.0,295.0,65.0,298.0,66.0,306.0,59.0,314.0,54.0,322.0,51.0,330.0,47.0" stroke="black" stroke-width="1" fill="none" />
<polyline points="328.0,53.0,318.0,60.0,326.0,55.0,334.0,50.0,342.0,45.0,350.0,39.0" stroke="black" stroke-width="1" fill="none" />
<polyline points="351.0,40.0,346.0,50.0,354.0,46.0,362.0,41.0" stroke="black" stroke-width="1" fill="none" />
<polyline points="364.0,39.0,352.0,47.0,348.0,45.0,354.0,42.0,362.0,38.0" stroke="black" stroke-width="1" fill="none" />
<polyline points="361.0,38.0,347.0,41.0,333.0,45.0,326.0,52.0,316.0,60.0,323.0,54.0" stroke="black" stroke-width="1" fill="none" />
<polyline points="320.0,51.0,303.0,57.0,288.0,65.0,278.0,73.0,269.0,81.0,264.0,89.0,259.0,97.0,256.0,105.0,254.0,107.0" stroke="black" stroke-width="1" fill="none" />
<polyline points="258.0,117.0,266.0,118.0,276.0,115.0" stroke="black" stroke-width="1" fill="none" />
<polyline points="268.0,111.0,276.0,111.0,284.0,111.0,292.0,113.0" stroke="black" stroke-width="1" fill="none" />
<polyline points="293.0,110.0,285.0,108.0,277.0,106.0" stroke="black" stroke-width="1" fill="none" />
<polyline points="274.0,104.0,282.0,104.0,290.0,106.0,298.0,108.0,306.0,111.0" stroke="black" stroke-width="1" fill="none" />
<polyline points="309.0,125.0,317.0,131.0,325.0,136.0,333.0,141.0,341.0,144.0,349.0,147.0" stroke="black" stroke-width="1" fill="none" />
<polyline points="363.0,141.0,355.0,132.0,347.0,125.0" stroke="black" stroke-width="1" fill="none" />
<polyline points="346.0,123.0,353.0,131.0,360.0,139.0" stroke="black" stroke-width="1" fill="none" />
<polyline points="360.0,126.0,368.0,135.0,376.0,146.0" stroke="black" stroke-width="1" fill="none" />
<polyline points="385.0,129.0,392.0,130.0,394.0,138.0,396.0,146.0,397.0,154.0" stroke="black" stroke-width="1" fill="none" />
<polyline points="413.0,152.0,417.0,147.0,413.0,139.0,409.0,134.0" stroke="black" stroke-width="1" fill="none" />
<polyline points="413.0,139.0,421.0,150.0" stroke="black" stroke-width="1" fill="none" />
<polyline points="411.0,154.0,409.0,146.0,410.0,138.0,401.0,131.0" stroke="black" stroke-width="1" fill="none" />
<polyline points="400.0,137.0,408.0,151.0" stroke="black" stroke-width="1" fill="none" />
<polyline points="402.0,147.0,400.0,139.0,392.0,130.0" stroke="black" stroke-width="1" fill="none" />
<polyline points="388.0,129.0,392.0,137.0,397.0,138.0,399.0,146.0" stroke="black" stroke-width="1" fill="none" />
<polyline points="402.0,138.0,406.0,146.0,408.0,154.0,409.0,162.0" stroke="black" stroke-width="1" fill="none" />
<polyline points="415.0,150.0,411.0,142.0" stroke="black" stroke-width="1" fill="none" />
<polyline points="415.0,137.0,423.0,148.0,432.0,151.0,432.0,159.0" stroke="black" stroke-width="1" fill="none" />
<polyline points="433.0,162.0,435.0,154.0" stroke="black" stroke-width="1" fill="none" />
<polyline points="437.0,155.0,438.0,163.0" stroke="black" stroke-width="1" fill="none" />
<polyline points="440.0,163.0,439.0,155.0,439.0,152.0" stroke="black" stroke-width="1" fill="none" />
<polyline points="441.0,153.0,442.0,161.0,440.0,169.0" stroke="black" stroke-width="1" fill="none" />
<polyline points="449.0,154.0,441.0,146.0,433.0,140.0,425.0,136.0,417.0,132.0,409.0,128.0,401.0,126.0,393.0,123.0,385.0,122.0,377.0,120.0,369.0,119.0,361.0,118.0,353.0,117.0,345.0,117.0,337.0,117.0,329.0,117.0,321.0,117.0,313.0,118.0,305.0,119.0,297.0,120.0,289.0,121.0,281.0,117.0,273.0,114.0,267.0,120.0,259.0,119.0" stroke="black" stroke-width="1" fill="none" />
<polyline points="258.0,126.0,266.0,125.0,274.0,124.0,282.0,121.0,288.0,129.0,296.0,135.0,298.0,149.0" stroke="black" stroke-width="1" fill="none" />
<polyline points="302.0,139.0,310.0,148.0" stroke="black" stroke-width="1" fill="none" />
<polyline points="316.0,145.0,308.0,138.0" stroke="black" stroke-width="1" fill="none" />
<polyline points="307.0,136.0,314.0,144.0,324.0,144.0,325.0,144.0" stroke="black" stroke-width="1" fill="none" />
<polyline points="322.0,129.0,330.0,134.0,338.0,138.0,346.0,143.0" stroke="black" stroke-width="1" fill="none" />
<polyline points="355.0,142.0,347.0,135.0,339.0,130.0,331.0,125.0" stroke="black" stroke-width="1" fill="none" />
<polyline points="330.0,125.0,343.0,133.0,353.0,141.0" stroke="black" stroke-width="1" fill="none" />
<polyline points="370.0,143.0,362.0,134.0,354.0,127.0,346.0,123.0" stroke="black" stroke-width="1" fill="none" />
<polyline points="349.0,124.0,359.0,132.0,366.0,140.0,373.0,148.0" stroke="black" stroke-width="1" fill="none" />
<polyline points="380.0,135.0,372.0,127.0" stroke="black" stroke-width="1" fill="none" />
<polyline points="372.0,127.0,379.0,135.0,383.0,143.0" stroke="black" stroke-width="1" fill="none" />
<polyline points="388.0,141.0,380.0,128.0,372.0,125.0" stroke="black" stroke-width="1" fill="none" />
<polyline points="376.0,126.0,383.0,134.0,388.0,142.0,391.0,150.0,392.0,154.0" stroke="black" stroke-width="1" fill="none" />
<polyline points="383.0,150.0,375.0,136.0,367.0,128.0,359.0,124.0" stroke="black" stroke-width="1" fill="none" />
<polyline points="359.0,124.0,365.0,132.0,371.0,140.0,377.0,148.0" stroke="black" stroke-width="1" fill="none" />
<polyline points="362.0,144.0,354.0,136.0,346.0,130.0,338.0,125.0,330.0,125.0" stroke="black" stroke-width="1" fill="none" />
<polyline points="331.0,123.0,346.0,131.0,356.0,139.0" stroke="black" stroke-width="1" fill="none" />
<polyline points="352.0,143.0,344.0,138.0,336.0,134.0,328.0,130.0,320.0,128.0" stroke="black" stroke-width="1" fill="none" />
<polyline points="322.0,126.0,328.0,134.0,343.0,142.0" stroke="black" stroke-width="1" fill="none" />
<polyline points="334.0,144.0,326.0,140.0,318.0,135.0,310.0,128.0" stroke="black" stroke-width="1" fill="none" />
<polyline points="306.0,127.0,309.0,125.0,315.0,133.0,323.0,141.0,330.0,142.0" stroke="black" stroke-width="1" fill="none" />
<polyline points="315.0,148.0,307.0,140.0" stroke="black" stroke-width="1" fill="none" />
<polyline points="310.0,137.0,321.0,145.0" stroke="black" stroke-width="1" fill="none" />
<polyline points="333.0,146.0,325.0,142.0,317.0,141.0,309.0,136.0,301.0,136.0" stroke="black" stroke-width="1" fill="none" />
<polyline points="303.0,137.0,311.0,145.0,324.0,147.0" stroke="black" stroke-width="1" fill="none" />
<polyline points="305.0,152.0,297.0,145.0,289.0,143.0,281.0,137.0" stroke="black" stroke-width="1" fill="none" />
<polyline points="281.0,137.0,287.0,145.0,293.0,153.0,297.0,157.0,307.0,168.0,320.0,176.0" stroke="black" stroke-width="1" fill="none" />
<polyline points="317.0,177.0,325.0,180.0" stroke="black" stroke-width="1" fill="none" />
<polyline points="312.0,189.0,314.0,197.0,315.0,205.0,315.0,213.0,314.0,221.0,314.0,229.0" stroke="black" stroke-width="1" fill="none" />
<polyline points="312.0,216.0,312.0,208.0,311.0,200.0,310.0,192.0,310.0,189.0" stroke="black" stroke-width="1" fill="none" />
<polyline points="305.0,191.0,307.0,199.0,308.0,207.0,309.0,215.0,309.0,223.0" stroke="black" stroke-width="1" fill="none" />
<polyline points="304.0,207.0,304.0,199.0,303.0,191.0,294.0,180.0" stroke="black" stroke-width="1" fill="none" />
<polyline points="296.0,180.0,299.0,188.0,301.0,196.0,302.0,204.0" stroke="black" stroke-width="1" fill="none" />
<polyline points="321.0,200.0,322.0,208.0,321.0,216.0,319.0,224.0,317.0,232.0,323.0,231.0" stroke="black" stroke-width="1" fill="none" />
<polyline points="325.0,235.0,329.0,227.0" stroke="black" stroke-width="1" fill="none" />
<polyline points="330.0,228.0,328.0,236.0,324.0,244.0,320.0,252.0,322.0,247.0" stroke="black" stroke-width="1" fill="none" />
<polyline points="332.0,255.0,333.0,258.0,338.0,246.0,330.0,263.0" stroke="black" stroke-width="1" fill="none" />
<polyline points="339.0,270.0,336.0,275.0,341.0,267.0,343.0,259.0,342.0,274.0" stroke="black" stroke-width="1" fill="none" />
<polyline points="344.0,275.0,347.0,274.0,344.0,282.0,342.0,287.0,351.0,286.0,354.0,293.0,353.0,301.0" stroke="black" stroke-width="1" fill="none" />
<polyline points="360.0,296.0,356.0,288.0" stroke="black" stroke-width="1" fill="none" />
<polyline points="357.0,275.0,357.0,270.0,360.0,258.0,356.0,250.0,353.0,242.0,352.0,234.0,345.0,226.0,340.0,218.0,345.0,214.0,341.0,206.0,339.0,198.0,335.0,190.0,316.0,182.0,314.0,176.0,306.0,173.0" stroke="black" stroke-width="1" fill="none" />
<polyline points="301.0,180.0,295.0,183.0,296.0,191.0,296.0,199.0,296.0,207.0,293.0,209.0" stroke="black" stroke-width="1" fill="none" />
<polyline points="276.0,208.0,275.0,200.0,275.0,192.0,274.0,184.0,272.0,176.0,270.0,168.0,274.0,166.0,274.0,166.0" stroke="black" stroke-width="1" fill="none" />
<polyline points="267.0,164.0,268.0,168.0,265.0,176.0,265.0,184.0,265.0,192.0,264.0,200.0" stroke="black" stroke-width="1" fill="none" />
<polyline points="270.0,191.0,271.0,183.0,270.0,175.0,264.0,172.0" stroke="black" stroke-width="1" fill="none" />
<polyline points="256.0,177.0,256.0,185.0,257.0,193.0" stroke="black" stroke-width="1" fill="none" />
<polyline points="251.0,188.0,251.0,180.0,251.0,172.0,255.0,164.0" stroke="black" stroke-width="1" fill="none" />
<polyline points="255.0,160.0,259.0,168.0,261.0,176.0,262.0,184.0,262.0,192.0,262.0,200.0" stroke="black" stroke-width="1" fill="none" />
<polyline points="268.0,188.0,268.0,180.0,266.0,172.0,253.0,160.0" stroke="black" stroke-width="1" fill="none" />
<polyline points="253.0,160.0,257.0,168.0,259.0,176.0,259.0,184.0,259.0,192.0" stroke="black" stroke-width="1" fill="none" />
<polyline points="254.0,184.0,253.0,176.0" stroke="black" stroke-width="1" fill="none" />
<polyline points="248.0,168.0,248.0,176.0,248.0,184.0,248.0,192.0,248.0,200.0,247.0,208.0,247.0,216.0,246.0,224.0,245.0,232.0,245.0,240.0,244.0,248.0,244.0,256.0,244.0,264.0,243.0,272.0,243.0,280.0,243.0,288.0,244.0,296.0,244.0,304.0,245.0,312.0,245.0,320.0,246.0,328.0,246.0,336.0,247.0,344.0,248.0,352.0,249.0,360.0,250.0,368.0,251.0,376.0,252.0,384.0,253.0,392.0,254.0,400.0,255.0,408.0,257.0,416.0,259.0,424.0,261.0,432.0,263.0,440.0,265.0,448.0,266.0,456.0,268.0,464.0,269.0,472.0,271.0,480.0,274.0,488.0,277.0,496.0,280.0,504.0,283.0,512.0" stroke="black" stroke-width="1" fill="none" />
<polyline points="272.0,481.0,280.0,503.0,288.0,514.0,296.0,514.0,304.0,514.0,312.0,514.0,320.0,514.0,328.0,514.0,336.0,514.0,344.0,514.0,352.0,515.0,360.0,516.0,368.0,517.0,376.0,517.0,384.0,518.0,392.0,518.0,400.0,519.0,408.0,519.0,416.0,520.0,424.0,520.0,432.0,521.0,440.0,521.0,448.0,522.0,456.0,522.0,464.0,522.0,472.0,521.0,480.0,520.0" stroke="black" stroke-width="1" fill="none" />
<polyline points="469.0,539.0,477.0,539.0,485.0,540.0,493.0,539.0" stroke="black" stroke-width="1" fill="none" />
<polyline points="480.0,543.0,472.0,541.0" stroke="black" stroke-width="1" fill="none" />
<polyline points="487.0,530.0,479.0,529.0,471.0,529.0,463.0,528.0,455.0,528.0,447.0,528.0" stroke="black" stroke-width="1" fill="none" />
<polyline points="446.0,526.0,454.0,526.0,462.0,525.0,470.0,524.0,478.0,523.0" stroke="black" stroke-width="1" fill="none" />
<polyline points="489.0,537.0,481.0,537.0,473.0,536.0,465.0,536.0,457.0,535.0,449.0,534.0,441.0,534.0,433.0,533.0" stroke="black" stroke-width="1" fill="none" />
<polyline points="433.0,531.0,441.0,531.0,449.0,532.0,457.0,532.0,465.0,533.0,473.0,533.0,481.0,533.0,489.0,533.0" stroke="black" stroke-width="1" fill="none" />
<polyline points="478.0,545.0,470.0,543.0,462.0,542.0,454.0,542.0,446.0,541.0,438.0,541.0,430.0,540.0,422.0,541.0,414.0,541.0,406.0,540.0,398.0,540.0,390.0,540.0,382.0,540.0,374.0,540.0,366.0,540.0,358.0,540.0,350.0,540.0,342.0,541.0,334.0,542.0,326.0,542.0,318.0,543.0,310.0,544.0,302.0,545.0,294.0,546.0,286.0,547.0,278.0,550.0,270.0,552.0,262.0,555.0,254.0,556.0" stroke="black" stroke-width="1" fill="none" />
<polyline points="253.0,554.0,261.0,552.0,269.0,550.0" stroke="black" stroke-width="1" fill="none" />
<polyline points="237.0,570.0,229.0,572.0,221.0,574.0,213.0,576.0,205.0,578.0,197.0,581.0" stroke="black" stroke-width="1" fill="none" />
<polyline points="195.0,579.0,203.0,576.0,211.0,574.0,219.0,572.0,227.0,570.0,235.0,568.0" stroke="black" stroke-width="1" fill="none" />
<polyline points="215.0,558.0,192.0,566.0,174.0,574.0,165.0,583.0,163.0,577.0,171.0,572.0,179.0,568.0" stroke="black" stroke-width="1" fill="none" />
<polyline points="179.0,565.0,170.0,572.0,159.0,580.0,160.0,585.0,168.0,582.0,176.0,580.0,177.0,576.0,185.0,574.0,193.0,571.0,201.0,570.0,209.0,568.0,217.0,566.0,225.0,564.0,233.0,563.0,241.0,562.0,249.0,560.0,257.0,559.0,265.0,558.0,273.0,557.0,281.0,557.0,289.0,556.0,297.0,555.0,305.0,555.0,313.0,554.0,321.0,554.0,329.0,554.0,337.0,553.0,345.0,553.0,353.0,553.0,361.0,552.0,369.0,552.0,377.0,552.0,385.0,551.0,393.0,551.0,401.0,550.0,409.0,550.0,417.0,549.0,425.0,549.0" stroke="black" stroke-width="1" fill="none" />
<polyline points="274.0,547.0,266.0,548.0,258.0,550.0,250.0,551.0,242.0,552.0,234.0,554.0,226.0,555.0,218.0,558.0,210.0,560.0,202.0,563.0,194.0,565.0,186.0,569.0,178.0,572.0,170.0,576.0" stroke="black" stroke-width="1" fill="none" />
<polyline points="167.0,569.0,143.0,577.0,126.0,585.0,111.0,593.0,96.0,601.0,82.0,609.0,68.0,617.0,54.0,625.0,41.0,633.0,34.0,634.0,42.0,629.0,50.0,624.0,58.0,619.0,66.0,615.0,74.0,610.0,82.0,605.0,90.0,600.0,98.0,596.0" stroke="black" stroke-width="1" fill="none" />
<polyline points="99.0,595.0,85.0,603.0,72.0,611.0,58.0,619.0,45.0,627.0,33.0,635.0,37.0,636.0,45.0,631.0,53.0,626.0,61.0,621.0,69.0,616.0,77.0,612.0,85.0,607.0,93.0,603.0,101.0,599.0,109.0,594.0,117.0,590.0,125.0,586.0,133.0,582.0,141.0,578.0,149.0,575.0,157.0,573.0,165.0,570.0,173.0,568.0" stroke="black" stroke-width="1" fill="none" />
<polyline points="182.0,574.0,165.0,586.0,146.0,594.0,130.0,602.0,127.0,604.0,135.0,599.0,143.0,595.0,151.0,592.0,159.0,589.0,167.0,585.0,175.0,582.0" stroke="black" stroke-width="1" fill="none" />
<polyline points="149.0,601.0,172.0,593.0,183.0,589.0,175.0,592.0,167.0,595.0,159.0,598.0,151.0,601.0,143.0,603.0,135.0,606.0,127.0,607.0" stroke="black" stroke-width="1" fill="none" />
<polyline points="98.0,594.0,90.0,598.0,82.0,602.0,74.0,606.0,66.0,611.0,58.0,616.0,68.0,610.0,82.0,602.0,96.0,594.0" stroke="black" stroke-width="1" fill="none" />
<polyline points="180.0,541.0,158.0,549.0,142.0,557.0,127.0,565.0,113.0,573.0,100.0,581.0,88.0,589.0,76.0,597.0,63.0,605.0,60.0,612.0,68.0,607.0,76.0,602.0,84.0,597.0,92.0,593.0,100.0,587.0,108.0,582.0,116.0,577.0,124.0,573.0,132.0,569.0,140.0,565.0,148.0,561.0,156.0,557.0,164.0,554.0,172.0,551.0,180.0,548.0,188.0,545.0,196.0,542.0,204.0,539.0,212.0,537.0,220.0,534.0,228.0,532.0,236.0,530.0" stroke="black" stroke-width="1" fill="none" />
<polyline points="236.0,528.0,228.0,529.0,220.0,531.0,212.0,533.0,204.0,535.0,196.0,537.0,188.0,539.0,180.0,541.0,172.0,544.0,164.0,547.0,156.0,550.0,148.0,554.0,140.0,558.0,132.0,563.0,124.0,567.0,116.0,571.0,108.0,576.0,100.0,581.0,92.0,586.0,84.0,592.0,76.0,597.0,68.0,602.0,60.0,607.0,56.0,616.0,66.0,608.0,79.0,600.0,93.0,592.0,105.0,584.0,118.0,576.0,133.0,568.0,150.0,560.0,168.0,552.0,189.0,544.0,213.0,536.0" stroke="black" stroke-width="1" fill="none" />
<polyline points="197.0,529.0,174.0,537.0,156.0,545.0,141.0,553.0,127.0,561.0,114.0,569.0,101.0,577.0,88.0,585.0,77.0,593.0,64.0,601.0,53.0,609.0,59.0,604.0,67.0,600.0,75.0,594.0,83.0,589.0,91.0,583.0,99.0,578.0,107.0,573.0,115.0,568.0,123.0,564.0,131.0,559.0,139.0,554.0,147.0,550.0,155.0,546.0,163.0,542.0,171.0,539.0,179.0,535.0,187.0,533.0,195.0,530.0,203.0,528.0,211.0,526.0,219.0,524.0,227.0,522.0,235.0,521.0,243.0,519.0,251.0,518.0" stroke="black" stroke-width="1" fill="none" />
<polyline points="216.0,583.0,192.0,591.0,181.0,592.0,180.0,593.0,183.0,596.0,191.0,592.0,199.0,589.0,207.0,586.0,215.0,584.0,223.0,581.0,231.0,579.0,239.0,577.0,247.0,575.0,255.0,574.0,263.0,572.0,271.0,570.0,279.0,569.0,287.0,568.0,295.0,567.0,303.0,565.0,311.0,564.0,319.0,563.0,327.0,562.0,335.0,561.0,343.0,560.0,351.0,560.0,359.0,560.0,367.0,559.0,375.0,559.0,383.0,558.0,391.0,558.0,399.0,558.0,407.0,558.0,415.0,557.0,423.0,557.0,431.0,554.0" stroke="black" stroke-width="1" fill="none" />
<polyline points="357.0,292.0,360.0,288.0,359.0,280.0,355.0,272.0,359.0,262.0,354.0,254.0" stroke="black" stroke-width="1" fill="none" />
<polyline points="352.0,253.0,355.0,261.0,359.0,269.0" stroke="black" stroke-width="1" fill="none" />
<polyline points="347.0,252.0,349.0,260.0,346.0,268.0,344.0,276.0,348.0,282.0,349.0,285.0,351.0,289.0,351.0,297.0,350.0,305.0" stroke="black" stroke-width="1" fill="none" />
<polyline points="341.0,257.0,336.0,265.0,333.0,271.0,341.0,257.0" stroke="black" stroke-width="1" fill="none" />
<polyline points="345.0,251.0,346.0,259.0,344.0,267.0,338.0,278.0,339.0,283.0,344.0,266.0" stroke="black" stroke-width="1" fill="none" />
<polyline points="359.0,268.0,347.0,251.0,335.0,260.0,331.0,270.0,334.0,262.0,339.0,254.0,341.0,246.0,342.0,238.0" stroke="black" stroke-width="1" fill="none" />
<polyline points="341.0,237.0,339.0,245.0,331.0,252.0,333.0,254.0,329.0,262.0,331.0,252.0" stroke="black" stroke-width="1" fill="none" />
<polyline points="328.0,251.0,324.0,257.0,330.0,249.0,333.0,241.0,334.0,233.0" stroke="black" stroke-width="1" fill="none" />
<polyline points="332.0,233.0,329.0,241.0,324.0,249.0,321.0,255.0,329.0,240.0" stroke="black" stroke-width="1" fill="none" />
<polyline points="322.0,236.0,325.0,228.0,327.0,220.0,326.0,212.0" stroke="black" stroke-width="1" fill="none" />
<polyline points="324.0,212.0,323.0,220.0,321.0,228.0,319.0,236.0" stroke="black" stroke-width="1" fill="none" />
<polyline points="338.0,209.0,330.0,199.0" stroke="black" stroke-width="1" fill="none" />
<polyline points="331.0,197.0,340.0,203.0" stroke="black" stroke-width="1" fill="none" />
<polyline points="337.0,204.0,329.0,196.0" stroke="black" stroke-width="1" fill="none" />
<polyline points="329.0,196.0,333.0,204.0,340.0,212.0,343.0,222.0,350.0,230.0,356.0,248.0,359.0,261.0,359.0,273.0" stroke="black" stroke-width="1" fill="none" />
<polyline points="341.0,199.0,333.0,194.0,334.0,189.0,326.0,186.0,318.0,183.0,310.0,172.0,306.0,163.0,298.0,158.0,290.0,148.0,282.0,139.0" stroke="black" stroke-width="1" fill="none" />
<polyline points="284.0,138.0,291.0,146.0,298.0,154.0" stroke="black" stroke-width="1" fill="none" />
<polyline points="298.0,165.0,290.0,163.0" stroke="black" stroke-width="1" fill="none" />
<polyline points="287.0,162.0,295.0,162.0" stroke="black" stroke-width="1" fill="none" />
<polyline points="300.0,148.0,296.0,140.0,288.0,132.0" stroke="black" stroke-width="1" fill="none" />
<polyline points="288.0,129.0,292.0,137.0,296.0,145.0,301.0,153.0,304.0,167.0,312.0,170.0,315.0,179.0,323.0,182.0" stroke="black" stroke-width="1" fill="none" />
<polyline points="321.0,199.0,319.0,207.0,319.0,215.0,317.0,223.0" stroke="black" stroke-width="1" fill="none" />
<polyline points="291.0,202.0,291.0,194.0,289.0,186.0" stroke="black" stroke-width="1" fill="none" />
<polyline points="289.0,185.0,287.0,193.0,286.0,201.0" stroke="black" stroke-width="1" fill="none" />
<polyline points="292.0,206.0,283.0,205.0,283.0,197.0,283.0,189.0,282.0,181.0,282.0,173.0" stroke="black" stroke-width="1" fill="none" />
<polyline points="280.0,173.0,279.0,181.0,279.0,189.0,279.0,197.0,277.0,205.0" stroke="black" stroke-width="1" fill="none" />
<polyline points="273.0,156.0,265.0,154.0" stroke="black" stroke-width="1" fill="none" />
<polyline points="265.0,152.0,273.0,153.0,281.0,155.0" stroke="black" stroke-width="1" fill="none" />
<polyline points="278.0,145.0,270.0,139.0" stroke="black" stroke-width="1" fill="none" />
<polyline points="272.0,137.0,282.0,145.0" stroke="black" stroke-width="1" fill="none" />
<polyline points="285.0,147.0,277.0,140.0,269.0,136.0" stroke="black" stroke-width="1" fill="none" />
<polyline points="269.0,128.0,261.0,128.0" stroke="black" stroke-width="1" fill="none" />
<polyline points="259.0,141.0,269.0,139.0,280.0,147.0" stroke="black" stroke-width="1" fill="none" />
<polyline points="292.0,130.0,297.0,138.0,302.0,139.0,305.0,147.0,309.0,152.0" stroke="black" stroke-width="1" fill="none" />
<polyline points="303.0,126.0,314.0,129.0,325.0,137.0,344.0,145.0" stroke="black" stroke-width="1" fill="none" />
<polyline points="350.0,143.0,336.0,135.0,323.0,127.0" stroke="black" stroke-width="1" fill="none" />
<polyline points="330.0,94.0,322.0,91.0,314.0,89.0,306.0,86.0,298.0,85.0,290.0,85.0" stroke="black" stroke-width="1" fill="none" />
<polyline points="288.0,83.0,296.0,83.0,304.0,83.0,312.0,85.0,320.0,87.0,328.0,90.0,336.0,93.0,344.0,95.0" stroke="black" stroke-width="1" fill="none" />
<polyline points="345.0,85.0,337.0,82.0,329.0,79.0" stroke="black" stroke-width="1" fill="none" />
<polyline points="328.0,82.0,336.0,85.0,344.0,87.0" stroke="black" stroke-width="1" fill="none" />
<polyline points="358.0,74.0,366.0,77.0" stroke="black" stroke-width="1" fill="none" />
<polyline points="373.0,73.0,365.0,73.0,357.0,72.0" stroke="black" stroke-width="1" fill="none" />
<polyline points="356.0,60.0,364.0,61.0,372.0,63.0,380.0,65.0,392.0,63.0" stroke="black" stroke-width="1" fill="none" />
<polyline points="397.0,50.0,405.0,52.0" stroke="black" stroke-width="1" fill="none" />
<polyline points="405.0,46.0,397.0,48.0" stroke="black" stroke-width="1" fill="none" />
<polyline points="402.0,44.0,394.0,42.0,386.0,47.0,381.0,44.0,381.0,44.0,391.0,42.0" stroke="black" stroke-width="1" fill="none" />
<polyline points="381.0,39.0,371.0,47.0,369.0,48.0,377.0,43.0" stroke="black" stroke-width="1" fill="none" />
<polyline points="368.0,39.0,363.0,47.0,367.0,44.0" stroke="black" stroke-width="1" fill="none" />
<polyline points="367.0,40.0,359.0,46.0,351.0,51.0,355.0,48.0,366.0,40.0" stroke="black" stroke-width="1" fill="none" />
<polyline points="355.0,58.0,363.0,58.0,371.0,59.0,379.0,59.0,387.0,61.0,390.0,57.0,398.0,61.0,402.0,57.0" stroke="black" stroke-width="1" fill="none" />
<polyline points="374.0,71.0,366.0,70.0,358.0,68.0,350.0,67.0,342.0,64.0" stroke="black" stroke-width="1" fill="none" />
<polyline points="340.0,62.0,348.0,64.0,356.0,65.0,364.0,66.0,372.0,67.0,380.0,68.0" stroke="black" stroke-width="1" fill="none" />
<polyline points="350.0,78.0,342.0,75.0,334.0,74.0,326.0,73.0" stroke="black" stroke-width="1" fill="none" />
<polyline points="326.0,71.0,334.0,71.0,342.0,73.0,350.0,75.0,358.0,76.0" stroke="black" stroke-width="1" fill="none" />
<polyline points="340.0,91.0,332.0,87.0,324.0,83.0,316.0,81.0" stroke="black" stroke-width="1" fill="none" />
<polyline points="315.0,79.0,330.0,87.0,344.0,95.0" stroke="black" stroke-width="1" fill="none" />
<polyline points="347.0,80.0,339.0,78.0,331.0,77.0,323.0,81.0,315.0,79.0" stroke="black" stroke-width="1" fill="none" />
<polyline points="311.0,88.0,334.0,96.0" stroke="black" stroke-width="1" fill="none" />
<polyline points="318.0,103.0,310.0,100.0,302.0,97.0,294.0,94.0,286.0,93.0" stroke="black" stroke-width="1" fill="none" />
<polyline points="286.0,91.0,294.0,90.0,302.0,91.0,310.0,92.0,318.0,94.0,326.0,96.0,334.0,99.0" stroke="black" stroke-width="1" fill="none" />
<polyline points="312.0,110.0,304.0,107.0,296.0,104.0,288.0,101.0,280.0,99.0,272.0,100.0" stroke="black" stroke-width="1" fill="none" />
<polyline points="272.0,98.0,280.0,97.0,288.0,98.0,296.0,100.0,304.0,102.0,312.0,104.0,320.0,107.0" stroke="black" stroke-width="1" fill="none" />
<polyline points="306.0,111.0,289.0,109.0" stroke="black" stroke-width="1" fill="none" />
<polyline points="287.0,101.0,309.0,109.0" stroke="black" stroke-width="1" fill="none" />
<polyline points="313.0,102.0,292.0,94.0" stroke="black" stroke-width="1" fill="none" />
<polyline points="262.0,86.0,258.0,94.0,254.0,102.0,251.0,110.0" stroke="black" stroke-width="1" fill="none" />
<polyline points="231.0,117.0,223.0,115.0,215.0,115.0,207.0,114.0" stroke="black" stroke-width="1" fill="none" />
<polyline points="200.0,110.0,208.0,108.0,216.0,107.0,224.0,108.0" stroke="black" stroke-width="1" fill="none" />
<polyline points="223.0,102.0,215.0,102.0,207.0,104.0,199.0,108.0" stroke="black" stroke-width="1" fill="none" />
<polyline points="196.0,104.0,204.0,102.0,212.0,100.0,220.0,99.0,228.0,100.0" stroke="black" stroke-width="1" fill="none" />
<polyline points="219.0,94.0,211.0,96.0,203.0,99.0,195.0,102.0" stroke="black" stroke-width="1" fill="none" />
<polyline points="210.0,103.0,197.0,112.0,207.0,112.0,215.0,111.0,223.0,110.0,231.0,111.0" stroke="black" stroke-width="1" fill="none" />
<polyline points="224.0,129.0,216.0,136.0,208.0,143.0,200.0,150.0,192.0,156.0,187.0,165.0,179.0,169.0,171.0,175.0,163.0,179.0" stroke="black" stroke-width="1" fill="none" />
<polyline points="173.0,182.0,165.0,188.0,157.0,195.0,149.0,204.0,146.0,218.0,143.0,215.0,147.0,207.0,154.0,199.0,161.0,191.0,169.0,188.0,171.0,187.0,163.0,194.0" stroke="black" stroke-width="1" fill="none" />
<polyline points="167.0,193.0,158.0,205.0,150.0,214.0,148.0,229.0,148.0,236.0,140.0,246.0,137.0,245.0,143.0,237.0,148.0,229.0,155.0,221.0,151.0,222.0,143.0,230.0" stroke="black" stroke-width="1" fill="none" />
<polyline points="149.0,232.0,160.0,233.0,162.0,244.0,164.0,252.0,167.0,260.0,170.0,268.0,167.0,275.0" stroke="black" stroke-width="1" fill="none" />
<polyline points="169.0,277.0,161.0,264.0" stroke="black" stroke-width="1" fill="none" />
<polyline points="160.0,262.0,164.0,270.0,161.0,278.0,165.0,286.0,170.0,294.0,175.0,302.0" stroke="black" stroke-width="1" fill="none" />
<polyline points="168.0,305.0,160.0,291.0" stroke="black" stroke-width="1" fill="none" />
<polyline points="161.0,288.0,165.0,296.0,172.0,304.0" stroke="black" stroke-width="1" fill="none" />
<polyline points="160.0,303.0,157.0,304.0,155.0,312.0,153.0,320.0" stroke="black" stroke-width="1" fill="none" />
<polyline points="150.0,323.0,151.0,315.0,152.0,307.0,155.0,299.0" stroke="black" stroke-width="1" fill="none" />
<polyline points="151.0,289.0,148.0,297.0,145.0,305.0,149.0,309.0,147.0,314.0,159.0,302.0,167.0,308.0" stroke="black" stroke-width="1" fill="none" />
<polyline points="171.0,294.0,163.0,281.0,150.0,281.0,142.0,297.0,142.0,299.0,145.0,291.0" stroke="black" stroke-width="1" fill="none" />
<polyline points="146.0,293.0,143.0,301.0,143.0,306.0" stroke="black" stroke-width="1" fill="none" />
<polyline points="155.0,285.0,152.0,293.0,149.0,301.0,146.0,309.0,145.0,312.0,153.0,291.0,155.0,285.0,166.0,296.0,174.0,304.0" stroke="black" stroke-width="1" fill="none" />
<polyline points="169.0,282.0,161.0,272.0" stroke="black" stroke-width="1" fill="none" />
<polyline points="161.0,273.0,167.0,281.0" stroke="black" stroke-width="1" fill="none" />
<polyline points="159.0,287.0,161.0,295.0,166.0,303.0,169.0,311.0,172.0,311.0" stroke="black" stroke-width="1" fill="none" />
<polyline points="171.0,269.0,163.0,249.0" stroke="black" stroke-width="1" fill="none" />
<polyline points="164.0,244.0,172.0,256.0" stroke="black" stroke-width="1" fill="none" />
<polyline points="163.0,263.0,168.0,271.0" stroke="black" stroke-width="1" fill="none" />
<polyline points="152.0,267.0,149.0,275.0,146.0,283.0,142.0,291.0,139.0,299.0,136.0,297.0,144.0,280.0" stroke="black" stroke-width="1" fill="none" />
<polyline points="147.0,280.0,139.0,298.0,139.0,292.0,142.0,284.0,146.0,276.0,150.0,268.0" stroke="black" stroke-width="1" fill="none" />
<polyline points="149.0,264.0,141.0,279.0,133.0,298.0,136.0,292.0,139.0,284.0,143.0,276.0,147.0,268.0,151.0,260.0" stroke="black" stroke-width="1" fill="none" />
<polyline points="150.0,259.0,145.0,267.0,140.0,275.0,136.0,283.0,144.0,268.0" stroke="black" stroke-width="1" fill="none" />
<polyline points="140.0,269.0,135.0,281.0,138.0,273.0,142.0,265.0,148.0,257.0,157.0,255.0" stroke="black" stroke-width="1" fill="none" />
<polyline points="163.0,263.0,151.0,252.0,147.0,258.0,139.0,252.0,146.0,244.0" stroke="black" stroke-width="1" fill="none" />
<polyline points="150.0,241.0,145.0,249.0,144.0,259.0,137.0,267.0,134.0,267.0,142.0,257.0,143.0,247.0,150.0,241.0" stroke="black" stroke-width="1" fill="none" />
<polyline points="151.0,243.0,146.0,251.0,140.0,259.0,134.0,267.0,136.0,269.0,144.0,259.0,146.0,251.0" stroke="black" stroke-width="1" fill="none" />
<polyline points="166.0,250.0,162.0,238.0,162.0,230.0" stroke="black" stroke-width="1" fill="none" />
<polyline points="180.0,234.0,184.0,228.0,183.0,220.0,183.0,212.0,183.0,204.0,184.0,196.0,187.0,188.0,189.0,180.0,192.0,175.0,184.0,195.0" stroke="black" stroke-width="1" fill="none" />
<polyline points="186.0,197.0,194.0,176.0,191.0,184.0,188.0,192.0,186.0,200.0,187.0,205.0,195.0,183.0,194.0,187.0,191.0,195.0,188.0,203.0" stroke="black" stroke-width="1" fill="none" />
<polyline points="198.0,199.0,201.0,191.0,203.0,183.0,206.0,175.0,200.0,183.0,198.0,203.0,196.0,189.0,198.0,181.0,204.0,173.0,201.0,188.0" stroke="black" stroke-width="1" fill="none" />
<polyline points="199.0,189.0,201.0,181.0" stroke="black" stroke-width="1" fill="none" />
<polyline points="207.0,179.0,205.0,187.0,203.0,195.0" stroke="black" stroke-width="1" fill="none" />
<polyline points="217.0,187.0,220.0,179.0,215.0,183.0" stroke="black" stroke-width="1" fill="none" />
<polyline points="228.0,186.0,236.0,175.0,233.0,178.0,227.0,182.0,235.0,163.0" stroke="black" stroke-width="1" fill="none" />
<polyline points="239.0,158.0,234.0,166.0,230.0,174.0,227.0,182.0,221.0,183.0,219.0,191.0" stroke="black" stroke-width="1" fill="none" />
<polyline points="237.0,173.0,235.0,181.0,234.0,189.0,233.0,197.0,232.0,205.0,232.0,213.0,231.0,221.0,230.0,229.0,229.0,237.0,229.0,245.0,228.0,253.0,228.0,261.0,228.0,269.0,227.0,277.0,227.0,285.0,228.0,293.0,228.0,301.0,228.0,309.0,228.0,317.0,229.0,325.0,229.0,333.0,230.0,341.0,231.0,349.0,231.0,357.0,232.0,365.0,233.0,373.0,234.0,381.0,235.0,389.0,235.0,397.0,236.0,405.0,237.0,413.0,238.0,421.0,239.0,429.0,239.0,437.0,240.0,445.0,241.0,453.0,242.0,461.0,243.0,469.0,244.0,477.0,246.0,485.0,247.0,493.0,249.0,501.0,251.0,509.0,253.0,517.0" stroke="black" stroke-width="1" fill="none" />
<polyline points="174.0,248.0,171.0,240.0,170.0,232.0,170.0,224.0,170.0,216.0,171.0,208.0" stroke="black" stroke-width="1" fill="none" />
<polyline points="169.0,208.0,168.0,216.0,167.0,224.0,167.0,232.0,168.0,240.0,171.0,248.0" stroke="black" stroke-width="1" fill="none" />
<polyline points="157.0,208.0,152.0,216.0,146.0,224.0,143.0,227.0,151.0,217.0,159.0,207.0" stroke="black" stroke-width="1" fill="none" />
<polyline points="161.0,202.0,153.0,210.0,148.0,218.0,149.0,225.0,149.0,232.0,148.0,238.0,140.0,246.0,141.0,241.0" stroke="black" stroke-width="1" fill="none" />
<polyline points="179.0,233.0,178.0,225.0,177.0,217.0,177.0,209.0,178.0,201.0,180.0,193.0" stroke="black" stroke-width="1" fill="none" />
<polyline points="178.0,192.0,175.0,200.0,175.0,208.0,174.0,216.0,174.0,224.0,175.0,232.0,177.0,240.0,179.0,248.0" stroke="black" stroke-width="1" fill="none" />
<polyline points="224.0,158.0,216.0,170.0,208.0,187.0,211.0,181.0,215.0,173.0,220.0,165.0,225.0,157.0" stroke="black" stroke-width="1" fill="none" />
<polyline points="228.0,158.0,222.0,166.0,218.0,174.0,216.0,182.0,214.0,190.0,219.0,190.0,227.0,173.0,235.0,159.0" stroke="black" stroke-width="1" fill="none" />
<polyline points="237.0,156.0,232.0,164.0,228.0,172.0,225.0,180.0,222.0,188.0,221.0,176.0,225.0,161.0" stroke="black" stroke-width="1" fill="none" />
<polyline points="215.0,140.0,207.0,148.0,197.0,156.0,182.0,170.0,175.0,178.0,164.0,186.0,155.0,194.0,156.0,193.0,164.0,186.0,172.0,180.0" stroke="black" stroke-width="1" fill="none" />
<polyline points="168.0,138.0,162.0,146.0,156.0,154.0,151.0,162.0,149.0,169.0,157.0,157.0,165.0,147.0,173.0,138.0,181.0,130.0" stroke="black" stroke-width="1" fill="none" />
<polyline points="185.0,129.0,178.0,137.0,171.0,145.0,165.0,153.0,158.0,161.0,164.0,159.0,172.0,150.0,180.0,141.0,188.0,132.0,196.0,127.0,204.0,126.0" stroke="black" stroke-width="1" fill="none" />
<polyline points="204.0,127.0,191.0,135.0,182.0,143.0,175.0,151.0,168.0,159.0,168.0,159.0,176.0,150.0,184.0,141.0,192.0,134.0,200.0,129.0" stroke="black" stroke-width="1" fill="none" />
<polyline points="198.0,126.0,186.0,134.0,179.0,142.0,172.0,150.0,165.0,158.0,161.0,158.0,169.0,147.0,177.0,138.0" stroke="black" stroke-width="1" fill="none" />
<polyline points="168.0,138.0,160.0,144.0,152.0,154.0,144.0,165.0,141.0,169.0,147.0,161.0,153.0,153.0,159.0,145.0,167.0,137.0" stroke="black" stroke-width="1" fill="none" />
<polyline points="167.0,132.0,159.0,140.0,153.0,148.0,147.0,156.0,141.0,164.0,137.0,172.0,144.0,160.0,152.0,149.0,160.0,139.0" stroke="black" stroke-width="1" fill="none" />
<polyline points="152.0,138.0,144.0,146.0,139.0,154.0,133.0,162.0,127.0,170.0,122.0,178.0,125.0,177.0,133.0,167.0,141.0,158.0,149.0,148.0,157.0,138.0,165.0,131.0" stroke="black" stroke-width="1" fill="none" />
<polyline points="165.0,131.0,156.0,139.0,150.0,147.0,144.0,155.0,137.0,163.0,130.0,171.0,124.0,179.0,126.0,171.0,134.0,160.0,142.0,149.0,150.0,140.0" stroke="black" stroke-width="1" fill="none" />
<polyline points="148.0,138.0,140.0,146.0,132.0,154.0,124.0,163.0,116.0,172.0,109.0,178.0,113.0,170.0,119.0,162.0,125.0,154.0,132.0,146.0" stroke="black" stroke-width="1" fill="none" />
<polyline points="131.0,144.0,123.0,152.0,115.0,160.0,107.0,169.0,99.0,178.0,91.0,187.0,93.0,181.0,99.0,173.0,105.0,165.0,112.0,157.0,120.0,149.0" stroke="black" stroke-width="1" fill="none" />
<polyline points="119.0,135.0,111.0,136.0,103.0,138.0" stroke="black" stroke-width="1" fill="none" />
<polyline points="115.0,130.0,102.0,138.0,109.0,134.0,117.0,130.0,125.0,128.0,133.0,126.0,141.0,124.0" stroke="black" stroke-width="1" fill="none" />
<polyline points="141.0,120.0,149.0,119.0,157.0,119.0,165.0,114.0,173.0,114.0,181.0,113.0,185.0,110.0,193.0,111.0,201.0,113.0,209.0,117.0,217.0,118.0,225.0,118.0,233.0,120.0" stroke="black" stroke-width="1" fill="none" />
<polyline points="232.0,133.0,221.0,141.0,211.0,149.0,213.0,147.0,221.0,141.0,229.0,135.0,235.0,140.0,235.0,142.0" stroke="black" stroke-width="1" fill="none" />
<polyline points="234.0,135.0,226.0,141.0,218.0,147.0,213.0,150.0,225.0,142.0,235.0,134.0" stroke="black" stroke-width="1" fill="none" />
<polyline points="219.0,129.0,211.0,135.0,203.0,142.0,195.0,150.0,187.0,157.0,183.0,152.0,192.0,144.0,198.0,136.0" stroke="black" stroke-width="1" fill="none" />
<polyline points="200.0,133.0,190.0,141.0,181.0,149.0,173.0,157.0,169.0,162.0,177.0,153.0,185.0,145.0,193.0,138.0,201.0,134.0" stroke="black" stroke-width="1" fill="none" />
<polyline points="190.0,146.0,182.0,153.0,190.0,151.0,198.0,143.0,206.0,135.0,217.0,127.0" stroke="black" stroke-width="1" fill="none" />
<polyline points="213.0,95.0,195.0,103.0,199.0,96.0,207.0,94.0,215.0,92.0" stroke="black" stroke-width="1" fill="none" />
<polyline points="206.0,90.0,192.0,98.0,198.0,94.0,206.0,90.0" stroke="black" stroke-width="1" fill="none" />
<polyline points="203.0,84.0,184.0,92.0,186.0,91.0,194.0,88.0,202.0,85.0,210.0,83.0" stroke="black" stroke-width="1" fill="none" />
<polyline points="211.0,80.0,203.0,81.0,195.0,83.0,187.0,86.0,179.0,92.0,183.0,89.0,200.0,81.0" stroke="black" stroke-width="1" fill="none" />
<polyline points="201.0,75.0,193.0,78.0,185.0,84.0,177.0,90.0,178.0,89.0,188.0,81.0,205.0,73.0" stroke="black" stroke-width="1" fill="none" />
<polyline points="211.0,71.0,201.0,72.0,193.0,74.0,185.0,78.0,177.0,84.0,173.0,88.0,182.0,80.0,198.0,72.0" stroke="black" stroke-width="1" fill="none" />
<polyline points="190.0,72.0,177.0,80.0,170.0,88.0,175.0,82.0,183.0,76.0" stroke="black" stroke-width="1" fill="none" />
<polyline points="186.0,72.0,178.0,75.0,170.0,81.0,172.0,79.0,187.0,71.0" stroke="black" stroke-width="1" fill="none" />
<polyline points="183.0,70.0,175.0,74.0,167.0,80.0,169.0,78.0,182.0,70.0" stroke="black" stroke-width="1" fill="none" />
<polyline points="181.0,68.0,164.0,76.0,166.0,71.0,174.0,67.0,182.0,64.0" stroke="black" stroke-width="1" fill="none" />
<polyline points="181.0,62.0,165.0,63.0,148.0,71.0,150.0,70.0,158.0,66.0,166.0,63.0,162.0,67.0,152.0,75.0,158.0,69.0,166.0,65.0" stroke="black" stroke-width="1" fill="none" />
<polyline points="163.0,69.0,162.0,78.0,170.0,73.0,178.0,70.0" stroke="black" stroke-width="1" fill="none" />
<polyline points="185.0,63.0,166.0,71.0,153.0,76.0,161.0,70.0,169.0,67.0,177.0,64.0,185.0,62.0" stroke="black" stroke-width="1" fill="none" />
<polyline points="166.0,59.0,150.0,67.0,144.0,70.0,152.0,66.0,160.0,61.0" stroke="black" stroke-width="1" fill="none" />
<polyline points="164.0,58.0,156.0,59.0,148.0,61.0,140.0,63.0,132.0,67.0,151.0,57.0,143.0,59.0,135.0,62.0,130.0,65.0,148.0,57.0,145.0,56.0,137.0,58.0" stroke="black" stroke-width="1" fill="none" />
<polyline points="136.0,56.0,144.0,54.0,152.0,52.0,160.0,51.0" stroke="black" stroke-width="1" fill="none" />
<polyline points="163.0,48.0,155.0,49.0,147.0,49.0,139.0,50.0,131.0,52.0,123.0,54.0" stroke="black" stroke-width="1" fill="none" />
<polyline points="130.0,49.0,124.0,51.0,132.0,49.0,140.0,47.0,148.0,45.0" stroke="black" stroke-width="1" fill="none" />
<polyline points="148.0,43.0,140.0,44.0,132.0,46.0,124.0,47.0,116.0,49.0,108.0,51.0,100.0,54.0" stroke="black" stroke-width="1" fill="none" />
<polyline points="113.0,42.0,92.0,50.0,87.0,46.0,95.0,43.0,103.0,39.0,111.0,36.0,119.0,34.0,127.0,32.0" stroke="black" stroke-width="1" fill="none" />
<polyline points="123.0,35.0,101.0,43.0,83.0,51.0,86.0,53.0,94.0,50.0,102.0,46.0,110.0,43.0,118.0,41.0,126.0,40.0,134.0,39.0" stroke="black" stroke-width="1" fill="none" />
<polyline points="135.0,41.0,127.0,42.0,119.0,45.0,111.0,47.0,103.0,50.0,100.0,51.0,123.0,43.0" stroke="black" stroke-width="1" fill="none" />
<polyline points="132.0,34.0,124.0,35.0,116.0,38.0,108.0,41.0,100.0,44.0,92.0,47.0,84.0,51.0,94.0,43.0,113.0,35.0" stroke="black" stroke-width="1" fill="none" />
<polyline points="152.0,32.0,174.0,40.0,190.0,48.0,202.0,56.0,212.0,64.0,220.0,72.0,227.0,80.0,233.0,88.0,238.0,96.0,242.0,104.0,251.0,108.0,259.0,92.0" stroke="black" stroke-width="1" fill="none" />
<polyline points="260.0,86.0,255.0,94.0,250.0,102.0,247.0,110.0" stroke="black" stroke-width="1" fill="none" />
<polyline points="184.0,127.0,176.0,135.0,169.0,143.0,162.0,151.0,156.0,159.0,151.0,167.0,154.0,156.0,162.0,146.0" stroke="black" stroke-width="1" fill="none" />
<polyline points="149.0,137.0,141.0,145.0,133.0,153.0,126.0,161.0,119.0,169.0,112.0,177.0,115.0,168.0,123.0,157.0,131.0,147.0" stroke="black" stroke-width="1" fill="none" />
<polyline points="136.0,142.0,130.0,145.0,122.0,153.0,114.0,161.0,107.0,169.0,100.0,177.0,93.0,185.0,96.0,177.0,104.0,167.0,112.0,157.0,120.0,149.0,110.0,154.0,100.0,162.0,93.0,170.0,87.0,178.0,81.0,186.0,76.0,194.0,72.0,195.0,80.0,181.0,88.0,170.0" stroke="black" stroke-width="1" fill="none" />
<polyline points="67.0,165.0,62.0,173.0,57.0,181.0,53.0,189.0,50.0,197.0,47.0,205.0,44.0,213.0,46.0,207.0,54.0,187.0,62.0,173.0" stroke="black" stroke-width="1" fill="none" />
<polyline points="64.0,163.0,56.0,167.0,48.0,171.0,40.0,176.0,32.0,181.0,27.0,185.0,38.0,177.0,51.0,169.0,68.0,161.0" stroke="black" stroke-width="1" fill="none" />
<polyline points="78.0,150.0,86.0,148.0,79.0,146.0,63.0,154.0,51.0,162.0,38.0,170.0,33.0,184.0,27.0,192.0,19.0,200.0,22.0,197.0,30.0,189.0,37.0,181.0,42.0,171.0,50.0,166.0,58.0,163.0,66.0,160.0,70.0,155.0,77.0,153.0,85.0,151.0,84.0,158.0,76.0,166.0,70.0,174.0,65.0,182.0,61.0,190.0,56.0,198.0,52.0,206.0,49.0,214.0,50.0,210.0,58.0,195.0,66.0,180.0,74.0,168.0,82.0,160.0,89.0,157.0,81.0,165.0,75.0,173.0,71.0,181.0,67.0,189.0,64.0,197.0,60.0,205.0,62.0,200.0,70.0,182.0,78.0,169.0,86.0,160.0,90.0,164.0,83.0,172.0,77.0,180.0,73.0,188.0,68.0,196.0,64.0,204.0,63.0,205.0,71.0,190.0,79.0,177.0,87.0,167.0,95.0,159.0,92.0,165.0,86.0,173.0,80.0,181.0,75.0,189.0,71.0,197.0,76.0,193.0,84.0,182.0,92.0,171.0,100.0,162.0,108.0,155.0,116.0,149.0" stroke="black" stroke-width="1" fill="none" />
<polyline points="119.0,137.0,111.0,139.0,103.0,141.0,95.0,142.0,87.0,144.0,79.0,146.0,71.0,150.0,63.0,154.0,55.0,160.0,47.0,164.0,39.0,169.0,48.0,167.0,65.0,157.0,81.0,149.0" stroke="black" stroke-width="1" fill="none" />
<polyline points="51.0,187.0,48.0,195.0,45.0,203.0,43.0,211.0,41.0,219.0" stroke="black" stroke-width="1" fill="none" />
<polyline points="46.0,222.0,46.0,214.0,49.0,206.0,52.0,198.0,56.0,190.0,60.0,182.0,65.0,174.0,63.0,176.0,55.0,191.0,47.0,210.0" stroke="black" stroke-width="1" fill="none" />
<polyline points="44.0,205.0,49.0,187.0,43.0,195.0,39.0,203.0,34.0,211.0,31.0,219.0,29.0,227.0,29.0,216.0,31.0,212.0,28.0,220.0,27.0,228.0,36.0,207.0,44.0,194.0" stroke="black" stroke-width="1" fill="none" />
<polyline points="32.0,194.0,27.0,202.0,23.0,210.0,17.0,216.0,21.0,202.0" stroke="black" stroke-width="1" fill="none" />
<polyline points="27.0,201.0,19.0,218.0,19.0,212.0,23.0,204.0,26.0,196.0" stroke="black" stroke-width="1" fill="none" />
<polyline points="32.0,197.0,28.0,205.0,25.0,213.0,21.0,221.0,18.0,229.0,19.0,226.0,27.0,207.0" stroke="black" stroke-width="1" fill="none" />
<polyline points="29.0,209.0,21.0,228.0,21.0,228.0,25.0,220.0,28.0,212.0,32.0,204.0" stroke="black" stroke-width="1" fill="none" />
<polyline points="162.0,118.0,170.0,117.0,178.0,118.0" stroke="black" stroke-width="1" fill="none" />
<polyline points="172.0,119.0,164.0,119.0" stroke="black" stroke-width="1" fill="none" />
<polyline points="364.0,125.0,371.0,133.0,378.0,141.0,381.0,149.0" stroke="black" stroke-width="1" fill="none" />
<polyline points="389.0,136.0,386.0,128.0" stroke="black" stroke-width="1" fill="none" />
<polyline points="398.0,125.0,419.0,133.0,433.0,141.0,444.0,149.0,450.0,157.0,452.0,165.0,449.0,167.0,445.0,171.0,454.0,167.0" stroke="black" stroke-width="1" fill="none" />
<polyline points="426.0,160.0,424.0,152.0,421.0,145.0,417.0,137.0" stroke="black" stroke-width="1" fill="none" />
<polyline points="416.0,136.0,418.0,144.0,426.0,146.0,428.0,154.0,431.0,161.0" stroke="black" stroke-width="1" fill="none" />
<polyline points="24.0,194.0,56.0,194.0" stroke="black" stroke-width="1" fill="none" />
<polyline points="64.0,194.0,72.0,194.0" stroke="black" stroke-width="1" fill="none" />
<polyline points="72.0,178.0,88.0,178.0" stroke="black" stroke-width="1" fill="none" />
<polyline points="88.0,168.0,128.0,128.0" stroke="black" stroke-width="1" fill="none" />
<polyline points="128.0,134.0,160.0,134.0" stroke="black" stroke-width="1" fill="none" />
<polyline points="160.0,136.0,184.0,112.0" stroke="black" stroke-width="1" fill="none" />
<polyline points="184.0,118.0,200.0,118.0" stroke="black" stroke-width="1" fill="none" />
<polyline points="200.0,112.0,176.0,136.0" stroke="black" stroke-width="1" fill="none" />
<polyline points="176.0,134.0,168.0,134.0" stroke="black" stroke-width="1" fill="none" />
<polyline points="160.0,144.0,192.0,112.0" stroke="black" stroke-width="1" fill="none" />
<polyline points="208.0,112.0,192.0,128.0" stroke="black" stroke-width="1" fill="none" />
<polyline points="200.0,136.0,216.0,120.0" stroke="black" stroke-width="1" fill="none" />
<polyline points="208.0,120.0,200.0,128.0" stroke="black" stroke-width="1" fill="none" />
<polyline points="208.0,126.0,256.0,126.0" stroke="black" stroke-width="1" fill="none" />
<polyline points="264.0,128.0,224.0,168.0" stroke="black" stroke-width="1" fill="none" />
<polyline points="232.0,176.0,288.0,120.0" stroke="black" stroke-width="1" fill="none" />
<polyline points="280.0,120.0,224.0,176.0" stroke="black" stroke-width="1" fill="none" />
<polyline points="232.0,186.0,248.0,186.0" stroke="black" stroke-width="1" fill="none" />
<polyline points="248.0,184.0,232.0,200.0" stroke="black" stroke-width="1" fill="none" />
<polyline points="232.0,202.0,248.0,202.0" stroke="black" stroke-width="1" fill="none" />
<polyline points="248.0,200.0,232.0,216.0" stroke="black" stroke-width="1" fill="none" />
<polyline points="232.0,218.0,248.0,218.0" stroke="black" stroke-width="1" fill="none" />
<polyline points="248.0,216.0,232.0,232.0" stroke="black" stroke-width="1" fill="none" />
<polyline points="232.0,230.0,240.0,230.0" stroke="black" stroke-width="1" fill="none" />
<polyline points="240.0,238.0,232.0,238.0" stroke="black" stroke-width="1" fill="none" />
<polyline points="232.0,240.0,248.0,224.0" stroke="black" stroke-width="1" fill="none" />
<polyline points="248.0,208.0,232.0,224.0" stroke="black" stroke-width="1" fill="none" />
<polyline points="232.0,222.0,240.0,222.0" stroke="black" stroke-width="1" fill="none" />
<polyline points="232.0,226.0,248.0,226.0" stroke="black" stroke-width="1" fill="none" />
<polyline points="240.0,240.0,232.0,248.0" stroke="black" stroke-width="1" fill="none" />
<polyline points="232.0,246.0,240.0,246.0" stroke="black" stroke-width="1" fill="none" />
<polyline points="240.0,248.0,232.0,256.0" stroke="black" stroke-width="1" fill="none" />
<polyline points="232.0,254.0,240.0,254.0" stroke="black" stroke-width="1" fill="none" />
<polyline points="240.0,256.0,232.0,264.0" stroke="black" stroke-width="1" fill="none" />
<polyline points="232.0,262.0,240.0,262.0" stroke="black" stroke-width="1" fill="none" />
<polyline points="240.0,264.0,232.0,272.0" stroke="black" stroke-width="1" fill="none" />
<polyline points="232.0,270.0,240.0,270.0" stroke="black" stroke-width="1" fill="none" />
<polyline points="240.0,272.0,232.0,280.0" stroke="black" stroke-width="1" fill="none" />
<polyline points="232.0,278.0,240.0,278.0" stroke="black" stroke-width="1" fill="none" />
<polyline points="240.0,280.0,232.0,288.0" stroke="black" stroke-width="1" fill="none" />
<polyline points="232.0,286.0,240.0,286.0" stroke="black" stroke-width="1" fill="none" />
<polyline points="240.0,288.0,232.0,296.0" stroke="black" stroke-width="1" fill="none" />
<polyline points="232.0,294.0,240.0,294.0" stroke="black" stroke-width="1" fill="none" />
<polyline points="240.0,296.0,232.0,304.0" stroke="black" stroke-width="1" fill="none" />
<polyline points="232.0,302.0,240.0,302.0" stroke="black" stroke-width="1" fill="none" />
<polyline points="240.0,304.0,232.0,312.0" stroke="black" stroke-width="1" fill="none" />
<polyline points="232.0,310.0,240.0,310.0" stroke="black" stroke-width="1" fill="none" />
<polyline points="240.0,312.0,232.0,320.0" stroke="black" stroke-width="1" fill="none" />
<polyline points="232.0,318.0,240.0,318.0" stroke="black" stroke-width="1" fill="none" />
<polyline points="240.0,320.0,232.0,328.0" stroke="black" stroke-width="1" fill="none" />
<polyline points="232.0,326.0,240.0,326.0" stroke="black" stroke-width="1" fill="none" />
<polyline points="248.0,328.0,232.0,344.0" stroke="black" stroke-width="1" fill="none" />
<polyline points="232.0,342.0,240.0,342.0" stroke="black" stroke-width="1" fill="none" />
<polyline points="248.0,344.0,232.0,360.0" stroke="black" stroke-width="1" fill="none" />
<polyline points="232.0,362.0,248.0,362.0" stroke="black" stroke-width="1" fill="none" />
<polyline points="248.0,360.0,232.0,376.0" stroke="black" stroke-width="1" fill="none" />
<polyline points="232.0,378.0,256.0,378.0" stroke="black" stroke-width="1" fill="none" />
<polyline points="248.0,376.0,240.0,384.0" stroke="black" stroke-width="1" fill="none" />
<polyline points="240.0,382.0,248.0,382.0" stroke="black" stroke-width="1" fill="none" />
<polyline points="248.0,384.0,240.0,392.0" stroke="black" stroke-width="1" fill="none" />
<polyline points="240.0,390.0,248.0,390.0" stroke="black" stroke-width="1" fill="none" />
<polyline points="248.0,392.0,240.0,400.0" stroke="black" stroke-width="1" fill="none" />
<polyline points="240.0,398.0,248.0,398.0" stroke="black" stroke-width="1" fill="none" />
<polyline points="256.0,400.0,240.0,416.0" stroke="black" stroke-width="1" fill="none" />
<polyline points="240.0,414.0,256.0,414.0" stroke="black" stroke-width="1" fill="none" />
<polyline points="256.0,416.0,240.0,432.0" stroke="black" stroke-width="1" fill="none" />
<polyline points="240.0,430.0,256.0,430.0" stroke="black" stroke-width="1" fill="none" />
<polyline points="256.0,432.0,240.0,448.0" stroke="black" stroke-width="1" fill="none" />
<polyline points="240.0,450.0,264.0,450.0" stroke="black" stroke-width="1" fill="none" />
<polyline points="264.0,448.0,248.0,464.0" stroke="black" stroke-width="1" fill="none" />
<polyline points="248.0,462.0,264.0,462.0" stroke="black" stroke-width="1" fill="none" />
<polyline points="264.0,464.0,248.0,480.0" stroke="black" stroke-width="1" fill="none" />
<polyline points="248.0,478.0,264.0,478.0" stroke="black" stroke-width="1" fill="none" />
<polyline points="264.0,472.0,248.0,488.0" stroke="black" stroke-width="1" fill="none" />
<polyline points="248.0,486.0,272.0,486.0" stroke="black" stroke-width="1" fill="none" />
<polyline points="272.0,488.0,256.0,504.0" stroke="black" stroke-width="1" fill="none" />
<polyline points="256.0,502.0,272.0,502.0" stroke="black" stroke-width="1" fill="none" />
<polyline points="272.0,496.0,256.0,512.0" stroke="black" stroke-width="1" fill="none" />
<polyline points="256.0,510.0,280.0,510.0" stroke="black" stroke-width="1" fill="none" />
<polyline points="280.0,512.0,248.0,544.0" stroke="black" stroke-width="1" fill="none" />
<polyline points="256.0,544.0,288.0,512.0" stroke="black" stroke-width="1" fill="none" />
<polyline points="296.0,512.0,264.0,544.0" stroke="black" stroke-width="1" fill="none" />
<polyline points="272.0,544.0,304.0,512.0" stroke="black" stroke-width="1" fill="none" />
<polyline points="312.0,512.0,280.0,544.0" stroke="black" stroke-width="1" fill="none" />
<polyline points="280.0,552.0,264.0,568.0" stroke="black" stroke-width="1" fill="none" />
<polyline points="264.0,560.0,256.0,568.0" stroke="black" stroke-width="1" fill="none" />
<polyline points="256.0,560.0,248.0,568.0" stroke="black" stroke-width="1" fill="none" />
<polyline points="248.0,560.0,232.0,576.0" stroke="black" stroke-width="1" fill="none" />
<polyline points="224.0,576.0,240.0,560.0" stroke="black" stroke-width="1" fill="none" />
<polyline points="232.0,560.0,216.0,576.0" stroke="black" stroke-width="1" fill="none" />
<polyline points="216.0,568.0,200.0,584.0" stroke="black" stroke-width="1" fill="none" />
<polyline points="192.0,584.0,208.0,568.0" stroke="black" stroke-width="1" fill="none" />
<polyline points="208.0,562.0,296.0,562.0" stroke="black" stroke-width="1" fill="none" />
<polyline points="304.0,560.0,312.0,552.0" stroke="black" stroke-width="1" fill="none" />
<polyline points="304.0,552.0,296.0,560.0" stroke="black" stroke-width="1" fill="none" />
<polyline points="296.0,552.0,288.0,560.0" stroke="black" stroke-width="1" fill="none" />
<polyline points="288.0,558.0,312.0,558.0" stroke="black" stroke-width="1" fill="none" />
<polyline points="320.0,560.0,328.0,552.0" stroke="black" stroke-width="1" fill="none" />
<polyline points="320.0,552.0,312.0,560.0" stroke="black" stroke-width="1" fill="none" />
<polyline points="328.0,560.0,336.0,552.0" stroke="black" stroke-width="1" fill="none" />
<polyline points="360.0,536.0,376.0,520.0" stroke="black" stroke-width="1" fill="none" />
<polyline points="376.0,512.0,352.0,536.0" stroke="black" stroke-width="1" fill="none" />
<polyline points="368.0,536.0,384.0,520.0" stroke="black" stroke-width="1" fill="none" />
<polyline points="392.0,520.0,376.0,536.0" stroke="black" stroke-width="1" fill="none" />
<polyline points="384.0,536.0,400.0,520.0" stroke="black" stroke-width="1" fill="none" />
<polyline points="408.0,520.0,392.0,536.0" stroke="black" stroke-width="1" fill="none" />
<polyline points="392.0,534.0,440.0,534.0" stroke="black" stroke-width="1" fill="none" />
<polyline points="448.0,536.0,456.0,528.0" stroke="black" stroke-width="1" fill="none" />
<polyline points="448.0,528.0,440.0,536.0" stroke="black" stroke-width="1" fill="none" />
<polyline points="432.0,536.0,448.0,520.0" stroke="black" stroke-width="1" fill="none" />
<polyline points="440.0,520.0,424.0,536.0" stroke="black" stroke-width="1" fill="none" />
<polyline points="416.0,536.0,432.0,520.0" stroke="black" stroke-width="1" fill="none" />
<polyline points="424.0,520.0,408.0,536.0" stroke="black" stroke-width="1" fill="none" />
<polyline points="400.0,536.0,416.0,520.0" stroke="black" stroke-width="1" fill="none" />
<polyline points="456.0,536.0,464.0,528.0" stroke="black" stroke-width="1" fill="none" />
<polyline points="472.0,528.0,464.0,536.0" stroke="black" stroke-width="1" fill="none" />
<polyline points="432.0,546.0,368.0,546.0" stroke="black" stroke-width="1" fill="none" />
<polyline points="344.0,536.0,368.0,512.0" stroke="black" stroke-width="1" fill="none" />
<polyline points="360.0,512.0,336.0,536.0" stroke="black" stroke-width="1" fill="none" />
<polyline points="328.0,536.0,352.0,512.0" stroke="black" stroke-width="1" fill="none" />
<polyline points="344.0,512.0,320.0,536.0" stroke="black" stroke-width="1" fill="none" />
<polyline points="312.0,536.0,336.0,512.0" stroke="black" stroke-width="1" fill="none" />
<polyline points="328.0,512.0,304.0,536.0" stroke="black" stroke-width="1" fill="none" />
<polyline points="288.0,544.0,320.0,512.0" stroke="black" stroke-width="1" fill="none" />
<polyline points="280.0,504.0,240.0,544.0" stroke="black" stroke-width="1" fill="none" />
<polyline points="232.0,534.0,368.0,534.0" stroke="black" stroke-width="1" fill="none" />
<polyline points="288.0,552.0,272.0,568.0" stroke="black" stroke-width="1" fill="none" />
<polyline points="272.0,546.0,256.0,546.0" stroke="black" stroke-width="1" fill="none" />
<polyline points="248.0,554.0,376.0,554.0" stroke="black" stroke-width="1" fill="none" />
<polyline points="280.0,496.0,224.0,552.0" stroke="black" stroke-width="1" fill="none" />
<polyline points="216.0,552.0,248.0,520.0" stroke="black" stroke-width="1" fill="none" />
<polyline points="240.0,520.0,208.0,552.0" stroke="black" stroke-width="1" fill="none" />
<polyline points="208.0,542.0,280.0,542.0" stroke="black" stroke-width="1" fill="none" />
<polyline points="256.0,518.0,352.0,518.0" stroke="black" stroke-width="1" fill="none" />
<polyline points="272.0,480.0,256.0,496.0" stroke="black" stroke-width="1" fill="none" />
<polyline points="256.0,494.0,272.0,494.0" stroke="black" stroke-width="1" fill="none" />
<polyline points="256.0,506.0,288.0,506.0" stroke="black" stroke-width="1" fill="none" />
<polyline points="272.0,472.0,248.0,496.0" stroke="black" stroke-width="1" fill="none" />
<polyline points="248.0,498.0,280.0,498.0" stroke="black" stroke-width="1" fill="none" />
<polyline points="280.0,490.0,248.0,490.0" stroke="black" stroke-width="1" fill="none" />
<polyline points="248.0,482.0,272.0,482.0" stroke="black" stroke-width="1" fill="none" />
<polyline points="272.0,474.0,248.0,474.0" stroke="black" stroke-width="1" fill="none" />
<polyline points="248.0,472.0,264.0,456.0" stroke="black" stroke-width="1" fill="none" />
<polyline points="264.0,440.0,248.0,456.0" stroke="black" stroke-width="1" fill="none" />
<polyline points="248.0,454.0,264.0,454.0" stroke="black" stroke-width="1" fill="none" />
<polyline points="264.0,470.0,248.0,470.0" stroke="black" stroke-width="1" fill="none" />
<polyline points="240.0,466.0,272.0,466.0" stroke="black" stroke-width="1" fill="none" />
<polyline points="264.0,446.0,248.0,446.0" stroke="black" stroke-width="1" fill="none" />
<polyline points="248.0,438.0,256.0,438.0" stroke="black" stroke-width="1" fill="none" />
<polyline points="264.0,432.0,240.0,456.0" stroke="black" stroke-width="1" fill="none" />
<polyline points="240.0,458.0,272.0,458.0" stroke="black" stroke-width="1" fill="none" />
<polyline points="264.0,442.0,240.0,442.0" stroke="black" stroke-width="1" fill="none" />
<polyline points="240.0,440.0,256.0,424.0" stroke="black" stroke-width="1" fill="none" />
<polyline points="256.0,408.0,240.0,424.0" stroke="black" stroke-width="1" fill="none" />
<polyline points="240.0,422.0,256.0,422.0" stroke="black" stroke-width="1" fill="none" />
<polyline points="264.0,434.0,240.0,434.0" stroke="black" stroke-width="1" fill="none" />
<polyline points="240.0,426.0,264.0,426.0" stroke="black" stroke-width="1" fill="none" />
<polyline points="264.0,418.0,240.0,418.0" stroke="black" stroke-width="1" fill="none" />
<polyline points="240.0,410.0,256.0,410.0" stroke="black" stroke-width="1" fill="none" />
<polyline points="240.0,408.0,256.0,392.0" stroke="black" stroke-width="1" fill="none" />
<polyline points="248.0,406.0,240.0,406.0" stroke="black" stroke-width="1" fill="none" />
<polyline points="240.0,402.0,256.0,402.0" stroke="black" stroke-width="1" fill="none" />
<polyline points="256.0,394.0,232.0,394.0" stroke="black" stroke-width="1" fill="none" />
<polyline points="232.0,386.0,256.0,386.0" stroke="black" stroke-width="1" fill="none" />
<polyline points="240.0,376.0,248.0,368.0" stroke="black" stroke-width="1" fill="none" />
<polyline points="248.0,374.0,240.0,374.0" stroke="black" stroke-width="1" fill="none" />
<polyline points="240.0,366.0,248.0,366.0" stroke="black" stroke-width="1" fill="none" />
<polyline points="248.0,358.0,240.0,358.0" stroke="black" stroke-width="1" fill="none" />
<polyline points="232.0,354.0,248.0,354.0" stroke="black" stroke-width="1" fill="none" />
<polyline points="248.0,352.0,232.0,368.0" stroke="black" stroke-width="1" fill="none" />
<polyline points="232.0,370.0,248.0,370.0" stroke="black" stroke-width="1" fill="none" />
<polyline points="232.0,352.0,248.0,336.0" stroke="black" stroke-width="1" fill="none" />
<polyline points="248.0,320.0,232.0,336.0" stroke="black" stroke-width="1" fill="none" />
<polyline points="232.0,334.0,240.0,334.0" stroke="black" stroke-width="1" fill="none" />
<polyline points="232.0,330.0,248.0,330.0" stroke="black" stroke-width="1" fill="none" />
<polyline points="248.0,346.0,232.0,346.0" stroke="black" stroke-width="1" fill="none" />
<polyline points="232.0,350.0,248.0,350.0" stroke="black" stroke-width="1" fill="none" />
<polyline points="248.0,338.0,232.0,338.0" stroke="black" stroke-width="1" fill="none" />
<polyline points="232.0,322.0,248.0,322.0" stroke="black" stroke-width="1" fill="none" />
<polyline points="248.0,314.0,232.0,314.0" stroke="black" stroke-width="1" fill="none" />
<polyline points="232.0,306.0,248.0,306.0" stroke="black" stroke-width="1" fill="none" />
<polyline points="248.0,298.0,224.0,298.0" stroke="black" stroke-width="1" fill="none" />
<polyline points="224.0,290.0,248.0,290.0" stroke="black" stroke-width="1" fill="none" />
<polyline points="248.0,282.0,224.0,282.0" stroke="black" stroke-width="1" fill="none" />
<polyline points="224.0,274.0,248.0,274.0" stroke="black" stroke-width="1" fill="none" />
<polyline points="248.0,250.0,232.0,250.0" stroke="black" stroke-width="1" fill="none" />
<polyline points="232.0,242.0,248.0,242.0" stroke="black" stroke-width="1" fill="none" />
<polyline points="248.0,234.0,232.0,234.0" stroke="black" stroke-width="1" fill="none" />
<polyline points="232.0,210.0,248.0,210.0" stroke="black" stroke-width="1" fill="none" />
<polyline points="248.0,198.0,240.0,198.0" stroke="black" stroke-width="1" fill="none" />
<polyline points="240.0,190.0,248.0,190.0" stroke="black" stroke-width="1" fill="none" />
<polyline points="248.0,192.0,232.0,208.0" stroke="black" stroke-width="1" fill="none" />
<polyline points="232.0,194.0,248.0,194.0" stroke="black" stroke-width="1" fill="none" />
<polyline points="240.0,184.0,288.0,136.0" stroke="black" stroke-width="1" fill="none" />
<polyline points="296.0,144.0,320.0,120.0" stroke="black" stroke-width="1" fill="none" />
<polyline points="312.0,120.0,280.0,152.0" stroke="black" stroke-width="1" fill="none" />
<polyline points="288.0,152.0,264.0,176.0" stroke="black" stroke-width="1" fill="none" />
<polyline points="272.0,176.0,296.0,152.0" stroke="black" stroke-width="1" fill="none" />
<polyline points="296.0,160.0,280.0,176.0" stroke="black" stroke-width="1" fill="none" />
<polyline points="280.0,184.0,304.0,160.0" stroke="black" stroke-width="1" fill="none" />
<polyline points="304.0,168.0,288.0,184.0" stroke="black" stroke-width="1" fill="none" />
<polyline points="288.0,182.0,296.0,182.0" stroke="black" stroke-width="1" fill="none" />
<polyline points="296.0,184.0,312.0,168.0" stroke="black" stroke-width="1" fill="none" />
<polyline points="312.0,176.0,304.0,184.0" stroke="black" stroke-width="1" fill="none" />
<polyline points="304.0,182.0,312.0,182.0" stroke="black" stroke-width="1" fill="none" />
<polyline points="320.0,184.0,312.0,192.0" stroke="black" stroke-width="1" fill="none" />
<polyline points="312.0,200.0,328.0,184.0" stroke="black" stroke-width="1" fill="none" />
<polyline points="328.0,192.0,320.0,200.0" stroke="black" stroke-width="1" fill="none" />
<polyline points="320.0,198.0,328.0,198.0" stroke="black" stroke-width="1" fill="none" />
<polyline points="328.0,206.0,336.0,206.0" stroke="black" stroke-width="1" fill="none" />
<polyline points="336.0,208.0,328.0,216.0" stroke="black" stroke-width="1" fill="none" />
<polyline points="328.0,214.0,336.0,214.0" stroke="black" stroke-width="1" fill="none" />
<polyline points="344.0,216.0,328.0,232.0" stroke="black" stroke-width="1" fill="none" />
<polyline points="336.0,232.0,344.0,224.0" stroke="black" stroke-width="1" fill="none" />
<polyline points="344.0,232.0,336.0,240.0" stroke="black" stroke-width="1" fill="none" />
<polyline points="336.0,238.0,352.0,238.0" stroke="black" stroke-width="1" fill="none" />
<polyline points="352.0,240.0,344.0,248.0" stroke="black" stroke-width="1" fill="none" />
<polyline points="344.0,246.0,352.0,246.0" stroke="black" stroke-width="1" fill="none" />
<polyline points="352.0,248.0,344.0,256.0" stroke="black" stroke-width="1" fill="none" />
<polyline points="352.0,256.0,344.0,264.0" stroke="black" stroke-width="1" fill="none" />
<polyline points="352.0,264.0,344.0,272.0" stroke="black" stroke-width="1" fill="none" />
<polyline points="352.0,272.0,344.0,280.0" stroke="black" stroke-width="1" fill="none" />
<polyline points="344.0,282.0,360.0,282.0" stroke="black" stroke-width="1" fill="none" />
<polyline points="360.0,280.0,352.0,288.0" stroke="black" stroke-width="1" fill="none" />
<polyline points="352.0,290.0,360.0,290.0" stroke="black" stroke-width="1" fill="none" />
<polyline points="352.0,280.0,360.0,272.0" stroke="black" stroke-width="1" fill="none" />
<polyline points="360.0,274.0,336.0,274.0" stroke="black" stroke-width="1" fill="none" />
<polyline points="336.0,266.0,360.0,266.0" stroke="black" stroke-width="1" fill="none" />
<polyline points="344.0,240.0,352.0,232.0" stroke="black" stroke-width="1" fill="none" />
<polyline points="344.0,230.0,336.0,230.0" stroke="black" stroke-width="1" fill="none" />
<polyline points="328.0,224.0,344.0,208.0" stroke="black" stroke-width="1" fill="none" />
<polyline points="336.0,200.0,328.0,208.0" stroke="black" stroke-width="1" fill="none" />
<polyline points="320.0,208.0,336.0,192.0" stroke="black" stroke-width="1" fill="none" />
<polyline points="320.0,176.0,304.0,192.0" stroke="black" stroke-width="1" fill="none" />
<polyline points="304.0,194.0,336.0,194.0" stroke="black" stroke-width="1" fill="none" />
<polyline points="344.0,218.0,312.0,218.0" stroke="black" stroke-width="1" fill="none" />
<polyline points="312.0,210.0,344.0,210.0" stroke="black" stroke-width="1" fill="none" />
<polyline points="344.0,222.0,328.0,222.0" stroke="black" stroke-width="1" fill="none" />
<polyline points="320.0,234.0,352.0,234.0" stroke="black" stroke-width="1" fill="none" />
<polyline points="360.0,250.0,328.0,250.0" stroke="black" stroke-width="1" fill="none" />
<polyline points="328.0,242.0,352.0,242.0" stroke="black" stroke-width="1" fill="none" />
<polyline points="360.0,258.0,328.0,258.0" stroke="black" stroke-width="1" fill="none" />
<polyline points="312.0,226.0,352.0,226.0" stroke="black" stroke-width="1" fill="none" />
<polyline points="344.0,202.0,304.0,202.0" stroke="black" stroke-width="1" fill="none" />
<polyline points="296.0,202.0,288.0,202.0" stroke="black" stroke-width="1" fill="none" />
<polyline points="288.0,194.0,296.0,194.0" stroke="black" stroke-width="1" fill="none" />
<polyline points="288.0,174.0,304.0,174.0" stroke="black" stroke-width="1" fill="none" />
<polyline points="328.0,186.0,272.0,186.0" stroke="black" stroke-width="1" fill="none" />
<polyline points="256.0,176.0,272.0,160.0" stroke="black" stroke-width="1" fill="none" />
<polyline points="264.0,166.0,288.0,166.0" stroke="black" stroke-width="1" fill="none" />
<polyline points="272.0,144.0,240.0,176.0" stroke="black" stroke-width="1" fill="none" />
<polyline points="240.0,174.0,248.0,174.0" stroke="black" stroke-width="1" fill="none" />
<polyline points="248.0,182.0,240.0,182.0" stroke="black" stroke-width="1" fill="none" />
<polyline points="240.0,166.0,248.0,166.0" stroke="black" stroke-width="1" fill="none" />
<polyline points="240.0,158.0,264.0,158.0" stroke="black" stroke-width="1" fill="none" />
<polyline points="264.0,150.0,272.0,150.0" stroke="black" stroke-width="1" fill="none" />
<polyline points="272.0,134.0,288.0,134.0" stroke="black" stroke-width="1" fill="none" />
<polyline points="296.0,128.0,304.0,120.0" stroke="black" stroke-width="1" fill="none" />
<polyline points="296.0,120.0,280.0,136.0" stroke="black" stroke-width="1" fill="none" />
<polyline points="296.0,126.0,328.0,126.0" stroke="black" stroke-width="1" fill="none" />
<polyline points="328.0,120.0,312.0,136.0" stroke="black" stroke-width="1" fill="none" />
<polyline points="320.0,136.0,336.0,120.0" stroke="black" stroke-width="1" fill="none" />
<polyline points="344.0,120.0,336.0,128.0" stroke="black" stroke-width="1" fill="none" />
<polyline points="352.0,128.0,360.0,120.0" stroke="black" stroke-width="1" fill="none" />
<polyline points="352.0,120.0,344.0,128.0" stroke="black" stroke-width="1" fill="none" />
<polyline points="360.0,128.0,368.0,120.0" stroke="black" stroke-width="1" fill="none" />
<polyline points="376.0,120.0,368.0,128.0" stroke="black" stroke-width="1" fill="none" />
<polyline points="376.0,138.0,432.0,138.0" stroke="black" stroke-width="1" fill="none" />
<polyline points="432.0,136.0,424.0,144.0" stroke="black" stroke-width="1" fill="none" />
<polyline points="424.0,146.0,448.0,146.0" stroke="black" stroke-width="1" fill="none" />
<polyline points="448.0,152.0,440.0,160.0" stroke="black" stroke-width="1" fill="none" />
<polyline points="440.0,162.0,456.0,162.0" stroke="black" stroke-width="1" fill="none" />
<polyline points="440.0,144.0,432.0,152.0" stroke="black" stroke-width="1" fill="none" />
<polyline points="432.0,154.0,448.0,154.0" stroke="black" stroke-width="1" fill="none" />
<polyline points="416.0,146.0,408.0,146.0" stroke="black" stroke-width="1" fill="none" />
<polyline points="400.0,136.0,408.0,128.0" stroke="black" stroke-width="1" fill="none" />
<polyline points="400.0,128.0,392.0,136.0" stroke="black" stroke-width="1" fill="none" />
<polyline points="400.0,134.0,408.0,134.0" stroke="black" stroke-width="1" fill="none" />
<polyline points="400.0,146.0,392.0,146.0" stroke="black" stroke-width="1" fill="none" />
<polyline points="344.0,114.0,328.0,114.0" stroke="black" stroke-width="1" fill="none" />
<polyline points="320.0,90.0,336.0,90.0" stroke="black" stroke-width="1" fill="none" />
<polyline points="344.0,72.0,368.0,48.0" stroke="black" stroke-width="1" fill="none" />
<polyline points="368.0,54.0,400.0,54.0" stroke="black" stroke-width="1" fill="none" />
<polyline points="400.0,48.0,392.0,56.0" stroke="black" stroke-width="1" fill="none" />
<polyline points="392.0,48.0,384.0,56.0" stroke="black" stroke-width="1" fill="none" />
<polyline points="384.0,48.0,376.0,56.0" stroke="black" stroke-width="1" fill="none" />
<polyline points="376.0,48.0,368.0,56.0" stroke="black" stroke-width="1" fill="none" />
<polyline points="360.0,48.0,336.0,72.0" stroke="black" stroke-width="1" fill="none" />
<polyline points="336.0,70.0,344.0,70.0" stroke="black" stroke-width="1" fill="none" />
<polyline points="352.0,72.0,360.0,64.0" stroke="black" stroke-width="1" fill="none" />
<polyline points="352.0,48.0,320.0,80.0" stroke="black" stroke-width="1" fill="none" />
<polyline points="304.0,88.0,344.0,48.0" stroke="black" stroke-width="1" fill="none" />
<polyline points="344.0,42.0,368.0,42.0" stroke="black" stroke-width="1" fill="none" />
<polyline points="376.0,42.0,384.0,42.0" stroke="black" stroke-width="1" fill="none" />
<polyline points="392.0,42.0,400.0,42.0" stroke="black" stroke-width="1" fill="none" />
<polyline points="336.0,48.0,296.0,88.0" stroke="black" stroke-width="1" fill="none" />
<polyline points="296.0,70.0,328.0,70.0" stroke="black" stroke-width="1" fill="none" />
<polyline points="320.0,56.0,152.0,224.0" stroke="black" stroke-width="1" fill="none" />
<polyline points="152.0,218.0,184.0,218.0" stroke="black" stroke-width="1" fill="none" />
<polyline points="176.0,216.0,184.0,208.0" stroke="black" stroke-width="1" fill="none" />
<polyline points="184.0,200.0,144.0,240.0" stroke="black" stroke-width="1" fill="none" />
<polyline points="144.0,242.0,176.0,242.0" stroke="black" stroke-width="1" fill="none" />
<polyline points="176.0,240.0,168.0,248.0" stroke="black" stroke-width="1" fill="none" />
<polyline points="168.0,256.0,144.0,280.0" stroke="black" stroke-width="1" fill="none" />
<polyline points="144.0,288.0,168.0,264.0" stroke="black" stroke-width="1" fill="none" />
<polyline points="160.0,256.0,152.0,264.0" stroke="black" stroke-width="1" fill="none" />
<polyline points="152.0,262.0,160.0,262.0" stroke="black" stroke-width="1" fill="none" />
<polyline points="152.0,256.0,176.0,232.0" stroke="black" stroke-width="1" fill="none" />
<polyline points="168.0,232.0,152.0,248.0" stroke="black" stroke-width="1" fill="none" />
<polyline points="152.0,246.0,160.0,246.0" stroke="black" stroke-width="1" fill="none" />
<polyline points="152.0,240.0,168.0,224.0" stroke="black" stroke-width="1" fill="none" />
<polyline points="168.0,222.0,160.0,222.0" stroke="black" stroke-width="1" fill="none" />
<polyline points="160.0,214.0,168.0,214.0" stroke="black" stroke-width="1" fill="none" />
<polyline points="168.0,206.0,160.0,206.0" stroke="black" stroke-width="1" fill="none" />
<polyline points="160.0,198.0,176.0,198.0" stroke="black" stroke-width="1" fill="none" />
<polyline points="176.0,190.0,184.0,190.0" stroke="black" stroke-width="1" fill="none" />
<polyline points="184.0,182.0,176.0,182.0" stroke="black" stroke-width="1" fill="none" />
<polyline points="168.0,184.0,192.0,160.0" stroke="black" stroke-width="1" fill="none" />
<polyline points="192.0,166.0,216.0,166.0" stroke="black" stroke-width="1" fill="none" />
<polyline points="208.0,158.0,232.0,158.0" stroke="black" stroke-width="1" fill="none" />
<polyline points="224.0,150.0,256.0,150.0" stroke="black" stroke-width="1" fill="none" />
<polyline points="256.0,142.0,248.0,142.0" stroke="black" stroke-width="1" fill="none" />
<polyline points="248.0,134.0,240.0,134.0" stroke="black" stroke-width="1" fill="none" />
<polyline points="232.0,136.0,312.0,56.0" stroke="black" stroke-width="1" fill="none" />
<polyline points="312.0,62.0,352.0,62.0" stroke="black" stroke-width="1" fill="none" />
<polyline points="344.0,54.0,336.0,54.0" stroke="black" stroke-width="1" fill="none" />
<polyline points="320.0,50.0,408.0,50.0" stroke="black" stroke-width="1" fill="none" />
<polyline points="400.0,58.0,296.0,58.0" stroke="black" stroke-width="1" fill="none" />
<polyline points="296.0,64.0,256.0,104.0" stroke="black" stroke-width="1" fill="none" />
<polyline points="256.0,98.0,304.0,98.0" stroke="black" stroke-width="1" fill="none" />
<polyline points="280.0,78.0,328.0,78.0" stroke="black" stroke-width="1" fill="none" />
<polyline points="288.0,66.0,376.0,66.0" stroke="black" stroke-width="1" fill="none" />
<polyline points="312.0,134.0,304.0,134.0" stroke="black" stroke-width="1" fill="none" />
<polyline points="272.0,112.0,200.0,184.0" stroke="black" stroke-width="1" fill="none" />
<polyline points="208.0,174.0,184.0,174.0" stroke="black" stroke-width="1" fill="none" />
<polyline points="184.0,162.0,304.0,162.0" stroke="black" stroke-width="1" fill="none" />
<polyline points="272.0,118.0,264.0,118.0" stroke="black" stroke-width="1" fill="none" />
<polyline points="256.0,110.0,272.0,110.0" stroke="black" stroke-width="1" fill="none" />
<polyline points="272.0,102.0,264.0,102.0" stroke="black" stroke-width="1" fill="none" />
<polyline points="264.0,94.0,280.0,94.0" stroke="black" stroke-width="1" fill="none" />
<polyline points="272.0,86.0,288.0,86.0" stroke="black" stroke-width="1" fill="none" />
<polyline points="272.0,74.0,360.0,74.0" stroke="black" stroke-width="1" fill="none" />
<polyline points="336.0,82.0,264.0,82.0" stroke="black" stroke-width="1" fill="none" />
<polyline points="256.0,90.0,296.0,90.0" stroke="black" stroke-width="1" fill="none" />
<polyline points="248.0,112.0,224.0,136.0" stroke="black" stroke-width="1" fill="none" />
<polyline points="224.0,144.0,152.0,216.0" stroke="black" stroke-width="1" fill="none" />
<polyline points="152.0,208.0,216.0,144.0" stroke="black" stroke-width="1" fill="none" />
<polyline points="216.0,136.0,240.0,112.0" stroke="black" stroke-width="1" fill="none" />
<polyline points="240.0,104.0,216.0,128.0" stroke="black" stroke-width="1" fill="none" />
<polyline points="224.0,112.0,240.0,96.0" stroke="black" stroke-width="1" fill="none" />
<polyline points="232.0,96.0,224.0,104.0" stroke="black" stroke-width="1" fill="none" />
<polyline points="224.0,102.0,240.0,102.0" stroke="black" stroke-width="1" fill="none" />
<polyline points="240.0,110.0,232.0,110.0" stroke="black" stroke-width="1" fill="none" />
<polyline points="232.0,118.0,256.0,118.0" stroke="black" stroke-width="1" fill="none" />
<polyline points="232.0,88.0,216.0,104.0" stroke="black" stroke-width="1" fill="none" />
<polyline points="216.0,96.0,232.0,80.0" stroke="black" stroke-width="1" fill="none" />
<polyline points="224.0,80.0,216.0,88.0" stroke="black" stroke-width="1" fill="none" />
<polyline points="216.0,86.0,224.0,86.0" stroke="black" stroke-width="1" fill="none" />
<polyline points="224.0,94.0,232.0,94.0" stroke="black" stroke-width="1" fill="none" />
<polyline points="224.0,72.0,208.0,88.0" stroke="black" stroke-width="1" fill="none" />
<polyline points="208.0,80.0,216.0,72.0" stroke="black" stroke-width="1" fill="none" />
<polyline points="216.0,64.0,208.0,72.0" stroke="black" stroke-width="1" fill="none" />
<polyline points="208.0,64.0,200.0,72.0" stroke="black" stroke-width="1" fill="none" />
<polyline points="192.0,72.0,208.0,56.0" stroke="black" stroke-width="1" fill="none" />
<polyline points="200.0,56.0,184.0,72.0" stroke="black" stroke-width="1" fill="none" />
<polyline points="184.0,70.0,200.0,70.0" stroke="black" stroke-width="1" fill="none" />
<polyline points="192.0,56.0,176.0,72.0" stroke="black" stroke-width="1" fill="none" />
<polyline points="176.0,64.0,192.0,48.0" stroke="black" stroke-width="1" fill="none" />
<polyline points="184.0,48.0,168.0,64.0" stroke="black" stroke-width="1" fill="none" />
<polyline points="168.0,62.0,200.0,62.0" stroke="black" stroke-width="1" fill="none" />
<polyline points="184.0,82.0,232.0,82.0" stroke="black" stroke-width="1" fill="none" />
<polyline points="208.0,106.0,296.0,106.0" stroke="black" stroke-width="1" fill="none" />
<polyline points="240.0,98.0,200.0,98.0" stroke="black" stroke-width="1" fill="none" />
<polyline points="192.0,90.0,240.0,90.0" stroke="black" stroke-width="1" fill="none" />
<polyline points="224.0,74.0,168.0,74.0" stroke="black" stroke-width="1" fill="none" />
<polyline points="160.0,66.0,216.0,66.0" stroke="black" stroke-width="1" fill="none" />
<polyline points="176.0,48.0,168.0,56.0" stroke="black" stroke-width="1" fill="none" />
<polyline points="168.0,54.0,192.0,54.0" stroke="black" stroke-width="1" fill="none" />
<polyline points="176.0,40.0,160.0,56.0" stroke="black" stroke-width="1" fill="none" />
<polyline points="152.0,56.0,168.0,40.0" stroke="black" stroke-width="1" fill="none" />
<polyline points="160.0,40.0,152.0,48.0" stroke="black" stroke-width="1" fill="none" />
<polyline points="152.0,46.0,176.0,46.0" stroke="black" stroke-width="1" fill="none" />
<polyline points="160.0,32.0,144.0,48.0" stroke="black" stroke-width="1" fill="none" />
<polyline points="144.0,50.0,200.0,50.0" stroke="black" stroke-width="1" fill="none" />
<polyline points="152.0,32.0,144.0,40.0" stroke="black" stroke-width="1" fill="none" />
<polyline points="144.0,32.0,136.0,40.0" stroke="black" stroke-width="1" fill="none" />
<polyline points="136.0,38.0,152.0,38.0" stroke="black" stroke-width="1" fill="none" />
<polyline points="136.0,32.0,128.0,40.0" stroke="black" stroke-width="1" fill="none" />
<polyline points="128.0,32.0,120.0,40.0" stroke="black" stroke-width="1" fill="none" />
<polyline points="120.0,26.0,136.0,26.0" stroke="black" stroke-width="1" fill="none" />
<polyline points="104.0,34.0,168.0,34.0" stroke="black" stroke-width="1" fill="none" />
<polyline points="144.0,58.0,208.0,58.0" stroke="black" stroke-width="1" fill="none" />
<polyline points="160.0,114.0,280.0,114.0" stroke="black" stroke-width="1" fill="none" />
<polyline points="304.0,154.0,184.0,154.0" stroke="black" stroke-width="1" fill="none" />
<polyline points="168.0,170.0,320.0,170.0" stroke="black" stroke-width="1" fill="none" />
<polyline points="248.0,266.0,224.0,266.0" stroke="black" stroke-width="1" fill="none" />
<polyline points="224.0,258.0,248.0,258.0" stroke="black" stroke-width="1" fill="none" />
<polyline points="160.0,280.0,152.0,288.0" stroke="black" stroke-width="1" fill="none" />
<polyline points="160.0,288.0,152.0,296.0" stroke="black" stroke-width="1" fill="none" />
<polyline points="160.0,296.0,152.0,304.0" stroke="black" stroke-width="1" fill="none" />
<polyline points="152.0,306.0,144.0,306.0" stroke="black" stroke-width="1" fill="none" />
<polyline points="144.0,298.0,176.0,298.0" stroke="black" stroke-width="1" fill="none" />
<polyline points="160.0,278.0,152.0,278.0" stroke="black" stroke-width="1" fill="none" />
<polyline points="152.0,270.0,160.0,270.0" stroke="black" stroke-width="1" fill="none" />
<polyline points="160.0,254.0,152.0,254.0" stroke="black" stroke-width="1" fill="none" />
<polyline points="144.0,250.0,176.0,250.0" stroke="black" stroke-width="1" fill="none" />
<polyline points="160.0,238.0,152.0,238.0" stroke="black" stroke-width="1" fill="none" />
<polyline points="152.0,230.0,160.0,230.0" stroke="black" stroke-width="1" fill="none" />
<polyline points="144.0,226.0,184.0,226.0" stroke="black" stroke-width="1" fill="none" />
<polyline points="184.0,202.0,152.0,202.0" stroke="black" stroke-width="1" fill="none" />
<polyline points="152.0,194.0,192.0,194.0" stroke="black" stroke-width="1" fill="none" />
<polyline points="168.0,178.0,320.0,178.0" stroke="black" stroke-width="1" fill="none" />
<polyline points="208.0,186.0,160.0,186.0" stroke="black" stroke-width="1" fill="none" />
<polyline points="144.0,210.0,184.0,210.0" stroke="black" stroke-width="1" fill="none" />
<polyline points="176.0,234.0,144.0,234.0" stroke="black" stroke-width="1" fill="none" />
<polyline points="144.0,258.0,168.0,258.0" stroke="black" stroke-width="1" fill="none" />
<polyline points="168.0,266.0,144.0,266.0" stroke="black" stroke-width="1" fill="none" />
<polyline points="136.0,274.0,168.0,274.0" stroke="black" stroke-width="1" fill="none" />
<polyline points="168.0,290.0,136.0,290.0" stroke="black" stroke-width="1" fill="none" />
<polyline points="136.0,282.0,168.0,282.0" stroke="black" stroke-width="1" fill="none" />
<polyline points="176.0,154.0,136.0,154.0" stroke="black" stroke-width="1" fill="none" />
<polyline points="144.0,144.0,168.0,120.0" stroke="black" stroke-width="1" fill="none" />
<polyline points="160.0,120.0,136.0,144.0" stroke="black" stroke-width="1" fill="none" />
<polyline points="136.0,128.0,112.0,152.0" stroke="black" stroke-width="1" fill="none" />
<polyline points="120.0,152.0,152.0,120.0" stroke="black" stroke-width="1" fill="none" />
<polyline points="152.0,126.0,192.0,126.0" stroke="black" stroke-width="1" fill="none" />
<polyline points="136.0,122.0,400.0,122.0" stroke="black" stroke-width="1" fill="none" />
<polyline points="128.0,142.0,120.0,142.0" stroke="black" stroke-width="1" fill="none" />
<polyline points="112.0,136.0,88.0,160.0" stroke="black" stroke-width="1" fill="none" />
<polyline points="88.0,158.0,104.0,158.0" stroke="black" stroke-width="1" fill="none" />
<polyline points="104.0,162.0,120.0,162.0" stroke="black" stroke-width="1" fill="none" />
<polyline points="96.0,144.0,56.0,184.0" stroke="black" stroke-width="1" fill="none" />
<polyline points="56.0,174.0,64.0,174.0" stroke="black" stroke-width="1" fill="none" />
<polyline points="56.0,168.0,24.0,200.0" stroke="black" stroke-width="1" fill="none" />
<polyline points="24.0,202.0,40.0,202.0" stroke="black" stroke-width="1" fill="none" />
<polyline points="48.0,202.0,56.0,202.0" stroke="black" stroke-width="1" fill="none" />
<polyline points="32.0,200.0,88.0,144.0" stroke="black" stroke-width="1" fill="none" />
<polyline points="88.0,150.0,112.0,150.0" stroke="black" stroke-width="1" fill="none" />
<polyline points="96.0,138.0,352.0,138.0" stroke="black" stroke-width="1" fill="none" />
<polyline points="424.0,130.0,112.0,130.0" stroke="black" stroke-width="1" fill="none" />
<polyline points="80.0,158.0,72.0,158.0" stroke="black" stroke-width="1" fill="none" />
<polyline points="72.0,152.0,64.0,160.0" stroke="black" stroke-width="1" fill="none" />
<polyline points="64.0,154.0,128.0,154.0" stroke="black" stroke-width="1" fill="none" />
<polyline points="72.0,146.0,312.0,146.0" stroke="black" stroke-width="1" fill="none" />
<polyline points="184.0,42.0,96.0,42.0" stroke="black" stroke-width="1" fill="none" />
<polyline points="96.0,162.0,48.0,162.0" stroke="black" stroke-width="1" fill="none" />
<polyline points="40.0,170.0,88.0,170.0" stroke="black" stroke-width="1" fill="none" />
<polyline points="56.0,182.0,40.0,182.0" stroke="black" stroke-width="1" fill="none" />
<polyline points="40.0,190.0,32.0,190.0" stroke="black" stroke-width="1" fill="none" />
<polyline points="32.0,186.0,80.0,186.0" stroke="black" stroke-width="1" fill="none" />
<polyline points="40.0,198.0,32.0,198.0" stroke="black" stroke-width="1" fill="none" />
<polyline points="32.0,210.0,24.0,210.0" stroke="black" stroke-width="1" fill="none" />
<polyline points="24.0,218.0,32.0,218.0" stroke="black" stroke-width="1" fill="none" />
<polyline points="32.0,178.0,64.0,178.0" stroke="black" stroke-width="1" fill="none" />
<polyline points="176.0,530.0,488.0,530.0" stroke="black" stroke-width="1" fill="none" />
<polyline points="440.0,526.0,240.0,526.0" stroke="black" stroke-width="1" fill="none" />
<polyline points="232.0,520.0,192.0,560.0" stroke="black" stroke-width="1" fill="none" />
<polyline points="192.0,568.0,176.0,584.0" stroke="black" stroke-width="1" fill="none" />
<polyline points="176.0,582.0,200.0,582.0" stroke="black" stroke-width="1" fill="none" />
<polyline points="200.0,574.0,224.0,574.0" stroke="black" stroke-width="1" fill="none" />
<polyline points="232.0,566.0,264.0,566.0" stroke="black" stroke-width="1" fill="none" />
<polyline points="240.0,514.0,416.0,514.0" stroke="black" stroke-width="1" fill="none" />
<polyline points="224.0,520.0,216.0,528.0" stroke="black" stroke-width="1" fill="none" />
<polyline points="208.0,536.0,176.0,568.0" stroke="black" stroke-width="1" fill="none" />
<polyline points="176.0,576.0,160.0,592.0" stroke="black" stroke-width="1" fill="none" />
<polyline points="152.0,586.0,192.0,586.0" stroke="black" stroke-width="1" fill="none" />
<polyline points="184.0,584.0,200.0,568.0" stroke="black" stroke-width="1" fill="none" />
<polyline points="184.0,550.0,224.0,550.0" stroke="black" stroke-width="1" fill="none" />
<polyline points="192.0,544.0,176.0,560.0" stroke="black" stroke-width="1" fill="none" />
<polyline points="168.0,552.0,152.0,568.0" stroke="black" stroke-width="1" fill="none" />
<polyline points="152.0,560.0,136.0,576.0" stroke="black" stroke-width="1" fill="none" />
<polyline points="136.0,568.0,120.0,584.0" stroke="black" stroke-width="1" fill="none" />
<polyline points="120.0,576.0,104.0,592.0" stroke="black" stroke-width="1" fill="none" />
<polyline points="104.0,584.0,96.0,592.0" stroke="black" stroke-width="1" fill="none" />
<polyline points="96.0,586.0,112.0,586.0" stroke="black" stroke-width="1" fill="none" />
<polyline points="112.0,582.0,120.0,582.0" stroke="black" stroke-width="1" fill="none" />
<polyline points="128.0,574.0,136.0,574.0" stroke="black" stroke-width="1" fill="none" />
<polyline points="144.0,566.0,160.0,566.0" stroke="black" stroke-width="1" fill="none" />
<polyline points="160.0,568.0,184.0,544.0" stroke="black" stroke-width="1" fill="none" />
<polyline points="192.0,538.0,320.0,538.0" stroke="black" stroke-width="1" fill="none" />
<polyline points="200.0,522.0,472.0,522.0" stroke="black" stroke-width="1" fill="none" />
<polyline points="248.0,570.0,168.0,570.0" stroke="black" stroke-width="1" fill="none" />
<polyline points="160.0,578.0,216.0,578.0" stroke="black" stroke-width="1" fill="none" />
<polyline points="248.0,546.0,168.0,546.0" stroke="black" stroke-width="1" fill="none" />
<polyline points="160.0,538.0,176.0,538.0" stroke="black" stroke-width="1" fill="none" />
<polyline points="160.0,558.0,200.0,558.0" stroke="black" stroke-width="1" fill="none" />
<polyline points="216.0,554.0,152.0,554.0" stroke="black" stroke-width="1" fill="none" />
<polyline points="152.0,546.0,144.0,546.0" stroke="black" stroke-width="1" fill="none" />
<polyline points="136.0,562.0,192.0,562.0" stroke="black" stroke-width="1" fill="none" />
<polyline points="144.0,592.0,136.0,600.0" stroke="black" stroke-width="1" fill="none" />
<polyline points="136.0,594.0,160.0,594.0" stroke="black" stroke-width="1" fill="none" />
<polyline points="152.0,570.0,120.0,570.0" stroke="black" stroke-width="1" fill="none" />
<polyline points="128.0,578.0,104.0,578.0" stroke="black" stroke-width="1" fill="none" />
<polyline points="104.0,594.0,80.0,594.0" stroke="black" stroke-width="1" fill="none" />
<polyline points="72.0,602.0,88.0,602.0" stroke="black" stroke-width="1" fill="none" />
</svg>