<svg xmlns="http://www.w3.org/2000/svg" height="561px" width="512px" version="1.1"><polyline points="318.0,3.0,309.0,11.0,302.0,19.0,295.0,27.0,289.0,35.0,282.0,43.0,275.0,51.0,267.0,59.0,260.0,67.0,254.0,75.0,247.0,83.0,240.0,91.0,233.0,99.0,225.0,107.0,217.0,115.0,210.0,123.0,203.0,131.0,196.0,139.0,189.0,147.0,181.0,155.0,174.0,163.0,166.0,171.0,167.0,175.0,175.0,168.0,183.0,160.0,191.0,151.0,199.0,142.0,207.0,132.0,215.0,123.0,223.0,116.0,231.0,107.0,239.0,98.0,247.0,89.0,255.0,80.0,263.0,70.0,271.0,61.0,279.0,52.0,287.0,42.0,295.0,33.0,303.0,24.0,311.0,14.0,321.0,4.0,329.0,4.0,330.0,7.0,338.0,6.0,346.0,8.0,351.0,13.0,359.0,14.0,367.0,11.0" stroke="black" stroke-width="1" fill="none" />
<polyline points="366.0,8.0,372.0,8.0,373.0,16.0,374.0,24.0,375.0,32.0,378.0,40.0,381.0,48.0,384.0,56.0,389.0,64.0,398.0,72.0,411.0,80.0,430.0,88.0" stroke="black" stroke-width="1" fill="none" />
<polyline points="428.0,92.0,420.0,88.0,412.0,90.0" stroke="black" stroke-width="1" fill="none" />
<polyline points="424.0,113.0,424.0,117.0,427.0,117.0" stroke="black" stroke-width="1" fill="none" />
<polyline points="419.0,120.0,421.0,128.0,422.0,136.0" stroke="black" stroke-width="1" fill="none" />
<polyline points="420.0,138.0,418.0,130.0,417.0,122.0,417.0,118.0" stroke="black" stroke-width="1" fill="none" />
<polyline points="411.0,131.0,412.0,139.0,414.0,147.0" stroke="black" stroke-width="1" fill="none" />
<polyline points="415.0,140.0,413.0,132.0" stroke="black" stroke-width="1" fill="none" />
<polyline points="401.0,125.0,403.0,133.0,404.0,141.0,406.0,149.0" stroke="black" stroke-width="1" fill="none" />
<polyline points="397.0,143.0,398.0,151.0,400.0,159.0" stroke="black" stroke-width="1" fill="none" />
<polyline points="398.0,161.0,396.0,153.0,395.0,145.0,394.0,141.0" stroke="black" stroke-width="1" fill="none" />
<polyline points="404.0,148.0,402.0,140.0,400.0,132.0,401.0,124.0" stroke="black" stroke-width="1" fill="none" />
<polyline points="383.0,158.0,383.0,161.0,386.0,169.0,388.0,177.0,384.0,181.0" stroke="black" stroke-width="1" fill="none" />
<polyline points="382.0,183.0,381.0,175.0" stroke="black" stroke-width="1" fill="none" />
<polyline points="372.0,173.0,375.0,181.0,377.0,189.0" stroke="black" stroke-width="1" fill="none" />
<polyline points="378.0,189.0,370.0,172.0" stroke="black" stroke-width="1" fill="none" />
<polyline points="370.0,172.0,372.0,180.0,375.0,188.0,376.0,196.0" stroke="black" stroke-width="1" fill="none" />
<polyline points="374.0,194.0,366.0,185.0" stroke="black" stroke-width="1" fill="none" />
<polyline points="367.0,182.0,370.0,190.0" stroke="black" stroke-width="1" fill="none" />
<polyline points="373.0,191.0,365.0,181.0" stroke="black" stroke-width="1" fill="none" />
<polyline points="365.0,181.0,367.0,189.0" stroke="black" stroke-width="1" fill="none" />
<polyline points="366.0,198.0,358.0,180.0" stroke="black" stroke-width="1" fill="none" />
<polyline points="357.0,179.0,365.0,191.0" stroke="black" stroke-width="1" fill="none" />
<polyline points="355.0,192.0,363.0,211.0,371.0,231.0,382.0,229.0,394.0,235.0,401.0,243.0,409.0,245.0,411.0,251.0,419.0,252.0,427.0,255.0" stroke="black" stroke-width="1" fill="none" />
<polyline points="429.0,244.0,421.0,239.0" stroke="black" stroke-width="1" fill="none" />
<polyline points="420.0,237.0,429.0,245.0" stroke="black" stroke-width="1" fill="none" />
<polyline points="436.0,245.0,428.0,241.0,420.0,237.0" stroke="black" stroke-width="1" fill="none" />
<polyline points="417.0,245.0,409.0,240.0" stroke="black" stroke-width="1" fill="none" />
<polyline points="408.0,242.0,412.0,252.0,422.0,256.0" stroke="black" stroke-width="1" fill="none" />
<polyline points="416.0,264.0,408.0,259.0" stroke="black" stroke-width="1" fill="none" />
<polyline points="407.0,256.0,415.0,260.0" stroke="black" stroke-width="1" fill="none" />
<polyline points="409.0,266.0,417.0,270.0,425.0,273.0" stroke="black" stroke-width="1" fill="none" />
<polyline points="419.0,286.0,411.0,283.0" stroke="black" stroke-width="1" fill="none" />
<polyline points="411.0,283.0,412.0,289.0,422.0,297.0" stroke="black" stroke-width="1" fill="none" />
<polyline points="420.0,290.0,412.0,285.0" stroke="black" stroke-width="1" fill="none" />
<polyline points="409.0,288.0,419.0,296.0" stroke="black" stroke-width="1" fill="none" />
<polyline points="417.0,294.0,409.0,290.0" stroke="black" stroke-width="1" fill="none" />
<polyline points="408.0,289.0,416.0,291.0,424.0,295.0" stroke="black" stroke-width="1" fill="none" />
<polyline points="415.0,299.0,407.0,295.0" stroke="black" stroke-width="1" fill="none" />
<polyline points="407.0,293.0,415.0,296.0" stroke="black" stroke-width="1" fill="none" />
<polyline points="407.0,307.0,408.0,308.0,414.0,316.0,413.0,327.0,416.0,329.0,424.0,325.0,432.0,320.0,440.0,318.0,448.0,316.0,456.0,315.0,464.0,315.0,472.0,314.0,480.0,312.0,488.0,311.0,496.0,311.0,504.0,310.0" stroke="black" stroke-width="1" fill="none" />
<polyline points="493.0,321.0,485.0,322.0" stroke="black" stroke-width="1" fill="none" />
<polyline points="475.0,330.0,475.0,332.0,483.0,338.0,494.0,340.0,496.0,348.0,492.0,353.0,492.0,361.0,493.0,369.0,493.0,377.0,493.0,385.0,493.0,393.0,493.0,401.0,493.0,415.0,493.0,424.0,493.0,435.0,496.0,445.0,494.0,453.0,487.0,461.0" stroke="black" stroke-width="1" fill="none" />
<polyline points="490.0,462.0,488.0,468.0,480.0,462.0,472.0,462.0,464.0,460.0" stroke="black" stroke-width="1" fill="none" />
<polyline points="460.0,451.0,452.0,450.0,444.0,450.0" stroke="black" stroke-width="1" fill="none" />
<polyline points="453.0,454.0,445.0,452.0,437.0,450.0,429.0,448.0,421.0,446.0,413.0,445.0,405.0,443.0" stroke="black" stroke-width="1" fill="none" />
<polyline points="404.0,441.0,412.0,442.0,420.0,444.0,428.0,445.0,436.0,447.0,444.0,446.0,452.0,447.0,460.0,449.0" stroke="black" stroke-width="1" fill="none" />
<polyline points="497.0,427.0,494.0,434.0,494.0,444.0,483.0,441.0,485.0,436.0,490.0,427.0,491.0,419.0,491.0,411.0,490.0,403.0,490.0,395.0,490.0,387.0,490.0,379.0,490.0,371.0,490.0,363.0,489.0,355.0,492.0,347.0,491.0,339.0,493.0,335.0,487.0,327.0,478.0,328.0,470.0,327.0" stroke="black" stroke-width="1" fill="none" />
<polyline points="469.0,326.0,475.0,334.0,479.0,332.0,488.0,327.0,496.0,327.0" stroke="black" stroke-width="1" fill="none" />
<polyline points="500.0,329.0,499.0,337.0,499.0,345.0,496.0,355.0,499.0,363.0,495.0,366.0,498.0,374.0,496.0,379.0,496.0,385.0,498.0,391.0,498.0,399.0,498.0,408.0,497.0,416.0,498.0,424.0,492.0,419.0" stroke="black" stroke-width="1" fill="none" />
<polyline points="481.0,342.0,475.0,343.0,467.0,328.0" stroke="black" stroke-width="1" fill="none" />
<polyline points="462.0,317.0,470.0,318.0,478.0,317.0,486.0,314.0,494.0,315.0" stroke="black" stroke-width="1" fill="none" />
<polyline points="432.0,322.0,440.0,322.0,448.0,321.0,456.0,319.0,464.0,326.0,471.0,334.0,474.0,342.0,476.0,350.0,478.0,358.0,479.0,366.0,480.0,374.0,480.0,382.0,480.0,390.0,480.0,398.0,481.0,406.0,481.0,414.0,481.0,422.0,481.0,430.0,481.0,438.0,486.0,446.0,481.0,454.0,481.0,461.0,481.0,469.0,476.0,471.0,479.0,474.0,487.0,474.0,499.0,473.0,502.0,472.0" stroke="black" stroke-width="1" fill="none" />
<polyline points="431.0,466.0,423.0,464.0,415.0,462.0,407.0,460.0,399.0,457.0,391.0,456.0" stroke="black" stroke-width="1" fill="none" />
<polyline points="391.0,456.0,396.0,459.0,404.0,461.0,412.0,463.0,420.0,465.0,428.0,468.0" stroke="black" stroke-width="1" fill="none" />
<polyline points="454.0,463.0,446.0,461.0,438.0,459.0,430.0,457.0,422.0,455.0,414.0,453.0,406.0,451.0,398.0,449.0,390.0,447.0,382.0,445.0" stroke="black" stroke-width="1" fill="none" />
<polyline points="381.0,443.0,389.0,444.0,397.0,446.0,405.0,448.0,413.0,450.0,421.0,452.0,429.0,454.0,437.0,456.0,445.0,458.0,453.0,460.0,467.0,459.0,475.0,460.0,484.0,449.0" stroke="black" stroke-width="1" fill="none" />
<polyline points="493.0,348.0,494.0,336.0,489.0,329.0,485.0,329.0,477.0,324.0,469.0,325.0,461.0,325.0,453.0,326.0,445.0,327.0,437.0,328.0,429.0,330.0,421.0,331.0,413.0,332.0,405.0,337.0,395.0,340.0,397.0,341.0,405.0,340.0,404.0,335.0,404.0,327.0,404.0,319.0,404.0,311.0,404.0,303.0,403.0,295.0,403.0,287.0,404.0,279.0,404.0,271.0,403.0,263.0,401.0,255.0,399.0,247.0,384.0,241.0" stroke="black" stroke-width="1" fill="none" />
<polyline points="393.0,243.0,407.0,242.0,412.0,242.0,417.0,243.0,422.0,256.0" stroke="black" stroke-width="1" fill="none" />
<polyline points="416.0,257.0,408.0,252.0" stroke="black" stroke-width="1" fill="none" />
<polyline points="408.0,252.0,412.0,259.0" stroke="black" stroke-width="1" fill="none" />
<polyline points="409.0,268.0,415.0,276.0,421.0,288.0" stroke="black" stroke-width="1" fill="none" />
<polyline points="424.0,275.0,422.0,277.0,422.0,277.0,417.0,270.0,406.0,268.0,406.0,260.0,406.0,252.0,402.0,244.0,396.0,246.0,388.0,247.0,380.0,247.0,372.0,247.0,364.0,247.0,356.0,247.0,348.0,247.0,340.0,247.0,332.0,248.0,324.0,247.0,316.0,247.0,308.0,248.0,300.0,248.0,292.0,249.0,284.0,250.0,276.0,251.0,268.0,254.0" stroke="black" stroke-width="1" fill="none" />
<polyline points="271.0,255.0,272.0,259.0,275.0,267.0,272.0,275.0,270.0,283.0,268.0,291.0,264.0,299.0,259.0,307.0,252.0,315.0,245.0,321.0,245.0,320.0,253.0,314.0,261.0,304.0" stroke="black" stroke-width="1" fill="none" />
<polyline points="252.0,290.0,244.0,289.0" stroke="black" stroke-width="1" fill="none" />
<polyline points="243.0,287.0,246.0,285.0,254.0,289.0" stroke="black" stroke-width="1" fill="none" />
<polyline points="251.0,285.0,243.0,287.0" stroke="black" stroke-width="1" fill="none" />
<polyline points="240.0,291.0,248.0,294.0,256.0,296.0" stroke="black" stroke-width="1" fill="none" />
<polyline points="248.0,299.0,240.0,295.0" stroke="black" stroke-width="1" fill="none" />
<polyline points="237.0,296.0,245.0,300.0" stroke="black" stroke-width="1" fill="none" />
<polyline points="252.0,298.0,244.0,295.0,236.0,294.0" stroke="black" stroke-width="1" fill="none" />
<polyline points="236.0,294.0,252.0,306.0,260.0,295.0" stroke="black" stroke-width="1" fill="none" />
<polyline points="250.0,312.0,249.0,310.0,239.0,308.0,231.0,300.0,230.0,303.0" stroke="black" stroke-width="1" fill="none" />
<polyline points="229.0,301.0,237.0,302.0,245.0,305.0" stroke="black" stroke-width="1" fill="none" />
<polyline points="242.0,306.0,234.0,305.0" stroke="black" stroke-width="1" fill="none" />
<polyline points="237.0,307.0,234.0,301.0" stroke="black" stroke-width="1" fill="none" />
<polyline points="230.0,297.0,238.0,300.0,246.0,303.0" stroke="black" stroke-width="1" fill="none" />
<polyline points="240.0,320.0,232.0,325.0,224.0,337.0" stroke="black" stroke-width="1" fill="none" />
<polyline points="220.0,339.0,221.0,347.0" stroke="black" stroke-width="1" fill="none" />
<polyline points="228.0,355.0,236.0,352.0,245.0,352.0" stroke="black" stroke-width="1" fill="none" />
<polyline points="242.0,354.0,234.0,354.0" stroke="black" stroke-width="1" fill="none" />
<polyline points="223.0,364.0,215.0,366.0" stroke="black" stroke-width="1" fill="none" />
<polyline points="205.0,363.0,209.0,371.0,209.0,379.0,209.0,387.0,209.0,395.0,208.0,403.0,208.0,411.0,208.0,419.0,208.0,427.0,208.0,435.0,209.0,443.0,209.0,451.0,211.0,459.0,218.0,463.0,213.0,465.0" stroke="black" stroke-width="1" fill="none" />
<polyline points="208.0,463.0,208.0,455.0" stroke="black" stroke-width="1" fill="none" />
<polyline points="208.0,453.0,216.0,455.0,216.0,458.0,226.0,460.0,234.0,452.0,242.0,435.0,250.0,413.0,258.0,390.0,266.0,368.0,277.0,377.0,288.0,383.0" stroke="black" stroke-width="1" fill="none" />
<polyline points="284.0,383.0,290.0,391.0,288.0,396.0,288.0,407.0,292.0,415.0,289.0,420.0,286.0,422.0" stroke="black" stroke-width="1" fill="none" />
<polyline points="290.0,421.0,292.0,410.0,284.0,402.0" stroke="black" stroke-width="1" fill="none" />
<polyline points="282.0,400.0,290.0,405.0" stroke="black" stroke-width="1" fill="none" />
<polyline points="295.0,387.0,287.0,377.0" stroke="black" stroke-width="1" fill="none" />
<polyline points="288.0,375.0,294.0,383.0" stroke="black" stroke-width="1" fill="none" />
<polyline points="297.0,382.0,289.0,371.0" stroke="black" stroke-width="1" fill="none" />
<polyline points="288.0,369.0,293.0,377.0,299.0,385.0,296.0,393.0,294.0,396.0,294.0,404.0" stroke="black" stroke-width="1" fill="none" />
<polyline points="294.0,382.0,286.0,374.0" stroke="black" stroke-width="1" fill="none" />
<polyline points="286.0,374.0,290.0,382.0" stroke="black" stroke-width="1" fill="none" />
<polyline points="284.0,383.0,292.0,391.0" stroke="black" stroke-width="1" fill="none" />
<polyline points="296.0,376.0,288.0,369.0" stroke="black" stroke-width="1" fill="none" />
<polyline points="291.0,370.0,297.0,378.0" stroke="black" stroke-width="1" fill="none" />
<polyline points="296.0,366.0,288.0,362.0" stroke="black" stroke-width="1" fill="none" />
<polyline points="283.0,362.0,291.0,365.0,300.0,372.0,301.0,365.0" stroke="black" stroke-width="1" fill="none" />
<polyline points="306.0,359.0,306.0,367.0,301.0,369.0,302.0,377.0" stroke="black" stroke-width="1" fill="none" />
<polyline points="293.0,390.0,286.0,382.0,272.0,379.0" stroke="black" stroke-width="1" fill="none" />
<polyline points="269.0,376.0,277.0,373.0,280.0,383.0,280.0,391.0,280.0,399.0,280.0,407.0,280.0,415.0,280.0,423.0,280.0,431.0,280.0,439.0,280.0,447.0,280.0,455.0,280.0,463.0,280.0,471.0,280.0,479.0,280.0,487.0,280.0,495.0,279.0,503.0,282.0,514.0,283.0,522.0,283.0,530.0,281.0,538.0,271.0,539.0,269.0,547.0,272.0,550.0,280.0,551.0" stroke="black" stroke-width="1" fill="none" />
<polyline points="276.0,557.0,268.0,552.0,255.0,553.0,247.0,551.0,239.0,548.0,231.0,546.0,223.0,544.0,215.0,542.0,207.0,540.0,199.0,539.0" stroke="black" stroke-width="1" fill="none" />
<polyline points="200.0,541.0,208.0,543.0,216.0,545.0,224.0,547.0,232.0,549.0,240.0,551.0,248.0,554.0,256.0,556.0" stroke="black" stroke-width="1" fill="none" />
<polyline points="262.0,552.0,254.0,550.0,246.0,548.0,238.0,545.0" stroke="black" stroke-width="1" fill="none" />
<polyline points="237.0,543.0,253.0,553.0" stroke="black" stroke-width="1" fill="none" />
<polyline points="241.0,544.0,253.0,544.0,268.0,534.0,274.0,535.0,282.0,538.0,292.0,536.0" stroke="black" stroke-width="1" fill="none" />
<polyline points="304.0,529.0,312.0,533.0,320.0,536.0" stroke="black" stroke-width="1" fill="none" />
<polyline points="325.0,528.0,317.0,526.0,309.0,523.0" stroke="black" stroke-width="1" fill="none" />
<polyline points="308.0,521.0,316.0,523.0,324.0,525.0" stroke="black" stroke-width="1" fill="none" />
<polyline points="320.0,505.0,328.0,501.0,336.0,503.0,344.0,504.0" stroke="black" stroke-width="1" fill="none" />
<polyline points="346.0,492.0,338.0,491.0,330.0,489.0,322.0,488.0" stroke="black" stroke-width="1" fill="none" />
<polyline points="322.0,486.0,330.0,487.0,338.0,488.0,346.0,490.0" stroke="black" stroke-width="1" fill="none" />
<polyline points="346.0,473.0,354.0,475.0,362.0,478.0,370.0,480.0,378.0,482.0,386.0,484.0,394.0,485.0,402.0,487.0" stroke="black" stroke-width="1" fill="none" />
<polyline points="401.0,484.0,393.0,483.0,385.0,481.0,377.0,479.0,369.0,477.0,361.0,475.0,353.0,473.0,345.0,471.0" stroke="black" stroke-width="1" fill="none" />
<polyline points="343.0,454.0,351.0,456.0,359.0,459.0,367.0,461.0,375.0,463.0,383.0,466.0,391.0,469.0,399.0,472.0,407.0,474.0,415.0,477.0" stroke="black" stroke-width="1" fill="none" />
<polyline points="422.0,476.0,414.0,474.0,406.0,471.0,398.0,469.0,390.0,466.0,382.0,463.0,374.0,461.0,366.0,458.0,358.0,456.0,350.0,454.0,342.0,452.0,330.0,452.0,322.0,450.0,314.0,448.0" stroke="black" stroke-width="1" fill="none" />
<polyline points="312.0,450.0,320.0,452.0" stroke="black" stroke-width="1" fill="none" />
<polyline points="311.0,459.0,319.0,460.0,327.0,462.0,335.0,463.0,343.0,465.0,351.0,467.0" stroke="black" stroke-width="1" fill="none" />
<polyline points="354.0,445.0,346.0,442.0,338.0,440.0" stroke="black" stroke-width="1" fill="none" />
<polyline points="337.0,438.0,345.0,440.0,353.0,442.0" stroke="black" stroke-width="1" fill="none" />
<polyline points="351.0,470.0,343.0,468.0,335.0,466.0,327.0,464.0,319.0,462.0,311.0,461.0" stroke="black" stroke-width="1" fill="none" />
<polyline points="320.0,454.0,312.0,452.0,304.0,450.0" stroke="black" stroke-width="1" fill="none" />
<polyline points="303.0,448.0,311.0,449.0,319.0,447.0,327.0,449.0,335.0,450.0" stroke="black" stroke-width="1" fill="none" />
<polyline points="373.0,463.0,396.0,471.0" stroke="black" stroke-width="1" fill="none" />
<polyline points="401.0,470.0,378.0,462.0" stroke="black" stroke-width="1" fill="none" />
<polyline points="324.0,514.0,316.0,512.0,308.0,509.0" stroke="black" stroke-width="1" fill="none" />
<polyline points="308.0,507.0,316.0,510.0,324.0,512.0,325.0,509.0,326.0,506.0,328.0,504.0,336.0,506.0,344.0,507.0" stroke="black" stroke-width="1" fill="none" />
<polyline points="319.0,533.0,311.0,530.0,303.0,526.0" stroke="black" stroke-width="1" fill="none" />
<polyline points="303.0,526.0,314.0,534.0" stroke="black" stroke-width="1" fill="none" />
<polyline points="303.0,554.0,295.0,554.0,287.0,559.0,289.0,553.0,294.0,545.0,292.0,537.0,291.0,529.0,289.0,517.0,287.0,509.0,282.0,497.0,282.0,489.0,282.0,481.0,282.0,473.0,282.0,465.0,282.0,457.0,282.0,449.0,282.0,441.0,282.0,433.0,282.0,425.0,282.0,417.0,282.0,409.0,282.0,401.0,277.0,394.0,273.0,383.0,275.0,380.0,280.0,373.0,277.0,373.0,278.0,365.0,276.0,363.0" stroke="black" stroke-width="1" fill="none" />
<polyline points="272.0,364.0,272.0,372.0,269.0,385.0,270.0,393.0,270.0,401.0,270.0,409.0,270.0,417.0,270.0,425.0,270.0,433.0,270.0,441.0,270.0,449.0,270.0,457.0,270.0,465.0,269.0,473.0,269.0,481.0,269.0,489.0,269.0,497.0,273.0,505.0,278.0,512.0,279.0,520.0,285.0,521.0,287.0,524.0" stroke="black" stroke-width="1" fill="none" />
<polyline points="277.0,510.0,269.0,508.0" stroke="black" stroke-width="1" fill="none" />
<polyline points="269.0,508.0,271.0,516.0" stroke="black" stroke-width="1" fill="none" />
<polyline points="268.0,519.0,276.0,521.0" stroke="black" stroke-width="1" fill="none" />
<polyline points="288.0,509.0,277.0,507.0,269.0,503.0" stroke="black" stroke-width="1" fill="none" />
<polyline points="257.0,496.0,249.0,492.0" stroke="black" stroke-width="1" fill="none" />
<polyline points="251.0,491.0,258.0,490.0" stroke="black" stroke-width="1" fill="none" />
<polyline points="256.0,493.0,248.0,490.0" stroke="black" stroke-width="1" fill="none" />
<polyline points="247.0,472.0,255.0,476.0,263.0,479.0" stroke="black" stroke-width="1" fill="none" />
<polyline points="262.0,476.0,254.0,472.0,246.0,470.0" stroke="black" stroke-width="1" fill="none" />
<polyline points="246.0,470.0,259.0,478.0,266.0,486.0,267.0,494.0,267.0,502.0,267.0,510.0,267.0,518.0,272.0,526.0,268.0,534.0,266.0,542.0,267.0,550.0,267.0,556.0,270.0,558.0,278.0,561.0,286.0,555.0" stroke="black" stroke-width="1" fill="none" />
<polyline points="287.0,541.0,279.0,549.0,275.0,546.0,276.0,538.0" stroke="black" stroke-width="1" fill="none" />
<polyline points="272.0,538.0,261.0,550.0,253.0,548.0,245.0,545.0,237.0,543.0" stroke="black" stroke-width="1" fill="none" />
<polyline points="255.0,516.0,247.0,513.0,239.0,511.0,231.0,509.0" stroke="black" stroke-width="1" fill="none" />
<polyline points="231.0,509.0,234.0,512.0,242.0,514.0,250.0,517.0" stroke="black" stroke-width="1" fill="none" />
<polyline points="244.0,520.0,236.0,518.0,228.0,516.0,220.0,512.0" stroke="black" stroke-width="1" fill="none" />
<polyline points="218.0,511.0,226.0,512.0,234.0,515.0,242.0,518.0" stroke="black" stroke-width="1" fill="none" />
<polyline points="214.0,497.0,206.0,497.0" stroke="black" stroke-width="1" fill="none" />
<polyline points="224.0,489.0,227.0,485.0,222.0,490.0,214.0,491.0,206.0,492.0,195.0,498.0,191.0,497.0,183.0,495.0,187.0,498.0,197.0,494.0,200.0,491.0,202.0,482.0,198.0,482.0,197.0,476.0,189.0,474.0,181.0,473.0,173.0,470.0,165.0,468.0" stroke="black" stroke-width="1" fill="none" />
<polyline points="166.0,471.0,166.0,479.0,176.0,484.0,165.0,492.0,162.0,500.0,164.0,502.0,171.0,494.0,177.0,497.0,181.0,490.0,189.0,489.0" stroke="black" stroke-width="1" fill="none" />
<polyline points="178.0,486.0,168.0,494.0,162.0,500.0,170.0,493.0,176.0,491.0" stroke="black" stroke-width="1" fill="none" />
<polyline points="160.0,486.0,152.0,488.0,144.0,487.0" stroke="black" stroke-width="1" fill="none" />
<polyline points="143.0,490.0,151.0,493.0,159.0,489.0" stroke="black" stroke-width="1" fill="none" />
<polyline points="144.0,477.0,136.0,473.0,128.0,470.0,120.0,470.0,112.0,467.0" stroke="black" stroke-width="1" fill="none" />
<polyline points="112.0,467.0,126.0,475.0,142.0,478.0,152.0,485.0,160.0,483.0,168.0,480.0,174.0,479.0,182.0,482.0,190.0,484.0,196.0,490.0" stroke="black" stroke-width="1" fill="none" />
<polyline points="204.0,473.0,196.0,473.0,188.0,472.0,188.0,472.0,175.0,464.0" stroke="black" stroke-width="1" fill="none" />
<polyline points="179.0,462.0,171.0,466.0,163.0,466.0,160.0,464.0,148.0,459.0,140.0,457.0" stroke="black" stroke-width="1" fill="none" />
<polyline points="140.0,457.0,159.0,460.0,167.0,459.0,178.0,459.0,187.0,463.0" stroke="black" stroke-width="1" fill="none" />
<polyline points="198.0,453.0,198.0,445.0,198.0,437.0,198.0,429.0,198.0,421.0,198.0,413.0,199.0,405.0,199.0,397.0,199.0,389.0,199.0,381.0,199.0,373.0,199.0,365.0,191.0,362.0" stroke="black" stroke-width="1" fill="none" />
<polyline points="181.0,366.0,191.0,362.0,192.0,370.0,192.0,378.0,192.0,386.0,192.0,394.0,192.0,402.0,192.0,410.0,192.0,418.0,192.0,426.0,192.0,434.0,192.0,442.0,192.0,450.0,190.0,457.0,198.0,460.0" stroke="black" stroke-width="1" fill="none" />
<polyline points="208.0,444.0,216.0,448.0,217.0,453.0,219.0,465.0,227.0,468.0" stroke="black" stroke-width="1" fill="none" />
<polyline points="228.0,473.0,220.0,474.0,212.0,475.0,200.0,471.0,192.0,470.0,179.0,458.0,179.0,450.0,179.0,442.0,179.0,434.0,179.0,426.0,179.0,418.0,179.0,410.0,179.0,402.0,179.0,394.0,179.0,386.0,179.0,378.0,179.0,370.0,176.0,366.0" stroke="black" stroke-width="1" fill="none" />
<polyline points="180.0,361.0,188.0,370.0,183.0,373.0,184.0,381.0,186.0,383.0,186.0,391.0,185.0,393.0,187.0,401.0,186.0,409.0,182.0,417.0,182.0,425.0,185.0,433.0,187.0,440.0,188.0,448.0,186.0,449.0" stroke="black" stroke-width="1" fill="none" />
<polyline points="192.0,466.0,188.0,469.0,184.0,460.0,185.0,449.0,185.0,441.0,182.0,433.0,188.0,428.0,187.0,420.0,187.0,415.0,181.0,405.0,181.0,397.0,182.0,391.0,181.0,383.0,181.0,375.0,181.0,367.0,186.0,359.0,182.0,359.0,174.0,358.0" stroke="black" stroke-width="1" fill="none" />
<polyline points="174.0,358.0,174.0,366.0,174.0,374.0,174.0,382.0,174.0,390.0,174.0,398.0,174.0,406.0,174.0,414.0,174.0,422.0,174.0,430.0,174.0,438.0,174.0,446.0,174.0,454.0,174.0,462.0,180.0,469.0,188.0,465.0,192.0,463.0,200.0,462.0,207.0,471.0,209.0,465.0,211.0,467.0,220.0,477.0,228.0,475.0" stroke="black" stroke-width="1" fill="none" />
<polyline points="250.0,471.0,267.0,479.0" stroke="black" stroke-width="1" fill="none" />
<polyline points="302.0,475.0,310.0,476.0,318.0,478.0,326.0,480.0,334.0,481.0,342.0,483.0,350.0,485.0,358.0,487.0,366.0,489.0,374.0,491.0" stroke="black" stroke-width="1" fill="none" />
<polyline points="375.0,493.0,367.0,491.0,359.0,489.0,351.0,488.0,343.0,486.0,335.0,484.0,327.0,482.0,319.0,481.0,311.0,479.0,303.0,477.0" stroke="black" stroke-width="1" fill="none" />
<polyline points="223.0,514.0,214.0,516.0,206.0,514.0,198.0,512.0,190.0,511.0" stroke="black" stroke-width="1" fill="none" />
<polyline points="190.0,511.0,194.0,514.0,202.0,516.0,210.0,517.0" stroke="black" stroke-width="1" fill="none" />
<polyline points="193.0,520.0,185.0,517.0,177.0,514.0" stroke="black" stroke-width="1" fill="none" />
<polyline points="177.0,514.0,190.0,522.0" stroke="black" stroke-width="1" fill="none" />
<polyline points="186.0,525.0,178.0,523.0,170.0,520.0,162.0,518.0" stroke="black" stroke-width="1" fill="none" />
<polyline points="161.0,516.0,169.0,518.0,177.0,520.0,185.0,523.0" stroke="black" stroke-width="1" fill="none" />
<polyline points="181.0,526.0,173.0,526.0,165.0,524.0,157.0,521.0,149.0,518.0" stroke="black" stroke-width="1" fill="none" />
<polyline points="149.0,516.0,165.0,524.0,179.0,517.0,187.0,521.0,195.0,523.0" stroke="black" stroke-width="1" fill="none" />
<polyline points="173.0,524.0,165.0,521.0,157.0,519.0,149.0,516.0" stroke="black" stroke-width="1" fill="none" />
<polyline points="155.0,518.0,180.0,524.0" stroke="black" stroke-width="1" fill="none" />
<polyline points="140.0,505.0,132.0,502.0,124.0,499.0,116.0,495.0,108.0,492.0" stroke="black" stroke-width="1" fill="none" />
<polyline points="108.0,490.0,122.0,498.0,143.0,506.0" stroke="black" stroke-width="1" fill="none" />
<polyline points="133.0,475.0,125.0,472.0" stroke="black" stroke-width="1" fill="none" />
<polyline points="125.0,469.0,139.0,477.0" stroke="black" stroke-width="1" fill="none" />
<polyline points="146.0,467.0,138.0,463.0,130.0,458.0" stroke="black" stroke-width="1" fill="none" />
<polyline points="131.0,456.0,144.0,464.0" stroke="black" stroke-width="1" fill="none" />
<polyline points="149.0,462.0,141.0,459.0" stroke="black" stroke-width="1" fill="none" />
<polyline points="144.0,458.0,158.0,463.0,157.0,471.0,158.0,479.0,163.0,478.0,173.0,473.0,181.0,475.0,189.0,477.0,197.0,479.0" stroke="black" stroke-width="1" fill="none" />
<polyline points="182.0,504.0,182.0,496.0,191.0,492.0,183.0,504.0,180.0,502.0,173.0,505.0,174.0,497.0,177.0,497.0,182.0,489.0,176.0,484.0,168.0,490.0,160.0,496.0,160.0,502.0,157.0,494.0,159.0,486.0,159.0,475.0,160.0,467.0,169.0,461.0,171.0,453.0,170.0,445.0,170.0,437.0,170.0,429.0,170.0,421.0,170.0,413.0,170.0,405.0,170.0,397.0,170.0,389.0,170.0,381.0,170.0,373.0,170.0,365.0,172.0,357.0,163.0,357.0,155.0,355.0,147.0,354.0,139.0,353.0,131.0,352.0,123.0,350.0,115.0,349.0,107.0,348.0,99.0,346.0,91.0,343.0,83.0,341.0" stroke="black" stroke-width="1" fill="none" />
<polyline points="85.0,340.0,81.0,348.0,79.0,356.0,77.0,364.0,77.0,372.0,76.0,380.0,76.0,388.0,76.0,396.0,76.0,404.0,75.0,412.0,75.0,420.0,75.0,428.0,75.0,436.0,72.0,444.0" stroke="black" stroke-width="1" fill="none" />
<polyline points="76.0,438.0,74.0,446.0,74.0,454.0,76.0,462.0,73.0,470.0,63.0,478.0,71.0,478.0,79.0,475.0" stroke="black" stroke-width="1" fill="none" />
<polyline points="77.0,486.0,100.0,494.0,115.0,502.0" stroke="black" stroke-width="1" fill="none" />
<polyline points="113.0,501.0,105.0,498.0,97.0,495.0,89.0,492.0,81.0,490.0,73.0,487.0" stroke="black" stroke-width="1" fill="none" />
<polyline points="72.0,485.0,90.0,493.0,112.0,501.0" stroke="black" stroke-width="1" fill="none" />
<polyline points="112.0,498.0,104.0,495.0,96.0,492.0,88.0,489.0,80.0,487.0,72.0,485.0" stroke="black" stroke-width="1" fill="none" />
<polyline points="98.0,472.0,106.0,475.0,114.0,478.0,122.0,480.0,130.0,481.0" stroke="black" stroke-width="1" fill="none" />
<polyline points="129.0,479.0,121.0,477.0,113.0,475.0,105.0,472.0,97.0,470.0" stroke="black" stroke-width="1" fill="none" />
<polyline points="97.0,470.0,114.0,478.0" stroke="black" stroke-width="1" fill="none" />
<polyline points="116.0,468.0,136.0,476.0" stroke="black" stroke-width="1" fill="none" />
<polyline points="141.0,473.0,133.0,469.0,125.0,467.0" stroke="black" stroke-width="1" fill="none" />
<polyline points="129.0,468.0,147.0,476.0,141.0,489.0,144.0,483.0,152.0,482.0" stroke="black" stroke-width="1" fill="none" />
<polyline points="140.0,477.0,132.0,477.0,124.0,474.0,116.0,470.0,101.0,471.0" stroke="black" stroke-width="1" fill="none" />
<polyline points="108.0,490.0,116.0,493.0,124.0,496.0,132.0,499.0,140.0,502.0" stroke="black" stroke-width="1" fill="none" />
<polyline points="134.0,500.0,113.0,492.0" stroke="black" stroke-width="1" fill="none" />
<polyline points="137.0,463.0,129.0,455.0" stroke="black" stroke-width="1" fill="none" />
<polyline points="129.0,455.0,137.0,459.0,145.0,464.0" stroke="black" stroke-width="1" fill="none" />
<polyline points="161.0,468.0,162.0,476.0" stroke="black" stroke-width="1" fill="none" />
<polyline points="216.0,422.0,216.0,414.0,208.0,415.0" stroke="black" stroke-width="1" fill="none" />
<polyline points="212.0,416.0,212.0,405.0,212.0,398.0" stroke="black" stroke-width="1" fill="none" />
<polyline points="211.0,392.0,215.0,389.0,212.0,380.0,213.0,383.0,213.0,387.0,215.0,392.0,213.0,394.0,213.0,401.0,217.0,409.0,213.0,417.0,215.0,422.0,214.0,426.0,212.0,438.0,216.0,443.0,228.0,425.0,236.0,406.0,244.0,388.0" stroke="black" stroke-width="1" fill="none" />
<polyline points="267.0,384.0,267.0,392.0,267.0,400.0,267.0,408.0,267.0,416.0,267.0,424.0,267.0,432.0,267.0,440.0,267.0,448.0,267.0,456.0,267.0,464.0,267.0,472.0" stroke="black" stroke-width="1" fill="none" />
<polyline points="212.0,422.0,215.0,416.0,210.0,408.0" stroke="black" stroke-width="1" fill="none" />
<polyline points="204.0,373.0,206.0,381.0,205.0,389.0,205.0,397.0,205.0,405.0,205.0,413.0,205.0,421.0,205.0,429.0,206.0,437.0,206.0,445.0,206.0,453.0,206.0,461.0,204.0,469.0" stroke="black" stroke-width="1" fill="none" />
<polyline points="242.0,380.0,234.0,399.0,226.0,418.0,225.0,421.0,229.0,413.0,232.0,405.0,235.0,397.0,239.0,389.0,241.0,381.0,245.0,373.0,249.0,365.0" stroke="black" stroke-width="1" fill="none" />
<polyline points="255.0,363.0,251.0,371.0,248.0,379.0,245.0,387.0,241.0,395.0,237.0,403.0,234.0,411.0,231.0,419.0,227.0,427.0,224.0,435.0,222.0,443.0,222.0,451.0,221.0,459.0,220.0,467.0,224.0,470.0,227.0,466.0,240.0,451.0,248.0,427.0,256.0,406.0,264.0,387.0,272.0,391.0,285.0,390.0,293.0,395.0,303.0,385.0,311.0,362.0,319.0,358.0,327.0,357.0,335.0,357.0,343.0,356.0,351.0,355.0,359.0,355.0,367.0,354.0,375.0,353.0,383.0,352.0,391.0,351.0,399.0,350.0" stroke="black" stroke-width="1" fill="none" />
<polyline points="383.0,341.0,375.0,341.0,367.0,342.0" stroke="black" stroke-width="1" fill="none" />
<polyline points="352.0,345.0,344.0,346.0,332.0,348.0,324.0,348.0" stroke="black" stroke-width="1" fill="none" />
<polyline points="314.0,350.0,306.0,351.0,298.0,350.0" stroke="black" stroke-width="1" fill="none" />
<polyline points="288.0,348.0,280.0,349.0" stroke="black" stroke-width="1" fill="none" />
<polyline points="265.0,350.0,257.0,351.0,257.0,355.0,249.0,355.0,241.0,357.0,233.0,357.0,221.0,354.0,216.0,348.0,216.0,340.0,208.0,337.0,200.0,335.0" stroke="black" stroke-width="1" fill="none" />
<polyline points="213.0,329.0,205.0,327.0,197.0,335.0,189.0,333.0,181.0,332.0,176.0,331.0,168.0,330.0" stroke="black" stroke-width="1" fill="none" />
<polyline points="167.0,318.0,167.0,326.0,166.0,330.0,174.0,326.0,182.0,325.0" stroke="black" stroke-width="1" fill="none" />
<polyline points="168.0,315.0,158.0,323.0,157.0,329.0,159.0,322.0,167.0,317.0,172.0,322.0,182.0,328.0,193.0,329.0,196.0,327.0,203.0,324.0,211.0,322.0,211.0,325.0,220.0,327.0,228.0,318.0,236.0,318.0" stroke="black" stroke-width="1" fill="none" />
<polyline points="228.0,311.0,220.0,307.0" stroke="black" stroke-width="1" fill="none" />
<polyline points="219.0,305.0,232.0,313.0" stroke="black" stroke-width="1" fill="none" />
<polyline points="219.0,305.0,227.0,307.0,235.0,311.0,243.0,311.0,251.0,303.0" stroke="black" stroke-width="1" fill="none" />
<polyline points="234.0,315.0,226.0,316.0,218.0,315.0,210.0,314.0,202.0,313.0,194.0,312.0,186.0,311.0,178.0,310.0,170.0,309.0,162.0,308.0,154.0,307.0,146.0,306.0,138.0,305.0,130.0,303.0,122.0,303.0,114.0,302.0,106.0,301.0,98.0,300.0,90.0,299.0,82.0,298.0,74.0,297.0,66.0,296.0,58.0,294.0,47.0,298.0,39.0,298.0,31.0,299.0,26.0,301.0,18.0,300.0" stroke="black" stroke-width="1" fill="none" />
<polyline points="18.0,302.0,21.0,301.0,25.0,302.0,29.0,305.0,34.0,303.0,36.0,308.0,38.0,309.0,41.0,303.0,49.0,306.0,60.0,308.0" stroke="black" stroke-width="1" fill="none" />
<polyline points="72.0,292.0,64.0,291.0,56.0,288.0" stroke="black" stroke-width="1" fill="none" />
<polyline points="63.0,280.0,71.0,285.0" stroke="black" stroke-width="1" fill="none" />
<polyline points="67.0,287.0,75.0,291.0" stroke="black" stroke-width="1" fill="none" />
<polyline points="73.0,276.0,65.0,273.0" stroke="black" stroke-width="1" fill="none" />
<polyline points="70.0,272.0,62.0,267.0" stroke="black" stroke-width="1" fill="none" />
<polyline points="61.0,265.0,73.0,273.0,73.0,279.0" stroke="black" stroke-width="1" fill="none" />
<polyline points="78.0,285.0,70.0,281.0,62.0,278.0" stroke="black" stroke-width="1" fill="none" />
<polyline points="62.0,278.0,73.0,286.0" stroke="black" stroke-width="1" fill="none" />
<polyline points="76.0,271.0,68.0,268.0,60.0,266.0" stroke="black" stroke-width="1" fill="none" />
<polyline points="69.0,263.0,71.0,256.0,59.0,252.0,51.0,245.0,44.0,237.0" stroke="black" stroke-width="1" fill="none" />
<polyline points="49.0,235.0,57.0,235.0,65.0,236.0,73.0,236.0,81.0,237.0,89.0,237.0,97.0,236.0,105.0,236.0,113.0,235.0" stroke="black" stroke-width="1" fill="none" />
<polyline points="103.0,248.0,111.0,250.0,119.0,250.0,127.0,253.0" stroke="black" stroke-width="1" fill="none" />
<polyline points="126.0,245.0,134.0,245.0,142.0,246.0,158.0,249.0,179.0,257.0" stroke="black" stroke-width="1" fill="none" />
<polyline points="174.0,249.0,193.0,257.0,209.0,254.0,214.0,268.0,223.0,269.0,228.0,270.0,232.0,272.0,239.0,272.0,247.0,272.0,255.0,274.0,255.0,276.0" stroke="black" stroke-width="1" fill="none" />
<polyline points="252.0,273.0,256.0,281.0" stroke="black" stroke-width="1" fill="none" />
<polyline points="252.0,281.0,244.0,274.0,236.0,273.0,229.0,273.0,227.0,275.0,219.0,271.0" stroke="black" stroke-width="1" fill="none" />
<polyline points="227.0,261.0,235.0,262.0,243.0,262.0,251.0,260.0" stroke="black" stroke-width="1" fill="none" />
<polyline points="252.0,262.0,244.0,262.0" stroke="black" stroke-width="1" fill="none" />
<polyline points="243.0,274.0,254.0,282.0,250.0,292.0" stroke="black" stroke-width="1" fill="none" />
<polyline points="251.0,290.0,245.0,282.0" stroke="black" stroke-width="1" fill="none" />
<polyline points="266.0,288.0,269.0,280.0,269.0,272.0" stroke="black" stroke-width="1" fill="none" />
<polyline points="265.0,256.0,269.0,264.0,266.0,274.0,264.0,282.0,262.0,290.0,261.0,298.0,257.0,301.0,249.0,310.0,235.0,318.0,227.0,327.0,227.0,331.0,224.0,339.0,225.0,347.0,229.0,357.0,231.0,362.0,239.0,363.0,247.0,361.0,255.0,361.0,263.0,360.0,271.0,359.0,279.0,358.0,287.0,357.0,295.0,355.0,303.0,357.0,311.0,356.0,319.0,355.0,327.0,355.0,335.0,354.0,343.0,353.0,351.0,352.0,359.0,351.0,367.0,350.0,375.0,350.0,383.0,349.0,391.0,348.0,399.0,347.0" stroke="black" stroke-width="1" fill="none" />
<polyline points="412.0,317.0,413.0,312.0,421.0,316.0" stroke="black" stroke-width="1" fill="none" />
<polyline points="420.0,318.0,413.0,308.0,409.0,314.0" stroke="black" stroke-width="1" fill="none" />
<polyline points="410.0,309.0,418.0,312.0,420.0,318.0,428.0,318.0,436.0,316.0,444.0,314.0,452.0,313.0,460.0,311.0,468.0,310.0,476.0,309.0,484.0,309.0,492.0,308.0,500.0,307.0" stroke="black" stroke-width="1" fill="none" />
<polyline points="506.0,310.0,495.0,317.0,487.0,319.0,479.0,320.0,471.0,321.0,463.0,322.0,455.0,323.0,447.0,324.0,439.0,325.0,431.0,326.0,423.0,328.0,414.0,325.0,420.0,321.0,412.0,324.0,406.0,330.0,407.0,321.0,406.0,313.0,406.0,305.0,406.0,297.0,406.0,289.0,406.0,281.0,406.0,273.0" stroke="black" stroke-width="1" fill="none" />
<polyline points="401.0,239.0,409.0,238.0,417.0,242.0,426.0,240.0" stroke="black" stroke-width="1" fill="none" />
<polyline points="467.0,228.0,459.0,228.0,451.0,229.0,443.0,228.0,433.0,224.0,425.0,225.0,422.0,223.0,414.0,225.0,406.0,224.0,398.0,224.0,390.0,224.0,382.0,225.0,374.0,224.0" stroke="black" stroke-width="1" fill="none" />
<polyline points="368.0,213.0,376.0,222.0,384.0,221.0,392.0,221.0,400.0,221.0,408.0,221.0,416.0,221.0,424.0,221.0,432.0,221.0,440.0,222.0,448.0,222.0,456.0,222.0,464.0,222.0,472.0,222.0,480.0,222.0,488.0,222.0,496.0,223.0,504.0,224.0,508.0,229.0,508.0,237.0,508.0,245.0,508.0,253.0,508.0,261.0,508.0,269.0,508.0,277.0,508.0,285.0,508.0,293.0,508.0,301.0,500.0,312.0,503.0,321.0,502.0,329.0,502.0,337.0,502.0,345.0,502.0,353.0,502.0,361.0,502.0,369.0,501.0,377.0,501.0,385.0,501.0,393.0,501.0,401.0,501.0,409.0,501.0,417.0,501.0,425.0,501.0,433.0,500.0,441.0,499.0,449.0,501.0,457.0,498.0,465.0,491.0,468.0,491.0,464.0,495.0,467.0,503.0,470.0" stroke="black" stroke-width="1" fill="none" />
<polyline points="390.0,345.0,383.0,343.0,374.0,345.0,366.0,346.0,358.0,346.0,353.0,343.0,344.0,344.0,336.0,344.0,328.0,345.0,320.0,347.0,312.0,347.0,304.0,347.0,296.0,349.0,288.0,351.0,280.0,351.0,272.0,352.0,264.0,352.0" stroke="black" stroke-width="1" fill="none" />
<polyline points="264.0,362.0,265.0,370.0,262.0,378.0,260.0,386.0,257.0,394.0,254.0,402.0,251.0,410.0,249.0,418.0,246.0,426.0,243.0,434.0,239.0,442.0,236.0,450.0,231.0,458.0,223.0,467.0,225.0,479.0,219.0,493.0,218.0,494.0" stroke="black" stroke-width="1" fill="none" />
<polyline points="284.0,504.0,290.0,497.0,289.0,489.0,289.0,481.0,289.0,473.0,290.0,465.0,290.0,457.0,290.0,449.0,290.0,441.0,290.0,433.0,287.0,425.0,287.0,417.0,289.0,404.0,282.0,396.0,282.0,388.0,282.0,380.0,282.0,372.0,282.0,364.0" stroke="black" stroke-width="1" fill="none" />
<polyline points="269.0,362.0,269.0,370.0,269.0,378.0,265.0,386.0,261.0,394.0,258.0,402.0,255.0,410.0,252.0,418.0,249.0,426.0,246.0,434.0,244.0,442.0,241.0,450.0,238.0,458.0,234.0,466.0,234.0,474.0,233.0,482.0,232.0,490.0" stroke="black" stroke-width="1" fill="none" />
<polyline points="229.0,494.0,221.0,498.0,213.0,499.0,205.0,500.0,201.0,498.0,204.0,498.0,204.0,490.0,205.0,482.0,199.0,477.0,201.0,465.0,202.0,458.0,201.0,454.0,201.0,446.0,201.0,438.0,201.0,430.0,201.0,422.0,201.0,414.0,201.0,406.0,202.0,398.0,202.0,390.0,202.0,382.0,202.0,374.0,204.0,370.0,204.0,362.0" stroke="black" stroke-width="1" fill="none" />
<polyline points="202.0,354.0,197.0,355.0,195.0,352.0,187.0,350.0" stroke="black" stroke-width="1" fill="none" />
<polyline points="155.0,326.0,147.0,323.0" stroke="black" stroke-width="1" fill="none" />
<polyline points="145.0,322.0,156.0,325.0" stroke="black" stroke-width="1" fill="none" />
<polyline points="146.0,327.0,154.0,328.0,162.0,325.0,171.0,320.0,179.0,322.0,187.0,320.0,195.0,323.0,205.0,329.0,210.0,333.0,220.0,338.0,220.0,330.0,225.0,327.0,231.0,323.0" stroke="black" stroke-width="1" fill="none" />
<polyline points="217.0,262.0,224.0,254.0,213.0,252.0,205.0,250.0,197.0,249.0,189.0,248.0,181.0,248.0,173.0,251.0,165.0,252.0,157.0,248.0" stroke="black" stroke-width="1" fill="none" />
<polyline points="154.0,254.0,162.0,257.0,170.0,260.0" stroke="black" stroke-width="1" fill="none" />
<polyline points="162.0,253.0,148.0,252.0,145.0,250.0" stroke="black" stroke-width="1" fill="none" />
<polyline points="148.0,248.0,156.0,251.0,164.0,253.0,172.0,256.0,180.0,260.0,188.0,261.0,196.0,262.0,207.0,263.0,215.0,260.0,223.0,255.0,231.0,253.0,239.0,253.0,247.0,253.0,255.0,253.0" stroke="black" stroke-width="1" fill="none" />
<polyline points="262.0,243.0,270.0,240.0,272.0,238.0,280.0,238.0,288.0,238.0,296.0,239.0,304.0,239.0,312.0,240.0,320.0,242.0,328.0,243.0" stroke="black" stroke-width="1" fill="none" />
<polyline points="318.0,235.0,326.0,237.0,334.0,239.0,342.0,245.0,350.0,245.0" stroke="black" stroke-width="1" fill="none" />
<polyline points="371.0,244.0,363.0,235.0,355.0,217.0,347.0,198.0" stroke="black" stroke-width="1" fill="none" />
<polyline points="348.0,196.0,352.0,204.0,355.0,212.0,358.0,220.0,362.0,228.0" stroke="black" stroke-width="1" fill="none" />
<polyline points="361.0,226.0,353.0,205.0,345.0,195.0" stroke="black" stroke-width="1" fill="none" />
<polyline points="345.0,195.0,349.0,203.0,352.0,211.0,355.0,219.0,359.0,227.0,362.0,235.0" stroke="black" stroke-width="1" fill="none" />
<polyline points="365.0,245.0,357.0,228.0,349.0,209.0,341.0,193.0" stroke="black" stroke-width="1" fill="none" />
<polyline points="337.0,192.0,345.0,209.0" stroke="black" stroke-width="1" fill="none" />
<polyline points="352.0,197.0,360.0,217.0,368.0,234.0,381.0,227.0,389.0,229.0,394.0,230.0,402.0,231.0,410.0,232.0" stroke="black" stroke-width="1" fill="none" />
<polyline points="347.0,225.0,339.0,225.0" stroke="black" stroke-width="1" fill="none" />
<polyline points="347.0,214.0,343.0,206.0,340.0,198.0,336.0,190.0,338.0,182.0,335.0,174.0,332.0,166.0,329.0,158.0,325.0,150.0,322.0,142.0,319.0,134.0,316.0,126.0,313.0,118.0,310.0,110.0,307.0,102.0,304.0,94.0,300.0,86.0,297.0,78.0,300.0,78.0,301.0,70.0,304.0,62.0,311.0,54.0,319.0,46.0,328.0,38.0,336.0,30.0,333.0,22.0,332.0,33.0,324.0,42.0,316.0,49.0,308.0,57.0,308.0,67.0" stroke="black" stroke-width="1" fill="none" />
<polyline points="306.0,65.0,314.0,58.0,322.0,48.0,326.0,49.0,319.0,51.0,311.0,59.0,306.0,67.0,308.0,69.0,306.0,81.0,304.0,89.0,308.0,97.0,311.0,105.0,314.0,113.0,317.0,121.0,320.0,129.0,324.0,137.0,326.0,145.0,332.0,147.0,333.0,151.0,334.0,159.0,341.0,163.0,345.0,171.0,342.0,179.0,342.0,187.0,341.0,195.0,345.0,203.0,349.0,211.0,353.0,219.0,353.0,227.0,357.0,229.0,357.0,237.0,362.0,239.0,355.0,240.0" stroke="black" stroke-width="1" fill="none" />
<polyline points="330.0,208.0,322.0,198.0,314.0,192.0,306.0,189.0" stroke="black" stroke-width="1" fill="none" />
<polyline points="307.0,188.0,314.0,196.0,324.0,197.0,326.0,205.0,329.0,213.0" stroke="black" stroke-width="1" fill="none" />
<polyline points="323.0,201.0,315.0,196.0,307.0,190.0" stroke="black" stroke-width="1" fill="none" />
<polyline points="309.0,189.0,320.0,197.0,327.0,200.0,330.0,208.0" stroke="black" stroke-width="1" fill="none" />
<polyline points="317.0,206.0,309.0,200.0,301.0,193.0" stroke="black" stroke-width="1" fill="none" />
<polyline points="300.0,191.0,307.0,199.0,318.0,207.0" stroke="black" stroke-width="1" fill="none" />
<polyline points="316.0,202.0,308.0,196.0,300.0,191.0" stroke="black" stroke-width="1" fill="none" />
<polyline points="303.0,192.0,313.0,200.0,325.0,200.0" stroke="black" stroke-width="1" fill="none" />
<polyline points="315.0,180.0,307.0,173.0,299.0,167.0" stroke="black" stroke-width="1" fill="none" />
<polyline points="301.0,168.0,310.0,176.0" stroke="black" stroke-width="1" fill="none" />
<polyline points="334.0,164.0,333.0,149.0,325.0,131.0,317.0,121.0,311.0,98.0,303.0,86.0,298.0,70.0,292.0,76.0,290.0,80.0,297.0,72.0,286.0,74.0" stroke="black" stroke-width="1" fill="none" />
<polyline points="301.0,68.0,309.0,86.0,317.0,105.0,325.0,124.0,333.0,143.0,341.0,161.0,349.0,180.0,357.0,188.0,365.0,204.0,373.0,199.0" stroke="black" stroke-width="1" fill="none" />
<polyline points="353.0,195.0,357.0,203.0,360.0,211.0,363.0,219.0" stroke="black" stroke-width="1" fill="none" />
<polyline points="366.0,225.0,358.0,205.0,354.0,187.0,346.0,179.0,335.0,173.0,327.0,153.0,319.0,133.0,311.0,112.0,303.0,92.0" stroke="black" stroke-width="1" fill="none" />
<polyline points="305.0,90.0,313.0,110.0" stroke="black" stroke-width="1" fill="none" />
<polyline points="321.0,130.0,329.0,145.0" stroke="black" stroke-width="1" fill="none" />
<polyline points="311.0,180.0,301.0,172.0,293.0,172.0,285.0,165.0,277.0,159.0,269.0,152.0,261.0,148.0" stroke="black" stroke-width="1" fill="none" />
<polyline points="261.0,148.0,268.0,156.0,278.0,164.0,288.0,172.0" stroke="black" stroke-width="1" fill="none" />
<polyline points="294.0,175.0,286.0,170.0,278.0,163.0,270.0,157.0,262.0,150.0" stroke="black" stroke-width="1" fill="none" />
<polyline points="264.0,149.0,274.0,157.0,284.0,165.0,294.0,173.0,306.0,175.0,314.0,182.0" stroke="black" stroke-width="1" fill="none" />
<polyline points="308.0,207.0,300.0,202.0,292.0,197.0,284.0,191.0" stroke="black" stroke-width="1" fill="none" />
<polyline points="284.0,189.0,297.0,197.0,309.0,205.0" stroke="black" stroke-width="1" fill="none" />
<polyline points="299.0,211.0,291.0,205.0,283.0,200.0" stroke="black" stroke-width="1" fill="none" />
<polyline points="282.0,198.0,291.0,206.0,302.0,214.0" stroke="black" stroke-width="1" fill="none" />
<polyline points="293.0,230.0,301.0,230.0,309.0,230.0,317.0,230.0,325.0,231.0,333.0,232.0,338.0,229.0,346.0,230.0,354.0,232.0" stroke="black" stroke-width="1" fill="none" />
<polyline points="358.0,242.0,350.0,242.0,342.0,242.0,334.0,244.0,325.0,245.0,317.0,244.0,309.0,242.0,301.0,240.0,290.0,245.0,282.0,247.0,274.0,245.0,269.0,247.0,261.0,248.0,260.0,242.0,262.0,234.0,264.0,226.0,266.0,218.0,267.0,210.0,269.0,202.0,271.0,194.0,273.0,186.0,270.0,178.0,262.0,178.0,254.0,178.0,247.0,177.0,239.0,177.0,231.0,177.0,223.0,177.0,215.0,176.0,209.0,174.0,213.0,170.0,219.0,162.0,226.0,154.0,234.0,146.0,241.0,138.0,247.0,130.0,255.0,122.0,261.0,114.0,265.0,111.0,272.0,104.0,277.0,96.0,284.0,92.0,286.0,84.0,288.0,72.0,295.0,64.0,300.0,57.0,308.0,49.0,302.0,49.0" stroke="black" stroke-width="1" fill="none" />
<polyline points="286.0,68.0,279.0,82.0,277.0,96.0,269.0,104.0,263.0,115.0,256.0,120.0,248.0,129.0,240.0,139.0,232.0,148.0,224.0,156.0,216.0,165.0,220.0,168.0,226.0,158.0,236.0,150.0,243.0,140.0,250.0,131.0,253.0,129.0,255.0,127.0" stroke="black" stroke-width="1" fill="none" />
<polyline points="254.0,153.0,258.0,161.0,268.0,169.0,277.0,177.0,268.0,186.0,265.0,194.0,263.0,202.0,261.0,210.0,259.0,218.0,258.0,226.0,256.0,234.0,254.0,242.0,255.0,247.0,257.0,261.0,265.0,262.0,258.0,270.0,262.0,264.0,267.0,268.0" stroke="black" stroke-width="1" fill="none" />
<polyline points="272.0,251.0,269.0,259.0,266.0,264.0,263.0,272.0,262.0,280.0,260.0,288.0,256.0,296.0,251.0,304.0,240.0,312.0,232.0,322.0,219.0,328.0,216.0,336.0,213.0,345.0,214.0,354.0,224.0,354.0,228.0,362.0,223.0,364.0,221.0,372.0,221.0,380.0,220.0,388.0,220.0,396.0,220.0,404.0,221.0,412.0,222.0,420.0,216.0,428.0,214.0,435.0,212.0,438.0,217.0,446.0,217.0,450.0" stroke="black" stroke-width="1" fill="none" />
<polyline points="139.0,345.0,132.0,342.0,127.0,344.0,122.0,344.0,114.0,342.0" stroke="black" stroke-width="1" fill="none" />
<polyline points="116.0,312.0,124.0,312.0,129.0,312.0,136.0,308.0" stroke="black" stroke-width="1" fill="none" />
<polyline points="136.0,290.0,144.0,292.0,154.0,292.0" stroke="black" stroke-width="1" fill="none" />
<polyline points="178.0,289.0,170.0,289.0,162.0,288.0,154.0,287.0,146.0,287.0,138.0,286.0,130.0,285.0,122.0,284.0,114.0,283.0" stroke="black" stroke-width="1" fill="none" />
<polyline points="113.0,282.0,121.0,280.0,129.0,280.0,137.0,281.0,145.0,281.0,153.0,282.0,161.0,282.0,169.0,283.0,177.0,286.0,182.0,289.0" stroke="black" stroke-width="1" fill="none" />
<polyline points="181.0,292.0,173.0,293.0,165.0,294.0,164.0,290.0,156.0,290.0,148.0,289.0,140.0,288.0,132.0,288.0,130.0,291.0,122.0,287.0,119.0,288.0,109.0,285.0,113.0,284.0,110.0,285.0" stroke="black" stroke-width="1" fill="none" />
<polyline points="109.0,282.0,117.0,277.0,125.0,277.0,133.0,278.0,141.0,278.0,149.0,279.0,157.0,279.0,165.0,280.0,173.0,281.0,181.0,286.0" stroke="black" stroke-width="1" fill="none" />
<polyline points="205.0,260.0,199.0,261.0,191.0,258.0,183.0,255.0,175.0,251.0,167.0,246.0,159.0,246.0,151.0,246.0,140.0,252.0,132.0,249.0,130.0,251.0,122.0,249.0,106.0,249.0,95.0,254.0,87.0,253.0,79.0,253.0,71.0,252.0,63.0,251.0,55.0,253.0" stroke="black" stroke-width="1" fill="none" />
<polyline points="55.0,253.0,55.0,261.0,55.0,265.0,55.0,273.0,55.0,281.0,55.0,289.0,67.0,293.0,66.0,306.0,60.0,310.0,63.0,315.0,71.0,317.0,79.0,313.0,81.0,319.0,89.0,320.0,97.0,318.0,98.0,314.0,100.0,321.0,102.0,321.0,106.0,315.0,109.0,317.0,114.0,323.0,122.0,324.0,130.0,325.0,138.0,326.0,143.0,320.0,148.0,322.0,148.0,319.0,156.0,317.0,161.0,311.0,178.0,313.0,186.0,313.0" stroke="black" stroke-width="1" fill="none" />
<polyline points="146.0,310.0,144.0,318.0,136.0,317.0,128.0,321.0,123.0,316.0,122.0,319.0,119.0,319.0,108.0,313.0,100.0,311.0,92.0,312.0,84.0,311.0,81.0,314.0" stroke="black" stroke-width="1" fill="none" />
<polyline points="71.0,294.0,61.0,298.0,60.0,292.0,52.0,295.0,46.0,293.0,38.0,294.0,30.0,295.0,22.0,297.0,14.0,305.0" stroke="black" stroke-width="1" fill="none" />
<polyline points="17.0,309.0,25.0,310.0,30.0,310.0,39.0,312.0,44.0,306.0,44.0,313.0" stroke="black" stroke-width="1" fill="none" />
<polyline points="29.0,322.0,39.0,324.0,48.0,325.0,56.0,325.0,64.0,329.0,72.0,331.0" stroke="black" stroke-width="1" fill="none" />
<polyline points="75.0,334.0,62.0,329.0" stroke="black" stroke-width="1" fill="none" />
<polyline points="53.0,336.0,55.0,344.0,55.0,352.0,55.0,360.0,55.0,368.0,55.0,376.0,55.0,384.0,55.0,392.0,55.0,400.0,55.0,408.0,55.0,416.0,55.0,424.0,55.0,432.0,55.0,440.0,59.0,448.0,56.0,456.0,54.0,464.0,58.0,472.0,57.0,475.0,65.0,474.0,73.0,470.0,81.0,471.0" stroke="black" stroke-width="1" fill="none" />
<polyline points="73.0,418.0,72.0,410.0,73.0,404.0,70.0,396.0,69.0,393.0" stroke="black" stroke-width="1" fill="none" />
<polyline points="71.0,380.0,67.0,372.0,72.0,368.0,67.0,360.0,67.0,355.0" stroke="black" stroke-width="1" fill="none" />
<polyline points="67.0,349.0,68.0,341.0,67.0,349.0,65.0,349.0,65.0,357.0,65.0,365.0,65.0,373.0,65.0,381.0,65.0,389.0,65.0,397.0,65.0,405.0,65.0,413.0,65.0,421.0,65.0,429.0,67.0,439.0,71.0,447.0,67.0,455.0,58.0,461.0,59.0,469.0,63.0,459.0" stroke="black" stroke-width="1" fill="none" />
<polyline points="64.0,463.0,68.0,468.0,60.0,469.0,62.0,467.0,62.0,459.0,71.0,451.0,64.0,440.0,67.0,430.0,69.0,425.0,72.0,437.0,63.0,446.0,63.0,447.0,59.0,439.0,63.0,432.0,59.0,429.0,58.0,421.0,58.0,413.0,58.0,405.0,58.0,397.0,58.0,389.0,58.0,381.0,58.0,373.0,58.0,365.0,58.0,357.0,58.0,349.0,58.0,341.0,62.0,340.0,59.0,346.0" stroke="black" stroke-width="1" fill="none" />
<polyline points="70.0,345.0,74.0,348.0,73.0,356.0,75.0,359.0,70.0,362.0,74.0,370.0,74.0,374.0,73.0,382.0,67.0,386.0,70.0,387.0,73.0,395.0,67.0,399.0,67.0,406.0,68.0,414.0,70.0,421.0,67.0,426.0,70.0,426.0" stroke="black" stroke-width="1" fill="none" />
<polyline points="77.0,352.0,79.0,344.0" stroke="black" stroke-width="1" fill="none" />
<polyline points="113.0,287.0,121.0,289.0" stroke="black" stroke-width="1" fill="none" />
<polyline points="109.0,246.0,106.0,251.0,96.0,251.0,88.0,249.0" stroke="black" stroke-width="1" fill="none" />
<polyline points="76.0,256.0,68.0,254.0" stroke="black" stroke-width="1" fill="none" />
<polyline points="57.0,254.0,65.0,262.0,71.0,270.0,73.0,277.0" stroke="black" stroke-width="1" fill="none" />
<polyline points="52.0,273.0,53.0,281.0,52.0,289.0,58.0,299.0,56.0,306.0,51.0,311.0,55.0,314.0,63.0,310.0,63.0,307.0,70.0,309.0,78.0,310.0,77.0,301.0,87.0,301.0,90.0,316.0" stroke="black" stroke-width="1" fill="none" />
<polyline points="80.0,256.0,69.0,261.0,64.0,257.0,56.0,253.0" stroke="black" stroke-width="1" fill="none" />
<polyline points="52.0,245.0,60.0,248.0,68.0,248.0,76.0,246.0,85.0,240.0,93.0,239.0,101.0,239.0,109.0,238.0" stroke="black" stroke-width="1" fill="none" />
<polyline points="107.0,241.0,99.0,241.0,90.0,243.0,82.0,244.0,74.0,240.0,66.0,239.0,58.0,238.0,50.0,237.0" stroke="black" stroke-width="1" fill="none" />
<polyline points="52.0,240.0,60.0,242.0,68.0,243.0,76.0,244.0,80.0,241.0,84.0,248.0,84.0,253.0,92.0,257.0,105.0,254.0,113.0,255.0,121.0,256.0,129.0,257.0,137.0,258.0,139.0,248.0,145.0,254.0,153.0,257.0,156.0,253.0,164.0,256.0,172.0,258.0,181.0,258.0,192.0,256.0,200.0,255.0,209.0,256.0" stroke="black" stroke-width="1" fill="none" />
<polyline points="214.0,242.0,206.0,241.0,198.0,241.0,190.0,241.0,182.0,241.0,174.0,240.0,166.0,239.0,158.0,239.0,150.0,238.0" stroke="black" stroke-width="1" fill="none" />
<polyline points="144.0,236.0,152.0,236.0,160.0,236.0,168.0,232.0,176.0,233.0,184.0,233.0,199.0,228.0,211.0,228.0" stroke="black" stroke-width="1" fill="none" />
<polyline points="210.0,227.0,202.0,223.0" stroke="black" stroke-width="1" fill="none" />
<polyline points="201.0,221.0,207.0,229.0,220.0,237.0" stroke="black" stroke-width="1" fill="none" />
<polyline points="221.0,221.0,213.0,217.0" stroke="black" stroke-width="1" fill="none" />
<polyline points="213.0,217.0,216.0,218.0" stroke="black" stroke-width="1" fill="none" />
<polyline points="217.0,222.0,209.0,224.0,201.0,221.0" stroke="black" stroke-width="1" fill="none" />
<polyline points="192.0,231.0,200.0,231.0,208.0,233.0,216.0,233.0,224.0,236.0" stroke="black" stroke-width="1" fill="none" />
<polyline points="209.0,230.0,201.0,228.0,193.0,227.0,185.0,228.0,177.0,227.0,169.0,228.0,161.0,227.0,153.0,226.0,145.0,226.0,144.0,229.0" stroke="black" stroke-width="1" fill="none" />
<polyline points="158.0,227.0,143.0,235.0,147.0,232.0,155.0,234.0,154.0,231.0,159.0,233.0,167.0,237.0,175.0,237.0,183.0,237.0,191.0,237.0,199.0,238.0,207.0,239.0,215.0,239.0" stroke="black" stroke-width="1" fill="none" />
<polyline points="190.0,251.0,207.0,255.0,216.0,269.0,221.0,267.0,229.0,267.0,237.0,268.0,245.0,269.0,253.0,270.0" stroke="black" stroke-width="1" fill="none" />
<polyline points="264.0,242.0,272.0,244.0,277.0,244.0,280.0,241.0,288.0,242.0,296.0,244.0" stroke="black" stroke-width="1" fill="none" />
<polyline points="294.0,231.0,302.0,232.0,310.0,234.0,318.0,233.0,326.0,234.0,334.0,236.0,342.0,237.0,350.0,239.0" stroke="black" stroke-width="1" fill="none" />
<polyline points="349.0,236.0,345.0,234.0,342.0,232.0,334.0,234.0,324.0,239.0,316.0,238.0,308.0,236.0,300.0,234.0,292.0,233.0,284.0,232.0,276.0,234.0,268.0,233.0" stroke="black" stroke-width="1" fill="none" />
<polyline points="266.0,228.0,274.0,228.0,282.0,227.0,290.0,227.0,298.0,227.0,306.0,226.0,314.0,226.0,322.0,226.0,330.0,226.0,338.0,225.0,346.0,220.0,346.0,223.0" stroke="black" stroke-width="1" fill="none" />
<polyline points="344.0,216.0,336.0,218.0,328.0,221.0,320.0,223.0,312.0,224.0,304.0,224.0,296.0,224.0,288.0,224.0,280.0,225.0,272.0,225.0,264.0,224.0" stroke="black" stroke-width="1" fill="none" />
<polyline points="270.0,213.0,278.0,207.0,286.0,210.0" stroke="black" stroke-width="1" fill="none" />
<polyline points="286.0,213.0,278.0,211.0" stroke="black" stroke-width="1" fill="none" />
<polyline points="275.0,211.0,283.0,217.0" stroke="black" stroke-width="1" fill="none" />
<polyline points="285.0,213.0,274.0,213.0" stroke="black" stroke-width="1" fill="none" />
<polyline points="273.0,212.0,276.0,212.0" stroke="black" stroke-width="1" fill="none" />
<polyline points="274.0,209.0,271.0,217.0,274.0,219.0" stroke="black" stroke-width="1" fill="none" />
<polyline points="286.0,216.0,284.0,215.0,278.0,207.0" stroke="black" stroke-width="1" fill="none" />
<polyline points="281.0,208.0,291.0,216.0" stroke="black" stroke-width="1" fill="none" />
<polyline points="306.0,213.0,298.0,207.0,290.0,201.0,282.0,198.0" stroke="black" stroke-width="1" fill="none" />
<polyline points="285.0,199.0,297.0,207.0" stroke="black" stroke-width="1" fill="none" />
<polyline points="306.0,202.0,298.0,197.0,290.0,192.0,282.0,188.0" stroke="black" stroke-width="1" fill="none" />
<polyline points="282.0,188.0,290.0,196.0,303.0,204.0" stroke="black" stroke-width="1" fill="none" />
<polyline points="278.0,177.0,270.0,170.0,262.0,164.0,254.0,157.0" stroke="black" stroke-width="1" fill="none" />
<polyline points="255.0,155.0,264.0,163.0,274.0,171.0" stroke="black" stroke-width="1" fill="none" />
<polyline points="277.0,173.0,269.0,166.0,261.0,159.0,253.0,154.0" stroke="black" stroke-width="1" fill="none" />
<polyline points="246.0,164.0,254.0,170.0" stroke="black" stroke-width="1" fill="none" />
<polyline points="255.0,174.0,247.0,167.0" stroke="black" stroke-width="1" fill="none" />
<polyline points="252.0,175.0,244.0,171.0,236.0,163.0" stroke="black" stroke-width="1" fill="none" />
<polyline points="235.0,161.0,241.0,169.0" stroke="black" stroke-width="1" fill="none" />
<polyline points="236.0,173.0,228.0,169.0" stroke="black" stroke-width="1" fill="none" />
<polyline points="227.0,168.0,216.0,169.0" stroke="black" stroke-width="1" fill="none" />
<polyline points="227.0,166.0,235.0,170.0" stroke="black" stroke-width="1" fill="none" />
<polyline points="239.0,175.0,229.0,167.0" stroke="black" stroke-width="1" fill="none" />
<polyline points="235.0,161.0,243.0,167.0,247.0,167.0,255.0,175.0" stroke="black" stroke-width="1" fill="none" />
<polyline points="246.0,170.0,238.0,162.0" stroke="black" stroke-width="1" fill="none" />
<polyline points="220.0,147.0,213.0,155.0,219.0,151.0,227.0,149.0,235.0,140.0,243.0,131.0,251.0,122.0,259.0,112.0,267.0,103.0,275.0,93.0,283.0,83.0,291.0,73.0,299.0,64.0,307.0,54.0,315.0,46.0,323.0,37.0" stroke="black" stroke-width="1" fill="none" />
<polyline points="321.0,30.0,318.0,38.0,313.0,38.0,303.0,48.0,295.0,59.0,290.0,67.0,285.0,70.0,279.0,78.0,278.0,83.0,277.0,84.0,271.0,88.0,270.0,93.0,265.0,96.0,264.0,99.0,257.0,107.0,254.0,107.0,251.0,115.0,246.0,118.0,246.0,121.0,241.0,127.0,235.0,135.0,228.0,143.0,221.0,151.0,214.0,159.0,207.0,167.0,204.0,167.0" stroke="black" stroke-width="1" fill="none" />
<polyline points="206.0,163.0,201.0,171.0" stroke="black" stroke-width="1" fill="none" />
<polyline points="134.0,177.0,131.0,185.0,130.0,193.0,128.0,201.0,127.0,209.0,125.0,217.0,124.0,225.0,121.0,233.0,120.0,241.0,120.0,251.0,130.0,252.0,143.0,254.0,159.0,254.0,176.0,255.0,181.0,251.0,190.0,251.0,198.0,255.0,204.0,252.0,212.0,255.0,222.0,261.0,230.0,258.0,238.0,258.0,246.0,257.0,254.0,257.0,266.0,257.0" stroke="black" stroke-width="1" fill="none" />
<polyline points="251.0,247.0,243.0,247.0,235.0,248.0,227.0,248.0,219.0,248.0,211.0,247.0,203.0,246.0,195.0,245.0,187.0,245.0,179.0,245.0,171.0,244.0,163.0,243.0,155.0,243.0,147.0,243.0,139.0,243.0,131.0,242.0,123.0,242.0,117.0,247.0,109.0,244.0,101.0,247.0,93.0,248.0,82.0,249.0,74.0,248.0,64.0,245.0,56.0,243.0,52.0,253.0,41.0,242.0" stroke="black" stroke-width="1" fill="none" />
<polyline points="40.0,233.0,48.0,231.0,56.0,230.0,64.0,230.0,72.0,229.0,80.0,229.0,88.0,228.0,96.0,227.0,104.0,227.0,112.0,226.0,120.0,225.0" stroke="black" stroke-width="1" fill="none" />
<polyline points="112.0,230.0,104.0,231.0,96.0,231.0,88.0,231.0,80.0,231.0,72.0,232.0,64.0,232.0,56.0,233.0,48.0,233.0" stroke="black" stroke-width="1" fill="none" />
<polyline points="47.0,231.0,50.0,237.0,45.0,241.0,48.0,249.0,52.0,255.0,47.0,258.0,48.0,269.0,38.0,280.0" stroke="black" stroke-width="1" fill="none" />
<polyline points="40.0,283.0,48.0,275.0,51.0,267.0,47.0,258.0" stroke="black" stroke-width="1" fill="none" />
<polyline points="43.0,268.0,35.0,279.0,27.0,284.0,19.0,285.0,11.0,287.0,3.0,294.0,6.0,295.0,9.0,295.0" stroke="black" stroke-width="1" fill="none" />
<polyline points="11.0,297.0,19.0,292.0,27.0,289.0,35.0,286.0" stroke="black" stroke-width="1" fill="none" />
<polyline points="32.0,297.0,34.0,301.0,42.0,301.0,50.0,302.0,58.0,304.0,66.0,304.0,74.0,305.0,82.0,307.0,90.0,308.0,98.0,307.0,103.0,310.0,111.0,310.0,117.0,317.0,130.0,319.0,138.0,322.0,142.0,315.0" stroke="black" stroke-width="1" fill="none" />
<polyline points="79.0,330.0,71.0,328.0,58.0,330.0,50.0,329.0,42.0,327.0,40.0,324.0,32.0,322.0,24.0,324.0,17.0,316.0,19.0,308.0" stroke="black" stroke-width="1" fill="none" />
<polyline points="14.0,313.0,14.0,305.0,19.0,297.0" stroke="black" stroke-width="1" fill="none" />
<polyline points="13.0,293.0,11.0,301.0,11.0,309.0,8.0,315.0,15.0,325.0,19.0,328.0,27.0,329.0,35.0,330.0,43.0,331.0,51.0,333.0,59.0,334.0,67.0,335.0,75.0,337.0,83.0,339.0,91.0,341.0,99.0,343.0,107.0,344.0,115.0,346.0,123.0,347.0,131.0,348.0,139.0,348.0,147.0,347.0,150.0,350.0,158.0,351.0,162.0,351.0,170.0,353.0,178.0,354.0,184.0,354.0,192.0,356.0,195.0,362.0,200.0,357.0,208.0,360.0,210.0,362.0,215.0,370.0" stroke="black" stroke-width="1" fill="none" />
<polyline points="314.0,359.0,310.0,367.0,307.0,375.0,304.0,383.0,301.0,391.0,299.0,399.0,297.0,407.0,295.0,415.0,294.0,423.0,294.0,431.0,293.0,439.0,293.0,447.0,293.0,455.0,293.0,463.0,292.0,471.0,292.0,479.0,292.0,487.0,292.0,495.0,292.0,503.0,293.0,511.0,292.0,519.0,288.0,527.0,285.0,535.0,281.0,546.0,284.0,549.0,284.0,560.0,285.0,560.0,293.0,560.0,301.0,557.0" stroke="black" stroke-width="1" fill="none" />
<polyline points="403.0,349.0,405.0,341.0,396.0,338.0,388.0,338.0,380.0,339.0,372.0,339.0,364.0,340.0,356.0,340.0,348.0,341.0,340.0,341.0,332.0,342.0,324.0,343.0,316.0,343.0,308.0,344.0,300.0,344.0,292.0,345.0,284.0,346.0,276.0,347.0,268.0,347.0,260.0,348.0,252.0,349.0,244.0,350.0,236.0,350.0,228.0,350.0,225.0,355.0,217.0,356.0,215.0,361.0,210.0,354.0,209.0,348.0,201.0,348.0,193.0,347.0,185.0,345.0,177.0,344.0,169.0,343.0,161.0,342.0,153.0,341.0,145.0,339.0,137.0,338.0,129.0,337.0,121.0,336.0,113.0,334.0,105.0,333.0,97.0,332.0,89.0,333.0,84.0,332.0,80.0,335.0,75.0,341.0,67.0,340.0,59.0,337.0,49.0,335.0,41.0,334.0,33.0,332.0,25.0,331.0,17.0,330.0,9.0,328.0,7.0,323.0,2.0,315.0,1.0,307.0,2.0,299.0,5.0,291.0,16.0,290.0,8.0,293.0,4.0,310.0" stroke="black" stroke-width="1" fill="none" />
<polyline points="23.0,289.0,14.0,297.0,9.0,297.0,8.0,305.0,3.0,306.0,5.0,314.0,10.0,322.0,17.0,320.0,25.0,319.0,33.0,320.0,41.0,321.0,49.0,322.0,57.0,323.0,65.0,325.0,73.0,326.0,81.0,327.0,88.0,335.0,93.0,334.0,101.0,336.0,109.0,340.0,110.0,336.0,118.0,337.0,127.0,339.0,135.0,341.0,143.0,342.0,151.0,345.0,159.0,344.0,167.0,346.0,175.0,346.0,183.0,348.0,191.0,350.0,199.0,350.0,207.0,351.0,216.0,352.0,222.0,359.0,230.0,366.0,238.0,366.0,246.0,364.0,256.0,363.0,264.0,362.0,273.0,362.0,281.0,361.0,289.0,360.0,297.0,359.0,305.0,360.0" stroke="black" stroke-width="1" fill="none" />
<polyline points="257.0,265.0,249.0,265.0,241.0,265.0,233.0,264.0,225.0,263.0,217.0,264.0,209.0,266.0,201.0,265.0,193.0,264.0,185.0,263.0,177.0,263.0,169.0,262.0,161.0,261.0,153.0,260.0,145.0,259.0,139.0,253.0,133.0,245.0" stroke="black" stroke-width="1" fill="none" />
<polyline points="171.0,232.0,168.0,235.0,176.0,235.0,184.0,235.0,192.0,235.0,200.0,235.0,208.0,235.0,216.0,236.0,224.0,239.0" stroke="black" stroke-width="1" fill="none" />
<polyline points="132.0,180.0,140.0,177.0,148.0,177.0,156.0,178.0,164.0,178.0,172.0,178.0,181.0,175.0,189.0,176.0,197.0,170.0,205.0,160.0,213.0,150.0,221.0,142.0,229.0,132.0,237.0,122.0,245.0,112.0,253.0,102.0,261.0,93.0,269.0,84.0,277.0,75.0,285.0,65.0,293.0,56.0,301.0,46.0,309.0,38.0,317.0,29.0,325.0,21.0,333.0,21.0" stroke="black" stroke-width="1" fill="none" />
<polyline points="326.0,23.0,325.0,31.0,328.0,32.0,320.0,40.0,313.0,48.0,305.0,56.0,299.0,64.0,292.0,72.0,286.0,80.0,279.0,88.0,273.0,96.0,266.0,104.0,259.0,112.0,253.0,120.0,246.0,128.0,239.0,136.0,232.0,144.0,224.0,152.0,217.0,160.0,210.0,168.0,200.0,176.0,208.0,171.0,216.0,161.0,217.0,150.0,229.0,137.0" stroke="black" stroke-width="1" fill="none" />
<polyline points="306.0,86.0,309.0,94.0,312.0,102.0,316.0,110.0,318.0,119.0,322.0,125.0,326.0,133.0,329.0,141.0,330.0,155.0,333.0,163.0,338.0,171.0,344.0,175.0,347.0,183.0,354.0,191.0,358.0,199.0,361.0,207.0,364.0,215.0,367.0,223.0,369.0,229.0,372.0,240.0,369.0,241.0" stroke="black" stroke-width="1" fill="none" />
<polyline points="351.0,194.0,354.0,202.0,357.0,210.0,360.0,218.0,364.0,226.0,368.0,234.0,370.0,236.0,378.0,235.0,386.0,233.0,389.0,227.0,397.0,229.0,402.0,226.0,410.0,227.0,411.0,230.0,423.0,234.0,431.0,233.0,439.0,233.0,447.0,232.0,455.0,232.0,463.0,232.0,471.0,232.0,479.0,231.0,487.0,230.0,495.0,229.0,503.0,228.0" stroke="black" stroke-width="1" fill="none" />
<polyline points="511.0,229.0,510.0,237.0,510.0,245.0,510.0,253.0,510.0,261.0,510.0,269.0,510.0,277.0,510.0,285.0,510.0,293.0,510.0,301.0,509.0,309.0,506.0,317.0,500.0,325.0,497.0,325.0,492.0,330.0,479.0,338.0,481.0,344.0,484.0,347.0,482.0,356.0,482.0,364.0,483.0,372.0,483.0,380.0,484.0,388.0,484.0,396.0,484.0,404.0,484.0,412.0,484.0,420.0,484.0,428.0,490.0,436.0,493.0,446.0,492.0,454.0,484.0,457.0,488.0,465.0,494.0,472.0,499.0,476.0,501.0,467.0,509.0,466.0" stroke="black" stroke-width="1" fill="none" />
<polyline points="480.0,227.0,480.0,225.0,472.0,225.0,464.0,225.0,456.0,225.0,448.0,226.0,440.0,225.0,432.0,226.0,426.0,227.0,425.0,229.0,420.0,226.0,416.0,234.0,408.0,235.0,400.0,236.0,392.0,237.0,384.0,239.0,382.0,243.0,379.0,238.0,380.0,229.0,374.0,225.0,369.0,216.0,367.0,208.0,378.0,200.0,389.0,192.0,400.0,184.0,405.0,184.0,412.0,176.0,418.0,168.0,424.0,160.0,429.0,152.0,435.0,144.0,440.0,136.0,446.0,128.0,450.0,120.0,455.0,112.0,462.0,104.0,464.0,96.0,454.0,100.0,446.0,99.0,438.0,97.0,430.0,96.0,422.0,94.0,417.0,92.0,410.0,85.0,402.0,79.0,394.0,73.0,386.0,65.0,378.0,53.0,370.0,31.0" stroke="black" stroke-width="1" fill="none" />
<polyline points="376.0,34.0,384.0,54.0,392.0,67.0,400.0,73.0,408.0,78.0,416.0,82.0,424.0,86.0,432.0,88.0,440.0,90.0,448.0,92.0,456.0,94.0,464.0,95.0" stroke="black" stroke-width="1" fill="none" />
<polyline points="458.0,103.0,451.0,111.0,445.0,119.0,439.0,127.0,433.0,135.0,428.0,143.0,422.0,151.0,416.0,159.0,409.0,167.0,401.0,175.0,391.0,183.0,380.0,193.0,384.0,190.0,392.0,182.0,400.0,176.0,408.0,168.0,416.0,159.0,424.0,148.0,432.0,137.0,440.0,125.0,448.0,115.0,456.0,105.0" stroke="black" stroke-width="1" fill="none" />
<polyline points="446.0,123.0,440.0,131.0,440.0,131.0" stroke="black" stroke-width="1" fill="none" />
<polyline points="414.0,88.0,402.0,80.0,392.0,72.0,383.0,64.0,378.0,56.0,376.0,48.0,373.0,40.0,370.0,32.0,368.0,24.0,366.0,16.0,370.0,15.0,368.0,2.0,360.0,2.0,352.0,2.0,344.0,1.0,336.0,1.0,328.0,2.0,320.0,1.0,312.0,7.0,304.0,17.0,296.0,26.0,288.0,36.0,280.0,45.0,272.0,54.0,264.0,62.0,256.0,72.0,248.0,81.0,240.0,91.0,232.0,100.0,224.0,108.0,216.0,116.0,208.0,125.0,200.0,134.0,192.0,143.0,184.0,152.0,176.0,161.0,168.0,169.0,161.0,173.0,168.0,165.0,176.0,157.0,183.0,149.0,190.0,141.0,197.0,133.0,204.0,125.0,211.0,117.0,220.0,109.0,227.0,101.0,234.0,93.0,241.0,85.0,248.0,77.0,255.0,69.0,262.0,61.0,269.0,53.0,276.0,45.0,283.0,37.0,289.0,29.0,296.0,21.0,304.0,13.0,310.0,5.0,314.0,2.0,306.0,10.0,298.0,19.0,290.0,28.0,282.0,38.0,274.0,47.0,266.0,56.0,258.0,65.0,250.0,75.0,242.0,84.0,234.0,93.0,226.0,102.0,218.0,111.0,210.0,118.0,202.0,127.0,194.0,137.0,186.0,146.0,178.0,155.0,170.0,163.0,162.0,172.0,154.0,175.0,146.0,175.0,138.0,175.0,130.0,178.0" stroke="black" stroke-width="1" fill="none" />
<polyline points="132.0,175.0,129.0,183.0,127.0,191.0,126.0,199.0,124.0,207.0,123.0,215.0,121.0,223.0" stroke="black" stroke-width="1" fill="none" />
<polyline points="43.0,230.0,40.0,238.0,42.0,246.0,44.0,254.0,44.0,262.0,43.0,270.0,36.0,278.0,38.0,285.0,46.0,277.0" stroke="black" stroke-width="1" fill="none" />
<polyline points="308.0,85.0,311.0,93.0,315.0,101.0,318.0,109.0,322.0,117.0,325.0,125.0,329.0,133.0,332.0,141.0,335.0,149.0,336.0,157.0,339.0,164.0,340.0,172.0,348.0,178.0,356.0,186.0,359.0,194.0,363.0,202.0,372.0,204.0,380.0,199.0,388.0,193.0,396.0,187.0,404.0,180.0,412.0,175.0,418.0,164.0,426.0,157.0,434.0,145.0,442.0,133.0,450.0,119.0,458.0,108.0" stroke="black" stroke-width="1" fill="none" />
<polyline points="385.0,159.0,387.0,167.0,390.0,175.0,391.0,177.0" stroke="black" stroke-width="1" fill="none" />
<polyline points="366.0,195.0,363.0,187.0,360.0,179.0" stroke="black" stroke-width="1" fill="none" />
<polyline points="358.0,178.0,360.0,186.0,363.0,194.0" stroke="black" stroke-width="1" fill="none" />
<polyline points="264.0,180.0,256.0,180.0,248.0,180.0,240.0,180.0,232.0,180.0,224.0,180.0,216.0,180.0,208.0,180.0,200.0,179.0,195.0,173.0,201.0,165.0,208.0,157.0,214.0,149.0,222.0,141.0,228.0,133.0,235.0,125.0,241.0,117.0,248.0,109.0,254.0,101.0,261.0,93.0,268.0,85.0,275.0,77.0,282.0,69.0,289.0,61.0,296.0,53.0,302.0,45.0,310.0,37.0,317.0,29.0,325.0,21.0" stroke="black" stroke-width="1" fill="none" />
<polyline points="322.0,12.0,330.0,12.0,338.0,12.0,346.0,12.0,357.0,6.0" stroke="black" stroke-width="1" fill="none" />
<polyline points="327.0,23.0,321.0,33.0,314.0,42.0,306.0,51.0,301.0,52.0,297.0,61.0,291.0,65.0,283.0,74.0,275.0,81.0,271.0,91.0,265.0,93.0,258.0,101.0,255.0,104.0,250.0,110.0,245.0,119.0,240.0,128.0,232.0,139.0,224.0,148.0,216.0,157.0,209.0,160.0,204.0,171.0,196.0,176.0,188.0,178.0,180.0,178.0,173.0,176.0,179.0,168.0,186.0,160.0,194.0,152.0,201.0,144.0,207.0,136.0,214.0,128.0,222.0,120.0,230.0,112.0,238.0,104.0,245.0,96.0,252.0,88.0,258.0,80.0,265.0,72.0,272.0,64.0,280.0,56.0,287.0,48.0,294.0,40.0,300.0,32.0,307.0,24.0,313.0,16.0,322.0,8.0" stroke="black" stroke-width="1" fill="none" />
<polyline points="323.0,9.0,315.0,14.0,307.0,24.0,299.0,33.0,291.0,43.0,283.0,52.0,275.0,61.0,267.0,69.0,259.0,79.0,251.0,89.0,243.0,98.0,235.0,107.0,227.0,116.0,219.0,123.0,211.0,132.0,203.0,141.0,195.0,150.0,187.0,159.0,179.0,168.0,171.0,173.0,178.0,165.0,185.0,157.0,193.0,149.0,200.0,141.0,206.0,133.0,214.0,125.0,221.0,117.0,229.0,109.0,237.0,101.0,243.0,93.0,251.0,85.0,257.0,77.0,264.0,69.0,271.0,61.0,278.0,53.0,285.0,45.0,292.0,37.0,299.0,29.0,306.0,21.0,312.0,13.0,318.0,5.0" stroke="black" stroke-width="1" fill="none" />
<polyline points="0.0,298.0,112.0,298.0" stroke="black" stroke-width="1" fill="none" />
<polyline points="112.0,304.0,104.0,312.0" stroke="black" stroke-width="1" fill="none" />
<polyline points="120.0,312.0,128.0,304.0" stroke="black" stroke-width="1" fill="none" />
<polyline points="120.0,304.0,112.0,312.0" stroke="black" stroke-width="1" fill="none" />
<polyline points="128.0,312.0,136.0,304.0" stroke="black" stroke-width="1" fill="none" />
<polyline points="160.0,322.0,232.0,322.0" stroke="black" stroke-width="1" fill="none" />
<polyline points="224.0,312.0,216.0,320.0" stroke="black" stroke-width="1" fill="none" />
<polyline points="216.0,312.0,208.0,320.0" stroke="black" stroke-width="1" fill="none" />
<polyline points="208.0,312.0,200.0,320.0" stroke="black" stroke-width="1" fill="none" />
<polyline points="200.0,312.0,192.0,320.0" stroke="black" stroke-width="1" fill="none" />
<polyline points="192.0,318.0,200.0,318.0" stroke="black" stroke-width="1" fill="none" />
<polyline points="192.0,312.0,184.0,320.0" stroke="black" stroke-width="1" fill="none" />
<polyline points="184.0,312.0,176.0,320.0" stroke="black" stroke-width="1" fill="none" />
<polyline points="176.0,312.0,168.0,320.0" stroke="black" stroke-width="1" fill="none" />
<polyline points="192.0,330.0,224.0,330.0" stroke="black" stroke-width="1" fill="none" />
<polyline points="224.0,338.0,216.0,338.0" stroke="black" stroke-width="1" fill="none" />
<polyline points="208.0,346.0,224.0,346.0" stroke="black" stroke-width="1" fill="none" />
<polyline points="224.0,354.0,232.0,354.0" stroke="black" stroke-width="1" fill="none" />
<polyline points="248.0,362.0,256.0,362.0" stroke="black" stroke-width="1" fill="none" />
<polyline points="264.0,370.0,272.0,370.0" stroke="black" stroke-width="1" fill="none" />
<polyline points="272.0,378.0,264.0,378.0" stroke="black" stroke-width="1" fill="none" />
<polyline points="264.0,386.0,256.0,386.0" stroke="black" stroke-width="1" fill="none" />
<polyline points="248.0,386.0,240.0,386.0" stroke="black" stroke-width="1" fill="none" />
<polyline points="240.0,378.0,248.0,378.0" stroke="black" stroke-width="1" fill="none" />
<polyline points="240.0,394.0,232.0,394.0" stroke="black" stroke-width="1" fill="none" />
<polyline points="224.0,402.0,216.0,402.0" stroke="black" stroke-width="1" fill="none" />
<polyline points="216.0,394.0,224.0,394.0" stroke="black" stroke-width="1" fill="none" />
<polyline points="224.0,386.0,216.0,386.0" stroke="black" stroke-width="1" fill="none" />
<polyline points="208.0,378.0,224.0,378.0" stroke="black" stroke-width="1" fill="none" />
<polyline points="224.0,370.0,208.0,370.0" stroke="black" stroke-width="1" fill="none" />
<polyline points="200.0,362.0,224.0,362.0" stroke="black" stroke-width="1" fill="none" />
<polyline points="192.0,378.0,184.0,378.0" stroke="black" stroke-width="1" fill="none" />
<polyline points="184.0,370.0,192.0,370.0" stroke="black" stroke-width="1" fill="none" />
<polyline points="192.0,362.0,184.0,362.0" stroke="black" stroke-width="1" fill="none" />
<polyline points="176.0,370.0,168.0,370.0" stroke="black" stroke-width="1" fill="none" />
<polyline points="168.0,362.0,176.0,362.0" stroke="black" stroke-width="1" fill="none" />
<polyline points="168.0,354.0,208.0,354.0" stroke="black" stroke-width="1" fill="none" />
<polyline points="192.0,386.0,184.0,386.0" stroke="black" stroke-width="1" fill="none" />
<polyline points="184.0,394.0,192.0,394.0" stroke="black" stroke-width="1" fill="none" />
<polyline points="192.0,402.0,184.0,402.0" stroke="black" stroke-width="1" fill="none" />
<polyline points="184.0,410.0,192.0,410.0" stroke="black" stroke-width="1" fill="none" />
<polyline points="192.0,418.0,184.0,418.0" stroke="black" stroke-width="1" fill="none" />
<polyline points="184.0,426.0,192.0,426.0" stroke="black" stroke-width="1" fill="none" />
<polyline points="192.0,434.0,184.0,434.0" stroke="black" stroke-width="1" fill="none" />
<polyline points="176.0,442.0,192.0,442.0" stroke="black" stroke-width="1" fill="none" />
<polyline points="192.0,448.0,184.0,456.0" stroke="black" stroke-width="1" fill="none" />
<polyline points="192.0,456.0,184.0,464.0" stroke="black" stroke-width="1" fill="none" />
<polyline points="176.0,466.0,232.0,466.0" stroke="black" stroke-width="1" fill="none" />
<polyline points="232.0,464.0,224.0,472.0" stroke="black" stroke-width="1" fill="none" />
<polyline points="224.0,474.0,232.0,474.0" stroke="black" stroke-width="1" fill="none" />
<polyline points="232.0,482.0,224.0,482.0" stroke="black" stroke-width="1" fill="none" />
<polyline points="216.0,490.0,232.0,490.0" stroke="black" stroke-width="1" fill="none" />
<polyline points="208.0,472.0,216.0,464.0" stroke="black" stroke-width="1" fill="none" />
<polyline points="208.0,458.0,240.0,458.0" stroke="black" stroke-width="1" fill="none" />
<polyline points="240.0,450.0,232.0,450.0" stroke="black" stroke-width="1" fill="none" />
<polyline points="224.0,442.0,216.0,442.0" stroke="black" stroke-width="1" fill="none" />
<polyline points="216.0,434.0,224.0,434.0" stroke="black" stroke-width="1" fill="none" />
<polyline points="216.0,432.0,224.0,424.0" stroke="black" stroke-width="1" fill="none" />
<polyline points="224.0,426.0,216.0,426.0" stroke="black" stroke-width="1" fill="none" />
<polyline points="208.0,418.0,232.0,418.0" stroke="black" stroke-width="1" fill="none" />
<polyline points="240.0,434.0,248.0,434.0" stroke="black" stroke-width="1" fill="none" />
<polyline points="224.0,450.0,208.0,450.0" stroke="black" stroke-width="1" fill="none" />
<polyline points="208.0,474.0,200.0,474.0" stroke="black" stroke-width="1" fill="none" />
<polyline points="176.0,480.0,168.0,488.0" stroke="black" stroke-width="1" fill="none" />
<polyline points="168.0,480.0,160.0,488.0" stroke="black" stroke-width="1" fill="none" />
<polyline points="152.0,490.0,208.0,490.0" stroke="black" stroke-width="1" fill="none" />
<polyline points="192.0,450.0,176.0,450.0" stroke="black" stroke-width="1" fill="none" />
<polyline points="176.0,434.0,168.0,434.0" stroke="black" stroke-width="1" fill="none" />
<polyline points="168.0,426.0,176.0,426.0" stroke="black" stroke-width="1" fill="none" />
<polyline points="176.0,418.0,168.0,418.0" stroke="black" stroke-width="1" fill="none" />
<polyline points="168.0,410.0,176.0,410.0" stroke="black" stroke-width="1" fill="none" />
<polyline points="176.0,402.0,168.0,402.0" stroke="black" stroke-width="1" fill="none" />
<polyline points="168.0,394.0,176.0,394.0" stroke="black" stroke-width="1" fill="none" />
<polyline points="176.0,386.0,168.0,386.0" stroke="black" stroke-width="1" fill="none" />
<polyline points="168.0,378.0,176.0,378.0" stroke="black" stroke-width="1" fill="none" />
<polyline points="208.0,410.0,224.0,410.0" stroke="black" stroke-width="1" fill="none" />
<polyline points="288.0,418.0,296.0,418.0" stroke="black" stroke-width="1" fill="none" />
<polyline points="296.0,386.0,304.0,386.0" stroke="black" stroke-width="1" fill="none" />
<polyline points="304.0,378.0,296.0,378.0" stroke="black" stroke-width="1" fill="none" />
<polyline points="304.0,370.0,312.0,370.0" stroke="black" stroke-width="1" fill="none" />
<polyline points="312.0,362.0,304.0,362.0" stroke="black" stroke-width="1" fill="none" />
<polyline points="296.0,354.0,312.0,354.0" stroke="black" stroke-width="1" fill="none" />
<polyline points="304.0,346.0,296.0,346.0" stroke="black" stroke-width="1" fill="none" />
<polyline points="272.0,346.0,264.0,346.0" stroke="black" stroke-width="1" fill="none" />
<polyline points="256.0,306.0,248.0,306.0" stroke="black" stroke-width="1" fill="none" />
<polyline points="256.0,298.0,264.0,298.0" stroke="black" stroke-width="1" fill="none" />
<polyline points="264.0,290.0,256.0,290.0" stroke="black" stroke-width="1" fill="none" />
<polyline points="264.0,282.0,272.0,282.0" stroke="black" stroke-width="1" fill="none" />
<polyline points="272.0,274.0,264.0,274.0" stroke="black" stroke-width="1" fill="none" />
<polyline points="256.0,258.0,272.0,258.0" stroke="black" stroke-width="1" fill="none" />
<polyline points="264.0,256.0,272.0,248.0" stroke="black" stroke-width="1" fill="none" />
<polyline points="264.0,248.0,256.0,256.0" stroke="black" stroke-width="1" fill="none" />
<polyline points="248.0,242.0,344.0,242.0" stroke="black" stroke-width="1" fill="none" />
<polyline points="352.0,242.0,408.0,242.0" stroke="black" stroke-width="1" fill="none" />
<polyline points="408.0,250.0,400.0,250.0" stroke="black" stroke-width="1" fill="none" />
<polyline points="376.0,224.0,368.0,232.0" stroke="black" stroke-width="1" fill="none" />
<polyline points="360.0,224.0,368.0,216.0" stroke="black" stroke-width="1" fill="none" />
<polyline points="368.0,208.0,360.0,216.0" stroke="black" stroke-width="1" fill="none" />
<polyline points="352.0,226.0,504.0,226.0" stroke="black" stroke-width="1" fill="none" />
<polyline points="472.0,224.0,464.0,232.0" stroke="black" stroke-width="1" fill="none" />
<polyline points="456.0,224.0,448.0,232.0" stroke="black" stroke-width="1" fill="none" />
<polyline points="448.0,224.0,440.0,232.0" stroke="black" stroke-width="1" fill="none" />
<polyline points="440.0,224.0,432.0,232.0" stroke="black" stroke-width="1" fill="none" />
<polyline points="400.0,184.0,416.0,168.0" stroke="black" stroke-width="1" fill="none" />
<polyline points="408.0,162.0,424.0,162.0" stroke="black" stroke-width="1" fill="none" />
<polyline points="424.0,154.0,416.0,154.0" stroke="black" stroke-width="1" fill="none" />
<polyline points="424.0,146.0,432.0,146.0" stroke="black" stroke-width="1" fill="none" />
<polyline points="432.0,138.0,440.0,138.0" stroke="black" stroke-width="1" fill="none" />
<polyline points="440.0,130.0,432.0,130.0" stroke="black" stroke-width="1" fill="none" />
<polyline points="440.0,122.0,448.0,122.0" stroke="black" stroke-width="1" fill="none" />
<polyline points="448.0,114.0,456.0,114.0" stroke="black" stroke-width="1" fill="none" />
<polyline points="456.0,104.0,464.0,96.0" stroke="black" stroke-width="1" fill="none" />
<polyline points="464.0,98.0,448.0,98.0" stroke="black" stroke-width="1" fill="none" />
<polyline points="440.0,88.0,432.0,96.0" stroke="black" stroke-width="1" fill="none" />
<polyline points="432.0,88.0,424.0,96.0" stroke="black" stroke-width="1" fill="none" />
<polyline points="416.0,90.0,456.0,90.0" stroke="black" stroke-width="1" fill="none" />
<polyline points="424.0,82.0,408.0,82.0" stroke="black" stroke-width="1" fill="none" />
<polyline points="408.0,74.0,400.0,74.0" stroke="black" stroke-width="1" fill="none" />
<polyline points="392.0,58.0,384.0,58.0" stroke="black" stroke-width="1" fill="none" />
<polyline points="384.0,50.0,376.0,50.0" stroke="black" stroke-width="1" fill="none" />
<polyline points="376.0,34.0,368.0,34.0" stroke="black" stroke-width="1" fill="none" />
<polyline points="368.0,26.0,376.0,26.0" stroke="black" stroke-width="1" fill="none" />
<polyline points="376.0,18.0,368.0,18.0" stroke="black" stroke-width="1" fill="none" />
<polyline points="360.0,16.0,368.0,8.0" stroke="black" stroke-width="1" fill="none" />
<polyline points="352.0,0.0,344.0,8.0" stroke="black" stroke-width="1" fill="none" />
<polyline points="344.0,0.0,336.0,8.0" stroke="black" stroke-width="1" fill="none" />
<polyline points="336.0,10.0,376.0,10.0" stroke="black" stroke-width="1" fill="none" />
<polyline points="336.0,24.0,328.0,32.0" stroke="black" stroke-width="1" fill="none" />
<polyline points="320.0,26.0,336.0,26.0" stroke="black" stroke-width="1" fill="none" />
<polyline points="328.0,34.0,312.0,34.0" stroke="black" stroke-width="1" fill="none" />
<polyline points="304.0,42.0,328.0,42.0" stroke="black" stroke-width="1" fill="none" />
<polyline points="304.0,58.0,296.0,58.0" stroke="black" stroke-width="1" fill="none" />
<polyline points="296.0,50.0,312.0,50.0" stroke="black" stroke-width="1" fill="none" />
<polyline points="304.0,66.0,296.0,66.0" stroke="black" stroke-width="1" fill="none" />
<polyline points="304.0,74.0,280.0,74.0" stroke="black" stroke-width="1" fill="none" />
<polyline points="280.0,82.0,272.0,82.0" stroke="black" stroke-width="1" fill="none" />
<polyline points="272.0,90.0,264.0,90.0" stroke="black" stroke-width="1" fill="none" />
<polyline points="264.0,98.0,256.0,98.0" stroke="black" stroke-width="1" fill="none" />
<polyline points="264.0,106.0,272.0,106.0" stroke="black" stroke-width="1" fill="none" />
<polyline points="304.0,90.0,312.0,90.0" stroke="black" stroke-width="1" fill="none" />
<polyline points="312.0,114.0,320.0,114.0" stroke="black" stroke-width="1" fill="none" />
<polyline points="320.0,130.0,328.0,130.0" stroke="black" stroke-width="1" fill="none" />
<polyline points="336.0,170.0,344.0,170.0" stroke="black" stroke-width="1" fill="none" />
<polyline points="344.0,186.0,336.0,186.0" stroke="black" stroke-width="1" fill="none" />
<polyline points="344.0,202.0,368.0,202.0" stroke="black" stroke-width="1" fill="none" />
<polyline points="376.0,194.0,384.0,194.0" stroke="black" stroke-width="1" fill="none" />
<polyline points="384.0,192.0,392.0,184.0" stroke="black" stroke-width="1" fill="none" />
<polyline points="392.0,178.0,408.0,178.0" stroke="black" stroke-width="1" fill="none" />
<polyline points="400.0,170.0,416.0,170.0" stroke="black" stroke-width="1" fill="none" />
<polyline points="400.0,186.0,384.0,186.0" stroke="black" stroke-width="1" fill="none" />
<polyline points="360.0,194.0,352.0,194.0" stroke="black" stroke-width="1" fill="none" />
<polyline points="344.0,210.0,368.0,210.0" stroke="black" stroke-width="1" fill="none" />
<polyline points="376.0,218.0,328.0,218.0" stroke="black" stroke-width="1" fill="none" />
<polyline points="320.0,226.0,336.0,226.0" stroke="black" stroke-width="1" fill="none" />
<polyline points="312.0,240.0,304.0,248.0" stroke="black" stroke-width="1" fill="none" />
<polyline points="304.0,240.0,296.0,248.0" stroke="black" stroke-width="1" fill="none" />
<polyline points="296.0,240.0,288.0,248.0" stroke="black" stroke-width="1" fill="none" />
<polyline points="272.0,234.0,392.0,234.0" stroke="black" stroke-width="1" fill="none" />
<polyline points="408.0,322.0,424.0,322.0" stroke="black" stroke-width="1" fill="none" />
<polyline points="440.0,314.0,480.0,314.0" stroke="black" stroke-width="1" fill="none" />
<polyline points="488.0,314.0,504.0,314.0" stroke="black" stroke-width="1" fill="none" />
<polyline points="496.0,306.0,512.0,306.0" stroke="black" stroke-width="1" fill="none" />
<polyline points="496.0,338.0,488.0,338.0" stroke="black" stroke-width="1" fill="none" />
<polyline points="488.0,346.0,504.0,346.0" stroke="black" stroke-width="1" fill="none" />
<polyline points="504.0,354.0,496.0,354.0" stroke="black" stroke-width="1" fill="none" />
<polyline points="480.0,338.0,472.0,338.0" stroke="black" stroke-width="1" fill="none" />
<polyline points="472.0,330.0,496.0,330.0" stroke="black" stroke-width="1" fill="none" />
<polyline points="504.0,322.0,464.0,322.0" stroke="black" stroke-width="1" fill="none" />
<polyline points="496.0,386.0,504.0,386.0" stroke="black" stroke-width="1" fill="none" />
<polyline points="504.0,394.0,496.0,394.0" stroke="black" stroke-width="1" fill="none" />
<polyline points="496.0,402.0,504.0,402.0" stroke="black" stroke-width="1" fill="none" />
<polyline points="504.0,410.0,496.0,410.0" stroke="black" stroke-width="1" fill="none" />
<polyline points="504.0,426.0,480.0,426.0" stroke="black" stroke-width="1" fill="none" />
<polyline points="480.0,434.0,496.0,434.0" stroke="black" stroke-width="1" fill="none" />
<polyline points="496.0,440.0,488.0,448.0" stroke="black" stroke-width="1" fill="none" />
<polyline points="488.0,442.0,496.0,442.0" stroke="black" stroke-width="1" fill="none" />
<polyline points="496.0,448.0,488.0,456.0" stroke="black" stroke-width="1" fill="none" />
<polyline points="496.0,456.0,488.0,464.0" stroke="black" stroke-width="1" fill="none" />
<polyline points="488.0,466.0,496.0,466.0" stroke="black" stroke-width="1" fill="none" />
<polyline points="504.0,458.0,480.0,458.0" stroke="black" stroke-width="1" fill="none" />
<polyline points="480.0,450.0,504.0,450.0" stroke="black" stroke-width="1" fill="none" />
<polyline points="296.0,498.0,280.0,498.0" stroke="black" stroke-width="1" fill="none" />
<polyline points="264.0,506.0,296.0,506.0" stroke="black" stroke-width="1" fill="none" />
<polyline points="280.0,520.0,272.0,528.0" stroke="black" stroke-width="1" fill="none" />
<polyline points="272.0,530.0,288.0,530.0" stroke="black" stroke-width="1" fill="none" />
<polyline points="288.0,536.0,280.0,544.0" stroke="black" stroke-width="1" fill="none" />
<polyline points="288.0,544.0,280.0,552.0" stroke="black" stroke-width="1" fill="none" />
<polyline points="272.0,554.0,288.0,554.0" stroke="black" stroke-width="1" fill="none" />
<polyline points="272.0,536.0,280.0,528.0" stroke="black" stroke-width="1" fill="none" />
<polyline points="272.0,522.0,288.0,522.0" stroke="black" stroke-width="1" fill="none" />
<polyline points="296.0,546.0,264.0,546.0" stroke="black" stroke-width="1" fill="none" />
<polyline points="264.0,538.0,296.0,538.0" stroke="black" stroke-width="1" fill="none" />
<polyline points="176.0,474.0,160.0,474.0" stroke="black" stroke-width="1" fill="none" />
<polyline points="160.0,466.0,168.0,466.0" stroke="black" stroke-width="1" fill="none" />
<polyline points="160.0,458.0,200.0,458.0" stroke="black" stroke-width="1" fill="none" />
<polyline points="208.0,482.0,144.0,482.0" stroke="black" stroke-width="1" fill="none" />
<polyline points="72.0,464.0,64.0,472.0" stroke="black" stroke-width="1" fill="none" />
<polyline points="64.0,464.0,72.0,456.0" stroke="black" stroke-width="1" fill="none" />
<polyline points="80.0,466.0,56.0,466.0" stroke="black" stroke-width="1" fill="none" />
<polyline points="56.0,458.0,80.0,458.0" stroke="black" stroke-width="1" fill="none" />
<polyline points="72.0,450.0,56.0,450.0" stroke="black" stroke-width="1" fill="none" />
<polyline points="56.0,442.0,72.0,442.0" stroke="black" stroke-width="1" fill="none" />
<polyline points="72.0,434.0,56.0,434.0" stroke="black" stroke-width="1" fill="none" />
<polyline points="56.0,426.0,72.0,426.0" stroke="black" stroke-width="1" fill="none" />
<polyline points="72.0,354.0,80.0,354.0" stroke="black" stroke-width="1" fill="none" />
<polyline points="80.0,346.0,72.0,346.0" stroke="black" stroke-width="1" fill="none" />
<polyline points="56.0,338.0,88.0,338.0" stroke="black" stroke-width="1" fill="none" />
<polyline points="88.0,314.0,248.0,314.0" stroke="black" stroke-width="1" fill="none" />
<polyline points="224.0,266.0,272.0,266.0" stroke="black" stroke-width="1" fill="none" />
<polyline points="264.0,234.0,256.0,234.0" stroke="black" stroke-width="1" fill="none" />
<polyline points="256.0,226.0,264.0,226.0" stroke="black" stroke-width="1" fill="none" />
<polyline points="264.0,218.0,256.0,218.0" stroke="black" stroke-width="1" fill="none" />
<polyline points="264.0,210.0,272.0,210.0" stroke="black" stroke-width="1" fill="none" />
<polyline points="272.0,202.0,264.0,202.0" stroke="black" stroke-width="1" fill="none" />
<polyline points="264.0,194.0,272.0,194.0" stroke="black" stroke-width="1" fill="none" />
<polyline points="272.0,186.0,264.0,186.0" stroke="black" stroke-width="1" fill="none" />
<polyline points="240.0,130.0,232.0,130.0" stroke="black" stroke-width="1" fill="none" />
<polyline points="232.0,138.0,224.0,138.0" stroke="black" stroke-width="1" fill="none" />
<polyline points="216.0,146.0,232.0,146.0" stroke="black" stroke-width="1" fill="none" />
<polyline points="224.0,154.0,208.0,154.0" stroke="black" stroke-width="1" fill="none" />
<polyline points="200.0,162.0,216.0,162.0" stroke="black" stroke-width="1" fill="none" />
<polyline points="216.0,170.0,200.0,170.0" stroke="black" stroke-width="1" fill="none" />
<polyline points="208.0,234.0,160.0,234.0" stroke="black" stroke-width="1" fill="none" />
<polyline points="152.0,248.0,144.0,256.0" stroke="black" stroke-width="1" fill="none" />
<polyline points="144.0,248.0,136.0,256.0" stroke="black" stroke-width="1" fill="none" />
<polyline points="136.0,248.0,128.0,256.0" stroke="black" stroke-width="1" fill="none" />
<polyline points="128.0,248.0,120.0,256.0" stroke="black" stroke-width="1" fill="none" />
<polyline points="112.0,248.0,120.0,240.0" stroke="black" stroke-width="1" fill="none" />
<polyline points="112.0,240.0,104.0,248.0" stroke="black" stroke-width="1" fill="none" />
<polyline points="112.0,234.0,120.0,234.0" stroke="black" stroke-width="1" fill="none" />
<polyline points="120.0,226.0,96.0,226.0" stroke="black" stroke-width="1" fill="none" />
<polyline points="80.0,242.0,192.0,242.0" stroke="black" stroke-width="1" fill="none" />
<polyline points="184.0,258.0,248.0,258.0" stroke="black" stroke-width="1" fill="none" />
<polyline points="272.0,250.0,216.0,250.0" stroke="black" stroke-width="1" fill="none" />
<polyline points="200.0,346.0,120.0,346.0" stroke="black" stroke-width="1" fill="none" />
<polyline points="120.0,338.0,128.0,338.0" stroke="black" stroke-width="1" fill="none" />
<polyline points="88.0,296.0,80.0,304.0" stroke="black" stroke-width="1" fill="none" />
<polyline points="80.0,296.0,72.0,304.0" stroke="black" stroke-width="1" fill="none" />
<polyline points="72.0,296.0,64.0,304.0" stroke="black" stroke-width="1" fill="none" />
<polyline points="64.0,296.0,56.0,304.0" stroke="black" stroke-width="1" fill="none" />
<polyline points="56.0,296.0,48.0,304.0" stroke="black" stroke-width="1" fill="none" />
<polyline points="40.0,306.0,176.0,306.0" stroke="black" stroke-width="1" fill="none" />
<polyline points="80.0,330.0,64.0,330.0" stroke="black" stroke-width="1" fill="none" />
<polyline points="64.0,290.0,48.0,290.0" stroke="black" stroke-width="1" fill="none" />
<polyline points="48.0,274.0,40.0,274.0" stroke="black" stroke-width="1" fill="none" />
<polyline points="40.0,266.0,56.0,266.0" stroke="black" stroke-width="1" fill="none" />
<polyline points="56.0,258.0,48.0,258.0" stroke="black" stroke-width="1" fill="none" />
<polyline points="48.0,256.0,56.0,248.0" stroke="black" stroke-width="1" fill="none" />
<polyline points="56.0,250.0,48.0,250.0" stroke="black" stroke-width="1" fill="none" />
<polyline points="40.0,242.0,56.0,242.0" stroke="black" stroke-width="1" fill="none" />
<polyline points="64.0,250.0,208.0,250.0" stroke="black" stroke-width="1" fill="none" />
<polyline points="232.0,98.0,240.0,98.0" stroke="black" stroke-width="1" fill="none" />
<polyline points="272.0,50.0,280.0,50.0" stroke="black" stroke-width="1" fill="none" />
<polyline points="280.0,42.0,288.0,42.0" stroke="black" stroke-width="1" fill="none" />
<polyline points="288.0,34.0,296.0,34.0" stroke="black" stroke-width="1" fill="none" />
<polyline points="296.0,26.0,304.0,26.0" stroke="black" stroke-width="1" fill="none" />
<polyline points="312.0,2.0,368.0,2.0" stroke="black" stroke-width="1" fill="none" />
<polyline points="48.0,232.0,40.0,240.0" stroke="black" stroke-width="1" fill="none" />
<polyline points="40.0,234.0,48.0,234.0" stroke="black" stroke-width="1" fill="none" />
<polyline points="40.0,282.0,16.0,282.0" stroke="black" stroke-width="1" fill="none" />
<polyline points="8.0,290.0,24.0,290.0" stroke="black" stroke-width="1" fill="none" />
<polyline points="16.0,312.0,8.0,320.0" stroke="black" stroke-width="1" fill="none" />
<polyline points="8.0,322.0,24.0,322.0" stroke="black" stroke-width="1" fill="none" />
<polyline points="24.0,314.0,0.0,314.0" stroke="black" stroke-width="1" fill="none" />
<polyline points="0.0,306.0,24.0,306.0" stroke="black" stroke-width="1" fill="none" />
</svg>