<svg xmlns="http://www.w3.org/2000/svg" height="477px" width="507px" version="1.1"><polyline points="255.0,1.0,253.0,9.0,251.0,17.0,248.0,25.0,245.0,33.0,242.0,41.0,240.0,49.0,237.0,57.0,235.0,65.0,232.0,73.0,229.0,81.0,227.0,89.0,224.0,97.0,222.0,105.0,219.0,113.0,216.0,121.0,214.0,129.0,211.0,137.0,209.0,145.0,206.0,153.0,203.0,161.0,201.0,169.0,198.0,177.0" stroke="black" stroke-width="1" fill="none" />
<polyline points="153.0,293.0,145.0,287.0,137.0,282.0,129.0,276.0,121.0,270.0,113.0,265.0,105.0,259.0,97.0,253.0,89.0,247.0,81.0,242.0,73.0,236.0,65.0,230.0,57.0,225.0,49.0,219.0,41.0,213.0,33.0,207.0,25.0,202.0,17.0,196.0,9.0,190.0,1.0,186.0" stroke="black" stroke-width="1" fill="none" />
<polyline points="1.0,186.0,13.0,194.0,24.0,202.0,35.0,210.0,47.0,218.0,58.0,226.0,69.0,234.0,80.0,242.0,91.0,250.0,103.0,258.0,114.0,266.0,125.0,274.0,136.0,282.0,147.0,290.0,158.0,298.0,156.0,306.0,154.0,314.0,151.0,322.0,148.0,330.0,146.0,338.0,143.0,346.0,140.0,354.0,138.0,362.0,135.0,370.0,133.0,378.0,130.0,386.0,127.0,394.0,125.0,402.0,122.0,410.0,119.0,418.0,117.0,426.0,114.0,434.0,111.0,442.0,109.0,450.0,106.0,458.0,104.0,466.0,101.0,474.0,102.0,470.0,110.0,445.0,118.0,421.0,126.0,396.0,134.0,373.0,142.0,348.0,150.0,324.0" stroke="black" stroke-width="1" fill="none" />
<polyline points="254.0,369.0,243.0,377.0,232.0,385.0,221.0,393.0,209.0,401.0,198.0,409.0,187.0,417.0,176.0,425.0,164.0,433.0,153.0,441.0,142.0,449.0,131.0,457.0,119.0,465.0,108.0,473.0,104.0,476.0,112.0,470.0,120.0,465.0,128.0,459.0,136.0,453.0,144.0,448.0,152.0,442.0,160.0,436.0,168.0,430.0,176.0,425.0,184.0,419.0,192.0,414.0,200.0,408.0,208.0,402.0,216.0,396.0,224.0,391.0,232.0,385.0,240.0,379.0,248.0,374.0,256.0,369.0,264.0,374.0,272.0,379.0,280.0,385.0,288.0,391.0,296.0,396.0,304.0,402.0,312.0,408.0,320.0,413.0,328.0,419.0,336.0,425.0,344.0,430.0,352.0,436.0,360.0,442.0,368.0,447.0,376.0,453.0,384.0,459.0,392.0,465.0,400.0,470.0,408.0,476.0" stroke="black" stroke-width="1" fill="none" />
<polyline points="405.0,454.0,397.0,430.0,389.0,406.0" stroke="black" stroke-width="1" fill="none" />
<polyline points="383.0,387.0,375.0,363.0,367.0,339.0" stroke="black" stroke-width="1" fill="none" />
<polyline points="363.0,326.0,355.0,302.0" stroke="black" stroke-width="1" fill="none" />
<polyline points="354.0,297.0,362.0,291.0,370.0,285.0,378.0,280.0,386.0,274.0,394.0,268.0,402.0,263.0,410.0,257.0,418.0,251.0,426.0,245.0,434.0,240.0,442.0,234.0,450.0,228.0,458.0,223.0,466.0,217.0,474.0,211.0,482.0,205.0,490.0,200.0,498.0,194.0,506.0,188.0,505.0,189.0,494.0,197.0,482.0,205.0,471.0,213.0,460.0,221.0,449.0,229.0,438.0,237.0,426.0,245.0,415.0,253.0,404.0,261.0,393.0,269.0,382.0,277.0,370.0,285.0,359.0,293.0,354.0,301.0,357.0,309.0,360.0,317.0,362.0,325.0,365.0,333.0,367.0,341.0,370.0,349.0,373.0,357.0,375.0,365.0,378.0,373.0,381.0,381.0,383.0,389.0,386.0,397.0,388.0,405.0,391.0,413.0,394.0,421.0,396.0,429.0,399.0,437.0,402.0,445.0,404.0,453.0,407.0,461.0,410.0,469.0,412.0,477.0" stroke="black" stroke-width="1" fill="none" />
<polyline points="404.0,474.0,393.0,466.0,381.0,458.0,370.0,450.0,359.0,442.0,348.0,434.0,337.0,426.0,325.0,418.0,314.0,410.0,303.0,402.0,291.0,394.0,280.0,386.0,269.0,378.0,258.0,370.0" stroke="black" stroke-width="1" fill="none" />
<polyline points="507.0,184.0,499.0,184.0,491.0,184.0,483.0,184.0,475.0,184.0,467.0,184.0,459.0,184.0,451.0,184.0,443.0,184.0,435.0,184.0,427.0,184.0,419.0,184.0,411.0,184.0,403.0,184.0,395.0,184.0,387.0,184.0,379.0,184.0,371.0,184.0,363.0,184.0,355.0,184.0,347.0,184.0,339.0,184.0,331.0,184.0,323.0,184.0,315.0,179.0,307.0,155.0,299.0,130.0,291.0,106.0,283.0,81.0,275.0,57.0,267.0,32.0,259.0,8.0,248.0,23.0,240.0,48.0,232.0,72.0,224.0,97.0,216.0,121.0,208.0,146.0,200.0,170.0,192.0,184.0,184.0,184.0,176.0,184.0,168.0,184.0,160.0,184.0,152.0,184.0,144.0,184.0,136.0,184.0,128.0,184.0,120.0,184.0,112.0,184.0,104.0,184.0,96.0,184.0,88.0,184.0,80.0,184.0,72.0,184.0,64.0,184.0,56.0,184.0,48.0,184.0,40.0,184.0,32.0,184.0,24.0,184.0,16.0,184.0,8.0,184.0,0.0,183.0" stroke="black" stroke-width="1" fill="none" />
<polyline points="258.0,5.0,260.0,13.0,263.0,21.0,266.0,29.0,268.0,37.0,271.0,45.0,273.0,53.0,276.0,61.0,279.0,69.0,281.0,77.0,284.0,85.0,286.0,93.0,289.0,101.0,292.0,109.0,294.0,117.0,297.0,125.0,300.0,133.0,302.0,141.0,305.0,149.0,307.0,157.0,310.0,165.0,313.0,173.0,315.0,181.0" stroke="black" stroke-width="1" fill="none" />
<polyline points="10.0,182.5,500.0,182.5" stroke="black" stroke-width="1" fill="none" />
<polyline points="490.0,190.0,470.0,210.0" stroke="black" stroke-width="1" fill="none" />
<polyline points="470.0,190.0,400.0,260.0" stroke="black" stroke-width="1" fill="none" />
<polyline points="430.0,240.0,480.0,190.0" stroke="black" stroke-width="1" fill="none" />
<polyline points="460.0,190.0,360.0,290.0" stroke="black" stroke-width="1" fill="none" />
<polyline points="350.0,300.0,270.0,380.0" stroke="black" stroke-width="1" fill="none" />
<polyline points="270.0,377.5,370.0,377.5" stroke="black" stroke-width="1" fill="none" />
<polyline points="370.0,380.0,330.0,420.0" stroke="black" stroke-width="1" fill="none" />
<polyline points="330.0,417.5,390.0,417.5" stroke="black" stroke-width="1" fill="none" />
<polyline points="390.0,420.0,370.0,440.0" stroke="black" stroke-width="1" fill="none" />
<polyline points="370.0,447.5,400.0,447.5" stroke="black" stroke-width="1" fill="none" />
<polyline points="400.0,450.0,390.0,460.0" stroke="black" stroke-width="1" fill="none" />
<polyline points="390.0,462.5,410.0,462.5" stroke="black" stroke-width="1" fill="none" />
<polyline points="400.0,460.0,390.0,470.0" stroke="black" stroke-width="1" fill="none" />
<polyline points="400.0,472.5,410.0,472.5" stroke="black" stroke-width="1" fill="none" />
<polyline points="380.0,460.0,400.0,440.0" stroke="black" stroke-width="1" fill="none" />
<polyline points="390.0,440.0,380.0,450.0" stroke="black" stroke-width="1" fill="none" />
<polyline points="380.0,452.5,400.0,452.5" stroke="black" stroke-width="1" fill="none" />
<polyline points="400.0,457.5,380.0,457.5" stroke="black" stroke-width="1" fill="none" />
<polyline points="370.0,450.0,390.0,430.0" stroke="black" stroke-width="1" fill="none" />
<polyline points="390.0,410.0,360.0,440.0" stroke="black" stroke-width="1" fill="none" />
<polyline points="360.0,437.5,390.0,437.5" stroke="black" stroke-width="1" fill="none" />
<polyline points="380.0,410.0,350.0,440.0" stroke="black" stroke-width="1" fill="none" />
<polyline points="350.0,432.5,400.0,432.5" stroke="black" stroke-width="1" fill="none" />
<polyline points="380.0,400.0,350.0,430.0" stroke="black" stroke-width="1" fill="none" />
<polyline points="340.0,430.0,380.0,390.0" stroke="black" stroke-width="1" fill="none" />
<polyline points="380.0,380.0,340.0,420.0" stroke="black" stroke-width="1" fill="none" />
<polyline points="340.0,427.5,390.0,427.5" stroke="black" stroke-width="1" fill="none" />
<polyline points="400.0,442.5,360.0,442.5" stroke="black" stroke-width="1" fill="none" />
<polyline points="330.0,422.5,390.0,422.5" stroke="black" stroke-width="1" fill="none" />
<polyline points="370.0,370.0,320.0,420.0" stroke="black" stroke-width="1" fill="none" />
<polyline points="320.0,412.5,390.0,412.5" stroke="black" stroke-width="1" fill="none" />
<polyline points="370.0,360.0,320.0,410.0" stroke="black" stroke-width="1" fill="none" />
<polyline points="310.0,410.0,370.0,350.0" stroke="black" stroke-width="1" fill="none" />
<polyline points="370.0,340.0,310.0,400.0" stroke="black" stroke-width="1" fill="none" />
<polyline points="310.0,407.5,380.0,407.5" stroke="black" stroke-width="1" fill="none" />
<polyline points="360.0,340.0,300.0,400.0" stroke="black" stroke-width="1" fill="none" />
<polyline points="300.0,397.5,380.0,397.5" stroke="black" stroke-width="1" fill="none" />
<polyline points="360.0,330.0,300.0,390.0" stroke="black" stroke-width="1" fill="none" />
<polyline points="290.0,390.0,360.0,320.0" stroke="black" stroke-width="1" fill="none" />
<polyline points="360.0,310.0,280.0,390.0" stroke="black" stroke-width="1" fill="none" />
<polyline points="280.0,382.5,380.0,382.5" stroke="black" stroke-width="1" fill="none" />
<polyline points="350.0,310.0,280.0,380.0" stroke="black" stroke-width="1" fill="none" />
<polyline points="290.0,387.5,380.0,387.5" stroke="black" stroke-width="1" fill="none" />
<polyline points="390.0,402.5,300.0,402.5" stroke="black" stroke-width="1" fill="none" />
<polyline points="290.0,392.5,380.0,392.5" stroke="black" stroke-width="1" fill="none" />
<polyline points="270.0,370.0,450.0,190.0" stroke="black" stroke-width="1" fill="none" />
<polyline points="440.0,190.0,260.0,370.0" stroke="black" stroke-width="1" fill="none" />
<polyline points="260.0,372.5,380.0,372.5" stroke="black" stroke-width="1" fill="none" />
<polyline points="250.0,370.0,430.0,190.0" stroke="black" stroke-width="1" fill="none" />
<polyline points="420.0,190.0,220.0,390.0" stroke="black" stroke-width="1" fill="none" />
<polyline points="180.0,420.0,410.0,190.0" stroke="black" stroke-width="1" fill="none" />
<polyline points="400.0,190.0,150.0,440.0" stroke="black" stroke-width="1" fill="none" />
<polyline points="140.0,447.5,120.0,447.5" stroke="black" stroke-width="1" fill="none" />
<polyline points="120.0,437.5,150.0,437.5" stroke="black" stroke-width="1" fill="none" />
<polyline points="130.0,417.5,180.0,417.5" stroke="black" stroke-width="1" fill="none" />
<polyline points="140.0,387.5,220.0,387.5" stroke="black" stroke-width="1" fill="none" />
<polyline points="150.0,357.5,370.0,357.5" stroke="black" stroke-width="1" fill="none" />
<polyline points="370.0,190.0,110.0,450.0" stroke="black" stroke-width="1" fill="none" />
<polyline points="110.0,452.5,140.0,452.5" stroke="black" stroke-width="1" fill="none" />
<polyline points="120.0,430.0,360.0,190.0" stroke="black" stroke-width="1" fill="none" />
<polyline points="350.0,190.0,120.0,420.0" stroke="black" stroke-width="1" fill="none" />
<polyline points="120.0,422.5,180.0,422.5" stroke="black" stroke-width="1" fill="none" />
<polyline points="200.0,407.5,130.0,407.5" stroke="black" stroke-width="1" fill="none" />
<polyline points="130.0,400.0,340.0,190.0" stroke="black" stroke-width="1" fill="none" />
<polyline points="330.0,190.0,130.0,390.0" stroke="black" stroke-width="1" fill="none" />
<polyline points="130.0,392.5,220.0,392.5" stroke="black" stroke-width="1" fill="none" />
<polyline points="240.0,377.5,140.0,377.5" stroke="black" stroke-width="1" fill="none" />
<polyline points="140.0,370.0,320.0,190.0" stroke="black" stroke-width="1" fill="none" />
<polyline points="320.0,180.0,140.0,360.0" stroke="black" stroke-width="1" fill="none" />
<polyline points="140.0,362.5,370.0,362.5" stroke="black" stroke-width="1" fill="none" />
<polyline points="380.0,190.0,110.0,460.0" stroke="black" stroke-width="1" fill="none" />
<polyline points="110.0,457.5,130.0,457.5" stroke="black" stroke-width="1" fill="none" />
<polyline points="110.0,470.0,390.0,190.0" stroke="black" stroke-width="1" fill="none" />
<polyline points="310.0,180.0,150.0,340.0" stroke="black" stroke-width="1" fill="none" />
<polyline points="150.0,337.5,360.0,337.5" stroke="black" stroke-width="1" fill="none" />
<polyline points="310.0,170.0,150.0,330.0" stroke="black" stroke-width="1" fill="none" />
<polyline points="150.0,332.5,370.0,332.5" stroke="black" stroke-width="1" fill="none" />
<polyline points="310.0,160.0,160.0,310.0" stroke="black" stroke-width="1" fill="none" />
<polyline points="160.0,307.5,350.0,307.5" stroke="black" stroke-width="1" fill="none" />
<polyline points="300.0,160.0,160.0,300.0" stroke="black" stroke-width="1" fill="none" />
<polyline points="160.0,297.5,350.0,297.5" stroke="black" stroke-width="1" fill="none" />
<polyline points="300.0,150.0,160.0,290.0" stroke="black" stroke-width="1" fill="none" />
<polyline points="150.0,290.0,300.0,140.0" stroke="black" stroke-width="1" fill="none" />
<polyline points="300.0,130.0,140.0,290.0" stroke="black" stroke-width="1" fill="none" />
<polyline points="140.0,282.5,370.0,282.5" stroke="black" stroke-width="1" fill="none" />
<polyline points="290.0,130.0,140.0,280.0" stroke="black" stroke-width="1" fill="none" />
<polyline points="130.0,280.0,290.0,120.0" stroke="black" stroke-width="1" fill="none" />
<polyline points="290.0,110.0,130.0,270.0" stroke="black" stroke-width="1" fill="none" />
<polyline points="130.0,272.5,390.0,272.5" stroke="black" stroke-width="1" fill="none" />
<polyline points="290.0,100.0,120.0,270.0" stroke="black" stroke-width="1" fill="none" />
<polyline points="120.0,267.5,390.0,267.5" stroke="black" stroke-width="1" fill="none" />
<polyline points="280.0,100.0,200.0,180.0" stroke="black" stroke-width="1" fill="none" />
<polyline points="200.0,177.5,310.0,177.5" stroke="black" stroke-width="1" fill="none" />
<polyline points="280.0,90.0,200.0,170.0" stroke="black" stroke-width="1" fill="none" />
<polyline points="200.0,172.5,310.0,172.5" stroke="black" stroke-width="1" fill="none" />
<polyline points="280.0,107.5,230.0,107.5" stroke="black" stroke-width="1" fill="none" />
<polyline points="230.0,97.5,280.0,97.5" stroke="black" stroke-width="1" fill="none" />
<polyline points="280.0,80.0,210.0,150.0" stroke="black" stroke-width="1" fill="none" />
<polyline points="210.0,147.5,300.0,147.5" stroke="black" stroke-width="1" fill="none" />
<polyline points="280.0,70.0,210.0,140.0" stroke="black" stroke-width="1" fill="none" />
<polyline points="210.0,142.5,300.0,142.5" stroke="black" stroke-width="1" fill="none" />
<polyline points="270.0,70.0,220.0,120.0" stroke="black" stroke-width="1" fill="none" />
<polyline points="220.0,117.5,290.0,117.5" stroke="black" stroke-width="1" fill="none" />
<polyline points="270.0,60.0,220.0,110.0" stroke="black" stroke-width="1" fill="none" />
<polyline points="220.0,112.5,290.0,112.5" stroke="black" stroke-width="1" fill="none" />
<polyline points="270.0,77.5,240.0,77.5" stroke="black" stroke-width="1" fill="none" />
<polyline points="240.0,67.5,270.0,67.5" stroke="black" stroke-width="1" fill="none" />
<polyline points="270.0,50.0,230.0,90.0" stroke="black" stroke-width="1" fill="none" />
<polyline points="230.0,87.5,280.0,87.5" stroke="black" stroke-width="1" fill="none" />
<polyline points="270.0,40.0,230.0,80.0" stroke="black" stroke-width="1" fill="none" />
<polyline points="230.0,82.5,280.0,82.5" stroke="black" stroke-width="1" fill="none" />
<polyline points="240.0,60.0,260.0,40.0" stroke="black" stroke-width="1" fill="none" />
<polyline points="260.0,30.0,240.0,50.0" stroke="black" stroke-width="1" fill="none" />
<polyline points="240.0,52.5,270.0,52.5" stroke="black" stroke-width="1" fill="none" />
<polyline points="260.0,47.5,250.0,47.5" stroke="black" stroke-width="1" fill="none" />
<polyline points="250.0,37.5,260.0,37.5" stroke="black" stroke-width="1" fill="none" />
<polyline points="250.0,30.0,260.0,20.0" stroke="black" stroke-width="1" fill="none" />
<polyline points="260.0,10.0,250.0,20.0" stroke="black" stroke-width="1" fill="none" />
<polyline points="250.0,22.5,260.0,22.5" stroke="black" stroke-width="1" fill="none" />
<polyline points="260.0,27.5,250.0,27.5" stroke="black" stroke-width="1" fill="none" />
<polyline points="240.0,32.5,270.0,32.5" stroke="black" stroke-width="1" fill="none" />
<polyline points="260.0,12.5,250.0,12.5" stroke="black" stroke-width="1" fill="none" />
<polyline points="240.0,42.5,270.0,42.5" stroke="black" stroke-width="1" fill="none" />
<polyline points="270.0,57.5,240.0,57.5" stroke="black" stroke-width="1" fill="none" />
<polyline points="230.0,62.5,280.0,62.5" stroke="black" stroke-width="1" fill="none" />
<polyline points="280.0,72.5,230.0,72.5" stroke="black" stroke-width="1" fill="none" />
<polyline points="220.0,92.5,290.0,92.5" stroke="black" stroke-width="1" fill="none" />
<polyline points="290.0,137.5,220.0,137.5" stroke="black" stroke-width="1" fill="none" />
<polyline points="220.0,127.5,290.0,127.5" stroke="black" stroke-width="1" fill="none" />
<polyline points="290.0,102.5,220.0,102.5" stroke="black" stroke-width="1" fill="none" />
<polyline points="210.0,122.5,300.0,122.5" stroke="black" stroke-width="1" fill="none" />
<polyline points="300.0,167.5,210.0,167.5" stroke="black" stroke-width="1" fill="none" />
<polyline points="210.0,157.5,300.0,157.5" stroke="black" stroke-width="1" fill="none" />
<polyline points="300.0,132.5,210.0,132.5" stroke="black" stroke-width="1" fill="none" />
<polyline points="200.0,152.5,310.0,152.5" stroke="black" stroke-width="1" fill="none" />
<polyline points="310.0,187.5,200.0,187.5" stroke="black" stroke-width="1" fill="none" />
<polyline points="190.0,190.0,120.0,260.0" stroke="black" stroke-width="1" fill="none" />
<polyline points="110.0,260.0,180.0,190.0" stroke="black" stroke-width="1" fill="none" />
<polyline points="170.0,190.0,100.0,260.0" stroke="black" stroke-width="1" fill="none" />
<polyline points="100.0,252.5,410.0,252.5" stroke="black" stroke-width="1" fill="none" />
<polyline points="310.0,162.5,200.0,162.5" stroke="black" stroke-width="1" fill="none" />
<polyline points="160.0,190.0,100.0,250.0" stroke="black" stroke-width="1" fill="none" />
<polyline points="90.0,250.0,150.0,190.0" stroke="black" stroke-width="1" fill="none" />
<polyline points="140.0,190.0,90.0,240.0" stroke="black" stroke-width="1" fill="none" />
<polyline points="90.0,247.5,420.0,247.5" stroke="black" stroke-width="1" fill="none" />
<polyline points="360.0,327.5,160.0,327.5" stroke="black" stroke-width="1" fill="none" />
<polyline points="160.0,317.5,350.0,317.5" stroke="black" stroke-width="1" fill="none" />
<polyline points="360.0,302.5,160.0,302.5" stroke="black" stroke-width="1" fill="none" />
<polyline points="150.0,292.5,360.0,292.5" stroke="black" stroke-width="1" fill="none" />
<polyline points="360.0,347.5,150.0,347.5" stroke="black" stroke-width="1" fill="none" />
<polyline points="140.0,342.5,370.0,342.5" stroke="black" stroke-width="1" fill="none" />
<polyline points="360.0,322.5,150.0,322.5" stroke="black" stroke-width="1" fill="none" />
<polyline points="150.0,312.5,360.0,312.5" stroke="black" stroke-width="1" fill="none" />
<polyline points="360.0,287.5,150.0,287.5" stroke="black" stroke-width="1" fill="none" />
<polyline points="130.0,277.5,380.0,277.5" stroke="black" stroke-width="1" fill="none" />
<polyline points="370.0,367.5,140.0,367.5" stroke="black" stroke-width="1" fill="none" />
<polyline points="130.0,372.5,250.0,372.5" stroke="black" stroke-width="1" fill="none" />
<polyline points="140.0,352.5,370.0,352.5" stroke="black" stroke-width="1" fill="none" />
<polyline points="210.0,397.5,130.0,397.5" stroke="black" stroke-width="1" fill="none" />
<polyline points="120.0,402.5,210.0,402.5" stroke="black" stroke-width="1" fill="none" />
<polyline points="230.0,382.5,130.0,382.5" stroke="black" stroke-width="1" fill="none" />
<polyline points="120.0,412.5,190.0,412.5" stroke="black" stroke-width="1" fill="none" />
<polyline points="170.0,427.5,120.0,427.5" stroke="black" stroke-width="1" fill="none" />
<polyline points="110.0,432.5,160.0,432.5" stroke="black" stroke-width="1" fill="none" />
<polyline points="150.0,442.5,110.0,442.5" stroke="black" stroke-width="1" fill="none" />
<polyline points="100.0,462.5,120.0,462.5" stroke="black" stroke-width="1" fill="none" />
<polyline points="110.0,472.5,100.0,472.5" stroke="black" stroke-width="1" fill="none" />
<polyline points="110.0,262.5,400.0,262.5" stroke="black" stroke-width="1" fill="none" />
<polyline points="130.0,190.0,80.0,240.0" stroke="black" stroke-width="1" fill="none" />
<polyline points="80.0,237.5,430.0,237.5" stroke="black" stroke-width="1" fill="none" />
<polyline points="120.0,190.0,70.0,240.0" stroke="black" stroke-width="1" fill="none" />
<polyline points="70.0,232.5,440.0,232.5" stroke="black" stroke-width="1" fill="none" />
<polyline points="400.0,257.5,110.0,257.5" stroke="black" stroke-width="1" fill="none" />
<polyline points="80.0,242.5,430.0,242.5" stroke="black" stroke-width="1" fill="none" />
<polyline points="110.0,190.0,70.0,230.0" stroke="black" stroke-width="1" fill="none" />
<polyline points="70.0,227.5,450.0,227.5" stroke="black" stroke-width="1" fill="none" />
<polyline points="100.0,190.0,60.0,230.0" stroke="black" stroke-width="1" fill="none" />
<polyline points="60.0,222.5,460.0,222.5" stroke="black" stroke-width="1" fill="none" />
<polyline points="90.0,190.0,60.0,220.0" stroke="black" stroke-width="1" fill="none" />
<polyline points="50.0,220.0,80.0,190.0" stroke="black" stroke-width="1" fill="none" />
<polyline points="70.0,190.0,50.0,210.0" stroke="black" stroke-width="1" fill="none" />
<polyline points="50.0,217.5,460.0,217.5" stroke="black" stroke-width="1" fill="none" />
<polyline points="60.0,190.0,40.0,210.0" stroke="black" stroke-width="1" fill="none" />
<polyline points="40.0,207.5,470.0,207.5" stroke="black" stroke-width="1" fill="none" />
<polyline points="50.0,190.0,30.0,210.0" stroke="black" stroke-width="1" fill="none" />
<polyline points="30.0,202.5,480.0,202.5" stroke="black" stroke-width="1" fill="none" />
<polyline points="470.0,212.5,40.0,212.5" stroke="black" stroke-width="1" fill="none" />
<polyline points="30.0,200.0,40.0,190.0" stroke="black" stroke-width="1" fill="none" />
<polyline points="30.0,190.0,20.0,200.0" stroke="black" stroke-width="1" fill="none" />
<polyline points="20.0,197.5,490.0,197.5" stroke="black" stroke-width="1" fill="none" />
<polyline points="500.0,192.5,10.0,192.5" stroke="black" stroke-width="1" fill="none" />
</svg>