<svg xmlns="http://www.w3.org/2000/svg" height="477px" width="512px" version="1.1"><polyline points="255.0,1.0,253.0,9.0,251.0,17.0,248.0,25.0,245.0,33.0,242.0,41.0,240.0,49.0,237.0,57.0,235.0,65.0,232.0,73.0,229.0,81.0,227.0,89.0,224.0,97.0,222.0,105.0,219.0,113.0,216.0,121.0,214.0,129.0,211.0,137.0,209.0,145.0,206.0,153.0,203.0,161.0,201.0,169.0,198.0,177.0" stroke="black" stroke-width="1" fill="none" />
<polyline points="153.0,293.0,145.0,287.0,137.0,282.0,129.0,276.0,121.0,270.0,113.0,265.0,105.0,259.0,97.0,253.0,89.0,247.0,81.0,242.0,73.0,236.0,65.0,230.0,57.0,225.0,49.0,219.0,41.0,213.0,33.0,207.0,25.0,202.0,17.0,196.0,9.0,190.0,1.0,186.0" stroke="black" stroke-width="1" fill="none" />
<polyline points="1.0,186.0,13.0,194.0,24.0,202.0,35.0,210.0,47.0,218.0,58.0,226.0,69.0,234.0,80.0,242.0,91.0,250.0,103.0,258.0,114.0,266.0,125.0,274.0,136.0,282.0,147.0,290.0,158.0,298.0,156.0,306.0,154.0,314.0,151.0,322.0,148.0,330.0,146.0,338.0,143.0,346.0,140.0,354.0,138.0,362.0,135.0,370.0,133.0,378.0,130.0,386.0,127.0,394.0,125.0,402.0,122.0,410.0,119.0,418.0,117.0,426.0,114.0,434.0,111.0,442.0,109.0,450.0,106.0,458.0,104.0,466.0,101.0,474.0,102.0,470.0,110.0,445.0,118.0,421.0,126.0,396.0,134.0,373.0,142.0,348.0,150.0,324.0" stroke="black" stroke-width="1" fill="none" />
<polyline points="254.0,369.0,243.0,377.0,232.0,385.0,221.0,393.0,209.0,401.0,198.0,409.0,187.0,417.0,176.0,425.0,164.0,433.0,153.0,441.0,142.0,449.0,131.0,457.0,119.0,465.0,108.0,473.0,104.0,476.0,112.0,470.0,120.0,465.0,128.0,459.0,136.0,453.0,144.0,448.0,152.0,442.0,160.0,436.0,168.0,430.0,176.0,425.0,184.0,419.0,192.0,414.0,200.0,408.0,208.0,402.0,216.0,396.0,224.0,391.0,232.0,385.0,240.0,379.0,248.0,374.0,256.0,369.0,264.0,374.0,272.0,379.0,280.0,385.0,288.0,391.0,296.0,396.0,304.0,402.0,312.0,408.0,320.0,413.0,328.0,419.0,336.0,425.0,344.0,430.0,352.0,436.0,360.0,442.0,368.0,447.0,376.0,453.0,384.0,459.0,392.0,465.0,400.0,470.0,408.0,476.0" stroke="black" stroke-width="1" fill="none" />
<polyline points="405.0,454.0,397.0,430.0,389.0,406.0" stroke="black" stroke-width="1" fill="none" />
<polyline points="383.0,387.0,375.0,363.0,367.0,339.0" stroke="black" stroke-width="1" fill="none" />
<polyline points="363.0,326.0,355.0,302.0" stroke="black" stroke-width="1" fill="none" />
<polyline points="354.0,297.0,362.0,291.0,370.0,285.0,378.0,280.0,386.0,274.0,394.0,268.0,402.0,263.0,410.0,257.0,418.0,251.0,426.0,245.0,434.0,240.0,442.0,234.0,450.0,228.0,458.0,223.0,466.0,217.0,474.0,211.0,482.0,205.0,490.0,200.0,498.0,194.0,506.0,188.0,505.0,189.0,494.0,197.0,482.0,205.0,471.0,213.0,460.0,221.0,449.0,229.0,438.0,237.0,426.0,245.0,415.0,253.0,404.0,261.0,393.0,269.0,382.0,277.0,370.0,285.0,359.0,293.0,354.0,301.0,357.0,309.0,360.0,317.0,362.0,325.0,365.0,333.0,367.0,341.0,370.0,349.0,373.0,357.0,375.0,365.0,378.0,373.0,381.0,381.0,383.0,389.0,386.0,397.0,388.0,405.0,391.0,413.0,394.0,421.0,396.0,429.0,399.0,437.0,402.0,445.0,404.0,453.0,407.0,461.0,410.0,469.0,412.0,477.0" stroke="black" stroke-width="1" fill="none" />
<polyline points="404.0,474.0,393.0,466.0,381.0,458.0,370.0,450.0,359.0,442.0,348.0,434.0,337.0,426.0,325.0,418.0,314.0,410.0,303.0,402.0,291.0,394.0,280.0,386.0,269.0,378.0,258.0,370.0" stroke="black" stroke-width="1" fill="none" />
<polyline points="507.0,184.0,499.0,184.0,491.0,184.0,483.0,184.0,475.0,184.0,467.0,184.0,459.0,184.0,451.0,184.0,443.0,184.0,435.0,184.0,427.0,184.0,419.0,184.0,411.0,184.0,403.0,184.0,395.0,184.0,387.0,184.0,379.0,184.0,371.0,184.0,363.0,184.0,355.0,184.0,347.0,184.0,339.0,184.0,331.0,184.0,323.0,184.0,315.0,179.0,307.0,155.0,299.0,130.0,291.0,106.0,283.0,81.0,275.0,57.0,267.0,32.0,259.0,8.0,248.0,23.0,240.0,48.0,232.0,72.0,224.0,97.0,216.0,121.0,208.0,146.0,200.0,170.0,192.0,184.0,184.0,184.0,176.0,184.0,168.0,184.0,160.0,184.0,152.0,184.0,144.0,184.0,136.0,184.0,128.0,184.0,120.0,184.0,112.0,184.0,104.0,184.0,96.0,184.0,88.0,184.0,80.0,184.0,72.0,184.0,64.0,184.0,56.0,184.0,48.0,184.0,40.0,184.0,32.0,184.0,24.0,184.0,16.0,184.0,8.0,184.0,0.0,183.0" stroke="black" stroke-width="1" fill="none" />
<polyline points="258.0,5.0,260.0,13.0,263.0,21.0,266.0,29.0,268.0,37.0,271.0,45.0,273.0,53.0,276.0,61.0,279.0,69.0,281.0,77.0,284.0,85.0,286.0,93.0,289.0,101.0,292.0,109.0,294.0,117.0,297.0,125.0,300.0,133.0,302.0,141.0,305.0,149.0,307.0,157.0,310.0,165.0,313.0,173.0,315.0,181.0" stroke="black" stroke-width="1" fill="none" />
<polyline points="8.0,186.0,512.0,186.0" stroke="black" stroke-width="1" fill="none" />
<polyline points="504.0,184.0,488.0,200.0" stroke="black" stroke-width="1" fill="none" />
<polyline points="488.0,184.0,432.0,240.0" stroke="black" stroke-width="1" fill="none" />
<polyline points="456.0,224.0,496.0,184.0" stroke="black" stroke-width="1" fill="none" />
<polyline points="480.0,184.0,400.0,264.0" stroke="black" stroke-width="1" fill="none" />
<polyline points="376.0,280.0,472.0,184.0" stroke="black" stroke-width="1" fill="none" />
<polyline points="464.0,184.0,272.0,376.0" stroke="black" stroke-width="1" fill="none" />
<polyline points="272.0,378.0,384.0,378.0" stroke="black" stroke-width="1" fill="none" />
<polyline points="384.0,384.0,344.0,424.0" stroke="black" stroke-width="1" fill="none" />
<polyline points="344.0,430.0,392.0,430.0" stroke="black" stroke-width="1" fill="none" />
<polyline points="392.0,432.0,376.0,448.0" stroke="black" stroke-width="1" fill="none" />
<polyline points="376.0,450.0,408.0,450.0" stroke="black" stroke-width="1" fill="none" />
<polyline points="408.0,456.0,400.0,464.0" stroke="black" stroke-width="1" fill="none" />
<polyline points="400.0,470.0,408.0,470.0" stroke="black" stroke-width="1" fill="none" />
<polyline points="408.0,464.0,400.0,472.0" stroke="black" stroke-width="1" fill="none" />
<polyline points="392.0,466.0,408.0,466.0" stroke="black" stroke-width="1" fill="none" />
<polyline points="400.0,456.0,392.0,464.0" stroke="black" stroke-width="1" fill="none" />
<polyline points="392.0,462.0,400.0,462.0" stroke="black" stroke-width="1" fill="none" />
<polyline points="392.0,456.0,400.0,448.0" stroke="black" stroke-width="1" fill="none" />
<polyline points="400.0,440.0,384.0,456.0" stroke="black" stroke-width="1" fill="none" />
<polyline points="384.0,454.0,400.0,454.0" stroke="black" stroke-width="1" fill="none" />
<polyline points="408.0,458.0,384.0,458.0" stroke="black" stroke-width="1" fill="none" />
<polyline points="376.0,456.0,400.0,432.0" stroke="black" stroke-width="1" fill="none" />
<polyline points="392.0,424.0,368.0,448.0" stroke="black" stroke-width="1" fill="none" />
<polyline points="368.0,446.0,400.0,446.0" stroke="black" stroke-width="1" fill="none" />
<polyline points="392.0,416.0,368.0,440.0" stroke="black" stroke-width="1" fill="none" />
<polyline points="360.0,440.0,392.0,408.0" stroke="black" stroke-width="1" fill="none" />
<polyline points="384.0,408.0,352.0,440.0" stroke="black" stroke-width="1" fill="none" />
<polyline points="352.0,434.0,400.0,434.0" stroke="black" stroke-width="1" fill="none" />
<polyline points="384.0,400.0,352.0,432.0" stroke="black" stroke-width="1" fill="none" />
<polyline points="344.0,432.0,384.0,392.0" stroke="black" stroke-width="1" fill="none" />
<polyline points="376.0,384.0,336.0,424.0" stroke="black" stroke-width="1" fill="none" />
<polyline points="336.0,422.0,392.0,422.0" stroke="black" stroke-width="1" fill="none" />
<polyline points="400.0,442.0,360.0,442.0" stroke="black" stroke-width="1" fill="none" />
<polyline points="360.0,438.0,392.0,438.0" stroke="black" stroke-width="1" fill="none" />
<polyline points="400.0,426.0,336.0,426.0" stroke="black" stroke-width="1" fill="none" />
<polyline points="328.0,424.0,376.0,376.0" stroke="black" stroke-width="1" fill="none" />
<polyline points="376.0,368.0,328.0,416.0" stroke="black" stroke-width="1" fill="none" />
<polyline points="328.0,414.0,384.0,414.0" stroke="black" stroke-width="1" fill="none" />
<polyline points="376.0,360.0,320.0,416.0" stroke="black" stroke-width="1" fill="none" />
<polyline points="320.0,410.0,392.0,410.0" stroke="black" stroke-width="1" fill="none" />
<polyline points="368.0,360.0,320.0,408.0" stroke="black" stroke-width="1" fill="none" />
<polyline points="312.0,408.0,368.0,352.0" stroke="black" stroke-width="1" fill="none" />
<polyline points="368.0,344.0,312.0,400.0" stroke="black" stroke-width="1" fill="none" />
<polyline points="312.0,406.0,384.0,406.0" stroke="black" stroke-width="1" fill="none" />
<polyline points="392.0,418.0,328.0,418.0" stroke="black" stroke-width="1" fill="none" />
<polyline points="304.0,402.0,392.0,402.0" stroke="black" stroke-width="1" fill="none" />
<polyline points="368.0,336.0,304.0,400.0" stroke="black" stroke-width="1" fill="none" />
<polyline points="304.0,398.0,384.0,398.0" stroke="black" stroke-width="1" fill="none" />
<polyline points="360.0,336.0,296.0,400.0" stroke="black" stroke-width="1" fill="none" />
<polyline points="296.0,394.0,384.0,394.0" stroke="black" stroke-width="1" fill="none" />
<polyline points="360.0,328.0,296.0,392.0" stroke="black" stroke-width="1" fill="none" />
<polyline points="288.0,392.0,360.0,320.0" stroke="black" stroke-width="1" fill="none" />
<polyline points="360.0,312.0,288.0,384.0" stroke="black" stroke-width="1" fill="none" />
<polyline points="288.0,390.0,376.0,390.0" stroke="black" stroke-width="1" fill="none" />
<polyline points="352.0,312.0,280.0,384.0" stroke="black" stroke-width="1" fill="none" />
<polyline points="280.0,382.0,376.0,382.0" stroke="black" stroke-width="1" fill="none" />
<polyline points="352.0,304.0,272.0,384.0" stroke="black" stroke-width="1" fill="none" />
<polyline points="280.0,386.0,384.0,386.0" stroke="black" stroke-width="1" fill="none" />
<polyline points="264.0,376.0,456.0,184.0" stroke="black" stroke-width="1" fill="none" />
<polyline points="448.0,184.0,264.0,368.0" stroke="black" stroke-width="1" fill="none" />
<polyline points="264.0,370.0,376.0,370.0" stroke="black" stroke-width="1" fill="none" />
<polyline points="376.0,374.0,264.0,374.0" stroke="black" stroke-width="1" fill="none" />
<polyline points="256.0,368.0,440.0,184.0" stroke="black" stroke-width="1" fill="none" />
<polyline points="432.0,184.0,232.0,384.0" stroke="black" stroke-width="1" fill="none" />
<polyline points="208.0,400.0,424.0,184.0" stroke="black" stroke-width="1" fill="none" />
<polyline points="416.0,184.0,176.0,424.0" stroke="black" stroke-width="1" fill="none" />
<polyline points="152.0,440.0,408.0,184.0" stroke="black" stroke-width="1" fill="none" />
<polyline points="400.0,184.0,120.0,464.0" stroke="black" stroke-width="1" fill="none" />
<polyline points="120.0,462.0,112.0,462.0" stroke="black" stroke-width="1" fill="none" />
<polyline points="112.0,456.0,384.0,184.0" stroke="black" stroke-width="1" fill="none" />
<polyline points="376.0,184.0,112.0,448.0" stroke="black" stroke-width="1" fill="none" />
<polyline points="112.0,446.0,144.0,446.0" stroke="black" stroke-width="1" fill="none" />
<polyline points="152.0,438.0,120.0,438.0" stroke="black" stroke-width="1" fill="none" />
<polyline points="120.0,432.0,368.0,184.0" stroke="black" stroke-width="1" fill="none" />
<polyline points="360.0,184.0,120.0,424.0" stroke="black" stroke-width="1" fill="none" />
<polyline points="120.0,422.0,176.0,422.0" stroke="black" stroke-width="1" fill="none" />
<polyline points="192.0,414.0,128.0,414.0" stroke="black" stroke-width="1" fill="none" />
<polyline points="128.0,406.0,200.0,406.0" stroke="black" stroke-width="1" fill="none" />
<polyline points="224.0,390.0,136.0,390.0" stroke="black" stroke-width="1" fill="none" />
<polyline points="136.0,382.0,232.0,382.0" stroke="black" stroke-width="1" fill="none" />
<polyline points="144.0,366.0,368.0,366.0" stroke="black" stroke-width="1" fill="none" />
<polyline points="352.0,184.0,120.0,416.0" stroke="black" stroke-width="1" fill="none" />
<polyline points="120.0,418.0,184.0,418.0" stroke="black" stroke-width="1" fill="none" />
<polyline points="128.0,400.0,344.0,184.0" stroke="black" stroke-width="1" fill="none" />
<polyline points="336.0,184.0,128.0,392.0" stroke="black" stroke-width="1" fill="none" />
<polyline points="128.0,394.0,216.0,394.0" stroke="black" stroke-width="1" fill="none" />
<polyline points="144.0,358.0,368.0,358.0" stroke="black" stroke-width="1" fill="none" />
<polyline points="392.0,184.0,104.0,472.0" stroke="black" stroke-width="1" fill="none" />
<polyline points="104.0,470.0,112.0,470.0" stroke="black" stroke-width="1" fill="none" />
<polyline points="104.0,466.0,120.0,466.0" stroke="black" stroke-width="1" fill="none" />
<polyline points="112.0,454.0,136.0,454.0" stroke="black" stroke-width="1" fill="none" />
<polyline points="144.0,450.0,112.0,450.0" stroke="black" stroke-width="1" fill="none" />
<polyline points="112.0,442.0,152.0,442.0" stroke="black" stroke-width="1" fill="none" />
<polyline points="168.0,430.0,120.0,430.0" stroke="black" stroke-width="1" fill="none" />
<polyline points="120.0,426.0,176.0,426.0" stroke="black" stroke-width="1" fill="none" />
<polyline points="208.0,398.0,128.0,398.0" stroke="black" stroke-width="1" fill="none" />
<polyline points="120.0,402.0,208.0,402.0" stroke="black" stroke-width="1" fill="none" />
<polyline points="136.0,376.0,328.0,184.0" stroke="black" stroke-width="1" fill="none" />
<polyline points="320.0,184.0,136.0,368.0" stroke="black" stroke-width="1" fill="none" />
<polyline points="136.0,370.0,256.0,370.0" stroke="black" stroke-width="1" fill="none" />
<polyline points="152.0,342.0,360.0,342.0" stroke="black" stroke-width="1" fill="none" />
<polyline points="312.0,184.0,144.0,352.0" stroke="black" stroke-width="1" fill="none" />
<polyline points="144.0,350.0,368.0,350.0" stroke="black" stroke-width="1" fill="none" />
<polyline points="312.0,176.0,144.0,344.0" stroke="black" stroke-width="1" fill="none" />
<polyline points="144.0,346.0,368.0,346.0" stroke="black" stroke-width="1" fill="none" />
<polyline points="312.0,168.0,152.0,328.0" stroke="black" stroke-width="1" fill="none" />
<polyline points="152.0,326.0,360.0,326.0" stroke="black" stroke-width="1" fill="none" />
<polyline points="312.0,160.0,152.0,320.0" stroke="black" stroke-width="1" fill="none" />
<polyline points="152.0,322.0,360.0,322.0" stroke="black" stroke-width="1" fill="none" />
<polyline points="304.0,160.0,160.0,304.0" stroke="black" stroke-width="1" fill="none" />
<polyline points="160.0,302.0,352.0,302.0" stroke="black" stroke-width="1" fill="none" />
<polyline points="304.0,152.0,160.0,296.0" stroke="black" stroke-width="1" fill="none" />
<polyline points="160.0,294.0,352.0,294.0" stroke="black" stroke-width="1" fill="none" />
<polyline points="304.0,144.0,152.0,296.0" stroke="black" stroke-width="1" fill="none" />
<polyline points="152.0,290.0,360.0,290.0" stroke="black" stroke-width="1" fill="none" />
<polyline points="304.0,136.0,152.0,288.0" stroke="black" stroke-width="1" fill="none" />
<polyline points="144.0,288.0,296.0,136.0" stroke="black" stroke-width="1" fill="none" />
<polyline points="296.0,128.0,144.0,280.0" stroke="black" stroke-width="1" fill="none" />
<polyline points="144.0,286.0,368.0,286.0" stroke="black" stroke-width="1" fill="none" />
<polyline points="296.0,120.0,136.0,280.0" stroke="black" stroke-width="1" fill="none" />
<polyline points="136.0,278.0,376.0,278.0" stroke="black" stroke-width="1" fill="none" />
<polyline points="296.0,112.0,128.0,280.0" stroke="black" stroke-width="1" fill="none" />
<polyline points="128.0,274.0,384.0,274.0" stroke="black" stroke-width="1" fill="none" />
<polyline points="288.0,112.0,128.0,272.0" stroke="black" stroke-width="1" fill="none" />
<polyline points="120.0,272.0,288.0,104.0" stroke="black" stroke-width="1" fill="none" />
<polyline points="288.0,96.0,120.0,264.0" stroke="black" stroke-width="1" fill="none" />
<polyline points="120.0,266.0,400.0,266.0" stroke="black" stroke-width="1" fill="none" />
<polyline points="288.0,88.0,200.0,176.0" stroke="black" stroke-width="1" fill="none" />
<polyline points="200.0,178.0,320.0,178.0" stroke="black" stroke-width="1" fill="none" />
<polyline points="280.0,88.0,208.0,160.0" stroke="black" stroke-width="1" fill="none" />
<polyline points="208.0,158.0,304.0,158.0" stroke="black" stroke-width="1" fill="none" />
<polyline points="280.0,80.0,208.0,152.0" stroke="black" stroke-width="1" fill="none" />
<polyline points="208.0,154.0,312.0,154.0" stroke="black" stroke-width="1" fill="none" />
<polyline points="280.0,72.0,216.0,136.0" stroke="black" stroke-width="1" fill="none" />
<polyline points="216.0,134.0,296.0,134.0" stroke="black" stroke-width="1" fill="none" />
<polyline points="280.0,78.0,240.0,78.0" stroke="black" stroke-width="1" fill="none" />
<polyline points="240.0,70.0,272.0,70.0" stroke="black" stroke-width="1" fill="none" />
<polyline points="272.0,64.0,224.0,112.0" stroke="black" stroke-width="1" fill="none" />
<polyline points="224.0,110.0,288.0,110.0" stroke="black" stroke-width="1" fill="none" />
<polyline points="280.0,64.0,216.0,128.0" stroke="black" stroke-width="1" fill="none" />
<polyline points="216.0,130.0,304.0,130.0" stroke="black" stroke-width="1" fill="none" />
<polyline points="272.0,62.0,240.0,62.0" stroke="black" stroke-width="1" fill="none" />
<polyline points="240.0,64.0,264.0,40.0" stroke="black" stroke-width="1" fill="none" />
<polyline points="264.0,32.0,240.0,56.0" stroke="black" stroke-width="1" fill="none" />
<polyline points="240.0,54.0,272.0,54.0" stroke="black" stroke-width="1" fill="none" />
<polyline points="272.0,56.0,224.0,104.0" stroke="black" stroke-width="1" fill="none" />
<polyline points="224.0,106.0,296.0,106.0" stroke="black" stroke-width="1" fill="none" />
<polyline points="272.0,48.0,232.0,88.0" stroke="black" stroke-width="1" fill="none" />
<polyline points="232.0,86.0,280.0,86.0" stroke="black" stroke-width="1" fill="none" />
<polyline points="272.0,40.0,232.0,80.0" stroke="black" stroke-width="1" fill="none" />
<polyline points="232.0,82.0,288.0,82.0" stroke="black" stroke-width="1" fill="none" />
<polyline points="264.0,46.0,248.0,46.0" stroke="black" stroke-width="1" fill="none" />
<polyline points="248.0,40.0,264.0,24.0" stroke="black" stroke-width="1" fill="none" />
<polyline points="264.0,16.0,248.0,32.0" stroke="black" stroke-width="1" fill="none" />
<polyline points="248.0,30.0,264.0,30.0" stroke="black" stroke-width="1" fill="none" />
<polyline points="256.0,16.0,248.0,24.0" stroke="black" stroke-width="1" fill="none" />
<polyline points="248.0,26.0,264.0,26.0" stroke="black" stroke-width="1" fill="none" />
<polyline points="264.0,38.0,248.0,38.0" stroke="black" stroke-width="1" fill="none" />
<polyline points="248.0,34.0,272.0,34.0" stroke="black" stroke-width="1" fill="none" />
<polyline points="264.0,18.0,248.0,18.0" stroke="black" stroke-width="1" fill="none" />
<polyline points="248.0,10.0,264.0,10.0" stroke="black" stroke-width="1" fill="none" />
<polyline points="272.0,42.0,240.0,42.0" stroke="black" stroke-width="1" fill="none" />
<polyline points="240.0,50.0,272.0,50.0" stroke="black" stroke-width="1" fill="none" />
<polyline points="280.0,58.0,240.0,58.0" stroke="black" stroke-width="1" fill="none" />
<polyline points="232.0,66.0,280.0,66.0" stroke="black" stroke-width="1" fill="none" />
<polyline points="288.0,102.0,232.0,102.0" stroke="black" stroke-width="1" fill="none" />
<polyline points="232.0,94.0,280.0,94.0" stroke="black" stroke-width="1" fill="none" />
<polyline points="280.0,74.0,232.0,74.0" stroke="black" stroke-width="1" fill="none" />
<polyline points="224.0,90.0,288.0,90.0" stroke="black" stroke-width="1" fill="none" />
<polyline points="296.0,126.0,224.0,126.0" stroke="black" stroke-width="1" fill="none" />
<polyline points="224.0,118.0,288.0,118.0" stroke="black" stroke-width="1" fill="none" />
<polyline points="288.0,98.0,224.0,98.0" stroke="black" stroke-width="1" fill="none" />
<polyline points="216.0,114.0,296.0,114.0" stroke="black" stroke-width="1" fill="none" />
<polyline points="304.0,150.0,216.0,150.0" stroke="black" stroke-width="1" fill="none" />
<polyline points="216.0,142.0,296.0,142.0" stroke="black" stroke-width="1" fill="none" />
<polyline points="296.0,122.0,216.0,122.0" stroke="black" stroke-width="1" fill="none" />
<polyline points="208.0,138.0,304.0,138.0" stroke="black" stroke-width="1" fill="none" />
<polyline points="312.0,174.0,208.0,174.0" stroke="black" stroke-width="1" fill="none" />
<polyline points="208.0,166.0,304.0,166.0" stroke="black" stroke-width="1" fill="none" />
<polyline points="304.0,146.0,208.0,146.0" stroke="black" stroke-width="1" fill="none" />
<polyline points="200.0,162.0,312.0,162.0" stroke="black" stroke-width="1" fill="none" />
<polyline points="312.0,182.0,200.0,182.0" stroke="black" stroke-width="1" fill="none" />
<polyline points="192.0,184.0,112.0,264.0" stroke="black" stroke-width="1" fill="none" />
<polyline points="112.0,262.0,400.0,262.0" stroke="black" stroke-width="1" fill="none" />
<polyline points="312.0,170.0,200.0,170.0" stroke="black" stroke-width="1" fill="none" />
<polyline points="184.0,184.0,112.0,256.0" stroke="black" stroke-width="1" fill="none" />
<polyline points="104.0,256.0,176.0,184.0" stroke="black" stroke-width="1" fill="none" />
<polyline points="168.0,184.0,96.0,256.0" stroke="black" stroke-width="1" fill="none" />
<polyline points="96.0,250.0,416.0,250.0" stroke="black" stroke-width="1" fill="none" />
<polyline points="320.0,190.0,192.0,190.0" stroke="black" stroke-width="1" fill="none" />
<polyline points="160.0,184.0,96.0,248.0" stroke="black" stroke-width="1" fill="none" />
<polyline points="88.0,248.0,152.0,184.0" stroke="black" stroke-width="1" fill="none" />
<polyline points="144.0,184.0,88.0,240.0" stroke="black" stroke-width="1" fill="none" />
<polyline points="88.0,246.0,424.0,246.0" stroke="black" stroke-width="1" fill="none" />
<polyline points="352.0,318.0,160.0,318.0" stroke="black" stroke-width="1" fill="none" />
<polyline points="160.0,310.0,352.0,310.0" stroke="black" stroke-width="1" fill="none" />
<polyline points="352.0,298.0,160.0,298.0" stroke="black" stroke-width="1" fill="none" />
<polyline points="152.0,306.0,360.0,306.0" stroke="black" stroke-width="1" fill="none" />
<polyline points="360.0,334.0,152.0,334.0" stroke="black" stroke-width="1" fill="none" />
<polyline points="144.0,330.0,368.0,330.0" stroke="black" stroke-width="1" fill="none" />
<polyline points="360.0,314.0,152.0,314.0" stroke="black" stroke-width="1" fill="none" />
<polyline points="144.0,338.0,368.0,338.0" stroke="black" stroke-width="1" fill="none" />
<polyline points="248.0,374.0,136.0,374.0" stroke="black" stroke-width="1" fill="none" />
<polyline points="128.0,378.0,240.0,378.0" stroke="black" stroke-width="1" fill="none" />
<polyline points="136.0,362.0,376.0,362.0" stroke="black" stroke-width="1" fill="none" />
<polyline points="376.0,354.0,136.0,354.0" stroke="black" stroke-width="1" fill="none" />
<polyline points="128.0,386.0,232.0,386.0" stroke="black" stroke-width="1" fill="none" />
<polyline points="200.0,410.0,120.0,410.0" stroke="black" stroke-width="1" fill="none" />
<polyline points="112.0,434.0,160.0,434.0" stroke="black" stroke-width="1" fill="none" />
<polyline points="128.0,458.0,104.0,458.0" stroke="black" stroke-width="1" fill="none" />
<polyline points="136.0,282.0,376.0,282.0" stroke="black" stroke-width="1" fill="none" />
<polyline points="392.0,270.0,120.0,270.0" stroke="black" stroke-width="1" fill="none" />
<polyline points="104.0,258.0,408.0,258.0" stroke="black" stroke-width="1" fill="none" />
<polyline points="136.0,184.0,80.0,240.0" stroke="black" stroke-width="1" fill="none" />
<polyline points="80.0,238.0,432.0,238.0" stroke="black" stroke-width="1" fill="none" />
<polyline points="128.0,184.0,72.0,240.0" stroke="black" stroke-width="1" fill="none" />
<polyline points="72.0,234.0,440.0,234.0" stroke="black" stroke-width="1" fill="none" />
<polyline points="120.0,184.0,72.0,232.0" stroke="black" stroke-width="1" fill="none" />
<polyline points="64.0,232.0,112.0,184.0" stroke="black" stroke-width="1" fill="none" />
<polyline points="104.0,184.0,64.0,224.0" stroke="black" stroke-width="1" fill="none" />
<polyline points="64.0,226.0,456.0,226.0" stroke="black" stroke-width="1" fill="none" />
<polyline points="408.0,254.0,104.0,254.0" stroke="black" stroke-width="1" fill="none" />
<polyline points="80.0,242.0,432.0,242.0" stroke="black" stroke-width="1" fill="none" />
<polyline points="96.0,184.0,56.0,224.0" stroke="black" stroke-width="1" fill="none" />
<polyline points="56.0,222.0,456.0,222.0" stroke="black" stroke-width="1" fill="none" />
<polyline points="88.0,184.0,56.0,216.0" stroke="black" stroke-width="1" fill="none" />
<polyline points="48.0,216.0,80.0,184.0" stroke="black" stroke-width="1" fill="none" />
<polyline points="72.0,184.0,40.0,216.0" stroke="black" stroke-width="1" fill="none" />
<polyline points="40.0,210.0,472.0,210.0" stroke="black" stroke-width="1" fill="none" />
<polyline points="448.0,230.0,64.0,230.0" stroke="black" stroke-width="1" fill="none" />
<polyline points="48.0,218.0,464.0,218.0" stroke="black" stroke-width="1" fill="none" />
<polyline points="64.0,184.0,40.0,208.0" stroke="black" stroke-width="1" fill="none" />
<polyline points="32.0,208.0,56.0,184.0" stroke="black" stroke-width="1" fill="none" />
<polyline points="48.0,184.0,32.0,200.0" stroke="black" stroke-width="1" fill="none" />
<polyline points="32.0,206.0,480.0,206.0" stroke="black" stroke-width="1" fill="none" />
<polyline points="464.0,214.0,48.0,214.0" stroke="black" stroke-width="1" fill="none" />
<polyline points="24.0,202.0,488.0,202.0" stroke="black" stroke-width="1" fill="none" />
<polyline points="40.0,184.0,24.0,200.0" stroke="black" stroke-width="1" fill="none" />
<polyline points="24.0,198.0,488.0,198.0" stroke="black" stroke-width="1" fill="none" />
<polyline points="32.0,184.0,16.0,200.0" stroke="black" stroke-width="1" fill="none" />
<polyline points="16.0,194.0,496.0,194.0" stroke="black" stroke-width="1" fill="none" />
<polyline points="24.0,184.0,16.0,192.0" stroke="black" stroke-width="1" fill="none" />
<polyline points="16.0,184.0,8.0,192.0" stroke="black" stroke-width="1" fill="none" />
</svg>